<?xml version="1.0" encoding="UTF-8"?>
<svg xmlns="http://www.w3.org/2000/svg" width="164.91" height="227.82" xmlns:xlink="http://www.w3.org/1999/xlink" viewBox="0 0 164.91 227.82">
  <defs>
    <style>
      .cls-1 {
        fill: #e4e4e4;
      }

      .cls-1, .cls-2, .cls-3, .cls-4, .cls-5, .cls-6, .cls-7, .cls-8, .cls-9, .cls-10, .cls-11, .cls-12, .cls-13, .cls-14, .cls-15, .cls-16, .cls-17, .cls-18, .cls-19, .cls-20, .cls-21, .cls-22, .cls-23, .cls-24, .cls-25, .cls-26, .cls-27, .cls-28, .cls-29, .cls-30, .cls-31, .cls-32, .cls-33, .cls-34, .cls-35, .cls-36, .cls-37, .cls-38, .cls-39, .cls-40 {
        stroke-width: 0px;
      }

      .cls-2 {
        fill: url(#linear-gradient-12);
      }

      .cls-3 {
        fill: url(#linear-gradient-17);
      }

      .cls-41 {
        stroke-width: .4px;
      }

      .cls-41, .cls-42, .cls-43, .cls-14, .cls-44, .cls-45, .cls-46, .cls-47, .cls-48, .cls-49 {
        fill: none;
      }

      .cls-41, .cls-44 {
        stroke-linejoin: round;
      }

      .cls-41, .cls-44, .cls-47, .cls-48, .cls-49 {
        stroke-linecap: round;
      }

      .cls-41, .cls-46 {
        stroke: #f4e3de;
      }

      .cls-4 {
        fill: #e4852a;
      }

      .cls-5 {
        fill: url(#linear-gradient-19);
      }

      .cls-6 {
        fill: url(#linear-gradient);
      }

      .cls-7 {
        fill: #5b77ba;
      }

      .cls-8 {
        fill: url(#linear-gradient-6);
      }

      .cls-9 {
        fill: #fffbfb;
      }

      .cls-50 {
        mask: url(#mask-2);
      }

      .cls-42 {
        stroke: #3385c6;
      }

      .cls-42, .cls-43, .cls-44, .cls-46 {
        stroke-width: .67px;
      }

      .cls-51 {
        clip-path: url(#clippath-2);
      }

      .cls-10 {
        fill: #010101;
      }

      .cls-11 {
        fill: url(#linear-gradient-15);
      }

      .cls-52 {
        clip-path: url(#clippath-6);
      }

      .cls-12 {
        fill: url(#linear-gradient-11);
      }

      .cls-53 {
        mask: url(#mask-3);
      }

      .cls-43 {
        stroke: #f2663f;
      }

      .cls-13 {
        fill: url(#linear-gradient-5);
      }

      .cls-54 {
        clip-path: url(#clippath-7);
      }

      .cls-15 {
        fill: #3a3b3a;
      }

      .cls-55 {
        clip-path: url(#clippath-1);
      }

      .cls-56 {
        clip-path: url(#clippath-4);
      }

      .cls-16 {
        fill: #f4e3de;
      }

      .cls-17 {
        fill: #fafbfc;
      }

      .cls-57 {
        mask: url(#mask-5);
      }

      .cls-18 {
        fill: url(#linear-gradient-13);
      }

      .cls-19 {
        fill: #afafae;
      }

      .cls-20 {
        fill: #1f2020;
      }

      .cls-21 {
        fill: url(#linear-gradient-16);
      }

      .cls-22 {
        fill: #fff;
      }

      .cls-44 {
        stroke: #ebebeb;
      }

      .cls-45 {
        stroke-width: .34px;
      }

      .cls-45, .cls-49 {
        stroke: #fafbfc;
      }

      .cls-23 {
        fill: url(#linear-gradient-20);
      }

      .cls-24 {
        fill: url(#linear-gradient-14);
      }

      .cls-25 {
        fill: url(#linear-gradient-2);
      }

      .cls-26 {
        fill: #755aa6;
      }

      .cls-27 {
        fill: url(#linear-gradient-7);
      }

      .cls-58 {
        mask: url(#mask-4);
      }

      .cls-28 {
        fill: url(#linear-gradient-3);
      }

      .cls-59 {
        clip-path: url(#clippath);
      }

      .cls-29 {
        fill: url(#linear-gradient-9);
      }

      .cls-30 {
        fill: #908f8f;
      }

      .cls-60 {
        mask: url(#mask-6);
      }

      .cls-61 {
        clip-path: url(#clippath-3);
      }

      .cls-31 {
        fill: url(#linear-gradient-8);
      }

      .cls-32 {
        fill: #ebebeb;
      }

      .cls-62 {
        clip-path: url(#clippath-8);
      }

      .cls-33 {
        fill: url(#linear-gradient-18);
      }

      .cls-34 {
        fill: #cfd0d0;
        fill-rule: evenodd;
      }

      .cls-63 {
        mask: url(#mask-1);
      }

      .cls-64 {
        mask: url(#mask);
      }

      .cls-65 {
        clip-path: url(#clippath-5);
      }

      .cls-35 {
        fill: #3cad69;
      }

      .cls-47 {
        stroke: #cfd0d0;
        stroke-width: .34px;
      }

      .cls-66 {
        mask: url(#mask-7);
      }

      .cls-36 {
        fill: url(#linear-gradient-10);
      }

      .cls-37 {
        fill: #292929;
      }

      .cls-38 {
        fill: #d9d9d8;
      }

      .cls-48 {
        stroke: #8f8f8f;
      }

      .cls-48, .cls-49 {
        stroke-width: .5px;
      }

      .cls-39 {
        fill: #484747;
      }

      .cls-40 {
        fill: url(#linear-gradient-4);
      }
    </style>
    <clipPath id="clippath">
      <rect class="cls-14" x="4.14" y="3.76" width="156.43" height="117.19"/>
    </clipPath>
    <linearGradient id="linear-gradient" x1="82.47" y1="112.88" x2="82.47" y2="77.49" gradientTransform="translate(0 180.38) scale(1 -1)" gradientUnits="userSpaceOnUse">
      <stop offset="0" stop-color="#3a3a39"/>
      <stop offset="1" stop-color="#2b2c2b"/>
    </linearGradient>
    <clipPath id="clippath-1">
      <rect class="cls-14" x="112.82" y="26.74" width="28.51" height="28.51" rx="8.39" ry="8.39"/>
    </clipPath>
    <linearGradient id="linear-gradient-2" x1="134.61" y1="175.03" x2="123.79" y2="123.79" gradientTransform="translate(0 180.38) scale(1 -1)" gradientUnits="userSpaceOnUse">
      <stop offset="0" stop-color="#94b7e1"/>
      <stop offset="1" stop-color="#4963ae"/>
    </linearGradient>
    <clipPath id="clippath-2">
      <rect class="cls-14" x="116.93" y="30.85" width="20.3" height="20.3"/>
    </clipPath>
    <linearGradient id="linear-gradient-3" x1="5.14" y1="176.62" x2="5.14" y2="163.2" gradientTransform="translate(0 180.38) scale(1 -1)" gradientUnits="userSpaceOnUse">
      <stop offset="0" stop-color="#fafbfc"/>
      <stop offset=".83" stop-color="#e0dddd"/>
      <stop offset="1" stop-color="#bfbebe"/>
    </linearGradient>
    <clipPath id="clippath-3">
      <rect class="cls-14" x="23.59" y="26.74" width="28.51" height="28.51" rx="8.39" ry="8.39"/>
    </clipPath>
    <linearGradient id="linear-gradient-4" x1="37.85" y1="153.64" x2="37.85" y2="125.13" gradientTransform="translate(0 180.38) scale(1 -1)" gradientUnits="userSpaceOnUse">
      <stop offset="0" stop-color="#3eb16c"/>
      <stop offset=".97" stop-color="#1b794b"/>
      <stop offset="1" stop-color="#2f823f"/>
      <stop offset="1" stop-color="#0f7c3e"/>
      <stop offset="1" stop-color="#0e4a3f"/>
    </linearGradient>
    <clipPath id="clippath-4">
      <rect class="cls-14" x="68.21" y="26.74" width="28.51" height="28.51" rx="8.39" ry="8.39"/>
    </clipPath>
    <linearGradient id="linear-gradient-5" x1="1443.35" y1="-559.8" x2="1430.85" y2="-596.29" gradientTransform="translate(1518.9 621) rotate(-180) scale(1 -1)" gradientUnits="userSpaceOnUse">
      <stop offset="0" stop-color="#f9a04d" stop-opacity=".6"/>
      <stop offset="1" stop-color="#c46128"/>
    </linearGradient>
    <linearGradient id="linear-gradient-6" x1="89.38" y1="159.58" x2="76.89" y2="123.1" gradientTransform="translate(0 180.38) scale(1 -1)" xlink:href="#linear-gradient-5"/>
    <linearGradient id="linear-gradient-7" x1="33.82" y1="54.48" x2="33.82" y2="39.72" xlink:href="#linear-gradient"/>
    <mask id="mask" x="25.04" y="123.67" width="17.55" height="16.99" maskUnits="userSpaceOnUse">
      <g id="path-3-outside-1_345_10204" data-name="path-3-outside-1 345 10204">
        <rect class="cls-22" x="25.04" y="123.67" width="17.55" height="16.99"/>
        <path class="cls-10" d="m25.04,126.07c0-.09.08-.17.17-.17h17.21c.09,0,.17.08.17.17v12.91c0,.93-.75,1.68-1.68,1.68h-14.19c-.93,0-1.68-.75-1.68-1.68v-12.91Z"/>
      </g>
    </mask>
    <linearGradient id="linear-gradient-8" x1="54.72" y1="54.48" x2="54.72" y2="39.72" xlink:href="#linear-gradient"/>
    <mask id="mask-1" x="45.94" y="123.67" width="17.55" height="16.99" maskUnits="userSpaceOnUse">
      <g id="path-7-outside-2_345_10204" data-name="path-7-outside-2 345 10204">
        <rect class="cls-22" x="45.94" y="123.67" width="17.55" height="16.99"/>
        <path class="cls-10" d="m45.94,126.07c0-.09.08-.17.17-.17h17.21c.09,0,.17.08.17.17v12.91c0,.93-.75,1.68-1.68,1.68h-14.19c-.93,0-1.68-.75-1.68-1.68v-12.91Z"/>
      </g>
    </mask>
    <linearGradient id="linear-gradient-9" x1="82.21" y1="54.59" x2="82.21" y2="39.83" xlink:href="#linear-gradient"/>
    <mask id="mask-2" x="71.54" y="123.56" width="21.35" height="16.99" maskUnits="userSpaceOnUse">
      <g id="path-11-outside-3_345_10204" data-name="path-11-outside-3 345 10204">
        <rect class="cls-22" x="71.54" y="123.56" width="21.35" height="16.99"/>
        <path class="cls-10" d="m71.54,125.96c0-.09.08-.17.17-.17h21.01c.09,0,.17.08.17.17v12.91c0,.93-.75,1.68-1.68,1.68h-17.99c-.93,0-1.68-.75-1.68-1.68v-12.91Z"/>
      </g>
    </mask>
    <clipPath id="clippath-5">
      <rect class="cls-14" x="79.27" y="129.09" width="5.87" height="4.98"/>
    </clipPath>
    <linearGradient id="linear-gradient-10" x1="109.71" y1="54.59" x2="109.71" y2="39.83" xlink:href="#linear-gradient"/>
    <mask id="mask-3" x="100.93" y="123.56" width="17.55" height="16.99" maskUnits="userSpaceOnUse">
      <g id="path-15-outside-4_345_10204" data-name="path-15-outside-4 345 10204">
        <rect class="cls-22" x="100.93" y="123.56" width="17.55" height="16.99"/>
        <path class="cls-10" d="m100.93,125.96c0-.09.08-.17.17-.17h17.21c.09,0,.17.08.17.17v12.91c0,.93-.75,1.68-1.68,1.68h-14.19c-.93,0-1.68-.75-1.68-1.68v-12.91Z"/>
      </g>
    </mask>
    <linearGradient id="linear-gradient-11" x1="130.61" y1="54.59" x2="130.61" y2="39.83" xlink:href="#linear-gradient"/>
    <mask id="mask-4" x="121.83" y="123.56" width="17.55" height="16.99" maskUnits="userSpaceOnUse">
      <g id="path-19-outside-5_345_10204" data-name="path-19-outside-5 345 10204">
        <rect class="cls-22" x="121.83" y="123.56" width="17.55" height="16.99"/>
        <path class="cls-10" d="m121.83,125.96c0-.09.07-.17.17-.17h17.21c.09,0,.17.08.17.17v12.91c0,.93-.75,1.68-1.68,1.68h-14.19c-.93,0-1.68-.75-1.68-1.68v-12.91Z"/>
      </g>
    </mask>
    <linearGradient id="linear-gradient-12" x1="152.84" y1="55.93" x2="152.84" y2="40.5" xlink:href="#linear-gradient"/>
    <mask id="mask-5" x="144.79" y="123.95" width="16.6" height="14.09" maskUnits="userSpaceOnUse">
      <g id="mask0_345_10204" data-name="mask0 345 10204">
        <circle class="cls-45" cx="152.92" cy="131.92" r="5.95"/>
      </g>
    </mask>
    <clipPath id="clippath-6">
      <rect class="cls-14" x="151.92" y="133.52" width="2.16" height="2.16"/>
    </clipPath>
    <linearGradient id="linear-gradient-13" x1="11.85" y1="55.93" x2="11.85" y2="40.5" xlink:href="#linear-gradient"/>
    <mask id="mask-6" x="3.63" y="123.78" width="16.6" height="14.09" maskUnits="userSpaceOnUse">
      <g id="mask1_345_10204" data-name="mask1 345 10204">
        <circle class="cls-45" cx="11.77" cy="131.75" r="5.95"/>
      </g>
    </mask>
    <clipPath id="clippath-7">
      <rect class="cls-14" x="10.51" y="134.01" width="2.35" height="2.35"/>
    </clipPath>
    <linearGradient id="linear-gradient-14" x1="81.3" y1="32.54" x2="83.91" y2="-65.12" gradientTransform="translate(0 180.38) scale(1 -1)" gradientUnits="userSpaceOnUse">
      <stop offset="0" stop-color="#a6a5a5"/>
      <stop offset="1" stop-color="#6b6b6b"/>
    </linearGradient>
    <clipPath id="clippath-8">
      <rect class="cls-14" x="111.29" y="200.64" width="8.78" height="8.55"/>
    </clipPath>
    <mask id="mask-7" x="54.8" y="196.11" width="24.58" height="13.34" maskUnits="userSpaceOnUse">
      <g id="path-33-inside-1_264_6966" data-name="path-33-inside-1 264 6966">
        <path class="cls-22" d="m66.64,202.77l-.15.08-.15-.08.15-.08.15.08Zm1.07,1.34c-.06,0-.11-.01-.15-.03-.04-.02-.06-.05-.06-.08s.02-.06.06-.08c.04-.02.09-.03.15-.03v.22Zm-.15-.7l-1.07-.56.3-.16,1.07.56-.3.16Zm-1.07-.71l1.07-.56.3.16-1.07.56-.3-.16Zm.15-.03h2.24v.22h-2.24v-.22Zm2.24,1.45h-1.17v-.22h1.17v.22Zm1.39-.72c0,.19-.15.38-.41.51-.26.14-.61.21-.98.21v-.22c.13,0,.25-.01.37-.04s.22-.06.31-.11c.09-.05.16-.1.21-.16.05-.06.07-.13.07-.19h.43Zm-1.39-.72c.37,0,.72.08.98.21.26.14.41.32.41.51h-.43c0-.07-.02-.13-.07-.19-.05-.06-.12-.12-.21-.16-.09-.05-.19-.08-.31-.11-.12-.03-.24-.04-.37-.04v-.22Z"/>
      </g>
    </mask>
    <linearGradient id="linear-gradient-15" x1="-27.19" y1="260.69" x2="-27.19" y2="250.66" gradientTransform="translate(-16.03 451.38) rotate(-180)" xlink:href="#linear-gradient"/>
    <linearGradient id="linear-gradient-16" x1="19.78" y1="-33.17" x2="19.78" y2="-41.3" xlink:href="#linear-gradient"/>
    <linearGradient id="linear-gradient-17" x1="16.58" y1="-30" x2="8.92" y2="-30.53" xlink:href="#linear-gradient"/>
    <linearGradient id="linear-gradient-18" x1="153.09" y1="-10.31" x2="153.09" y2="-20.34" xlink:href="#linear-gradient"/>
    <linearGradient id="linear-gradient-19" x1="144.47" y1="-33.17" x2="144.47" y2="-41.3" xlink:href="#linear-gradient"/>
    <linearGradient id="linear-gradient-20" x1="147.66" y1="-30" x2="155.33" y2="-30.53" xlink:href="#linear-gradient"/>
  </defs>
  <g id="Layer_3" data-name="Layer 3">
    <g>
      <g class="cls-59">
        <g>
          <rect class="cls-20" x="4.14" y="3.76" width="156.43" height="117.19"/>
          <rect class="cls-6" x="22.42" y="67.5" width="120.09" height="35.39" rx="3.35" ry="3.35"/>
          <path class="cls-17" d="m74.39,74.19h1.46v.29h-1.77v-2.55h.31v2.26Zm2.6.33c-.12,0-.24-.02-.35-.07-.11-.05-.2-.12-.27-.22-.07-.11-.1-.24-.1-.41v-1.27h.31v1.18c0,.2.04.33.13.41.08.07.2.11.36.11.07,0,.14-.01.21-.03.07-.03.13-.06.19-.12.06-.05.1-.12.13-.2.03-.08.05-.18.05-.29v-1.05h.31v1.93h-.27l-.02-.29c-.07.12-.16.2-.27.25-.11.05-.25.08-.4.08Zm2.38,0c-.19,0-.36-.04-.52-.12-.16-.08-.28-.19-.36-.34l.26-.19c.06.12.14.21.25.28.11.07.24.1.4.1.14,0,.24-.03.32-.08.08-.05.12-.12.12-.21,0-.05-.02-.1-.05-.15-.03-.05-.1-.08-.2-.1l-.46-.1c-.19-.04-.32-.1-.41-.19-.08-.09-.12-.2-.12-.34,0-.11.03-.2.09-.29.06-.09.15-.16.26-.21.11-.05.25-.08.4-.08.19,0,.35.04.48.11.13.07.23.18.29.32l-.26.17c-.04-.11-.11-.2-.21-.25-.1-.05-.2-.08-.3-.08-.09,0-.17.01-.24.04-.06.03-.11.06-.15.11-.03.04-.05.09-.05.15s.02.11.06.16c.04.05.11.08.22.1l.48.1c.18.04.31.1.38.18.07.08.11.18.11.3s-.03.23-.1.32c-.06.09-.15.16-.27.21-.12.05-.25.07-.4.07Zm1.34-.04v-2.82h.31v1.18c.07-.12.16-.2.27-.25.11-.05.23-.08.36-.08.14,0,.26.03.38.08.11.05.2.13.27.24.07.11.1.25.1.41v1.23h-.31v-1.13c0-.21-.05-.36-.14-.44-.09-.08-.2-.13-.34-.13-.09,0-.19.02-.28.07s-.17.12-.23.22c-.06.1-.09.23-.09.39v1.02h-.31Zm4.07-.29h1.46v.29h-1.77v-2.55h.31v2.26Zm2.09-2.01c-.07,0-.13-.02-.17-.06-.04-.04-.06-.1-.06-.17s.02-.12.06-.17c.04-.04.1-.07.17-.07s.12.02.17.07c.04.04.07.1.07.17s-.02.13-.07.17c-.04.04-.1.06-.17.06Zm.15.37v1.93h-.31v-1.93h.31Zm1.5-.91c.07,0,.13,0,.19.02s.11.04.14.07l-.08.25s-.06-.03-.1-.04c-.04-.01-.08-.02-.12-.02-.11,0-.2.03-.26.08-.06.05-.09.14-.09.25v2.22h-.31v-2.25c0-.08.01-.16.04-.24.03-.07.06-.13.12-.19.05-.05.12-.09.2-.12s.17-.04.28-.04Zm.32.91v.27h-1.34v-.27h1.34Zm1.16,1.97c-.18,0-.35-.04-.49-.12-.14-.08-.25-.19-.33-.34-.08-.15-.12-.33-.12-.54s.04-.39.12-.54c.08-.15.19-.27.33-.35.14-.08.3-.12.47-.12s.33.04.46.12c.13.08.23.18.29.32.07.13.1.28.1.44,0,.04,0,.08,0,.12,0,.04,0,.07-.01.1h-1.56v-.27h1.42l-.16.03c0-.19-.05-.33-.15-.43-.1-.1-.23-.15-.4-.15-.13,0-.24.03-.33.09-.09.06-.16.14-.21.25-.05.11-.07.24-.07.39s.03.28.08.39c.05.11.12.2.22.25.1.06.21.08.34.08.14,0,.26-.03.34-.08.09-.05.16-.13.22-.22l.24.14c-.05.09-.11.16-.19.23-.07.06-.16.11-.27.15-.1.03-.21.05-.34.05Z"/>
          <path class="cls-19" d="m72.23,78.79l-.05-.1h1.55v.25h-1.74v-.24l1.46-1.82.05.1h-1.47v-.25h1.66v.24l-1.46,1.82Zm2.98-.93c0-.13-.03-.22-.1-.29-.07-.07-.16-.1-.29-.1-.12,0-.21.03-.3.08-.08.05-.14.13-.18.24l-.22-.13c.04-.13.13-.23.25-.3.12-.08.27-.12.45-.12.12,0,.23.02.33.06.1.04.18.1.23.19.06.08.09.19.09.32v.81c0,.08.04.12.13.12.04,0,.08,0,.12-.02v.21c-.06.02-.12.03-.19.03-.06,0-.12-.01-.17-.04-.05-.02-.09-.06-.12-.11-.03-.05-.04-.12-.04-.19v-.03h.07c-.03.1-.07.17-.14.22-.06.05-.14.09-.22.12-.08.02-.16.04-.24.04-.1,0-.19-.02-.28-.05-.08-.03-.15-.08-.2-.15-.05-.07-.07-.15-.07-.25,0-.13.04-.23.12-.31.08-.08.2-.14.35-.17l.66-.13v.22l-.54.11c-.11.02-.19.05-.24.09-.05.04-.08.1-.08.17s.03.13.08.17c.06.04.13.06.23.06.06,0,.13,0,.18-.02.06-.02.11-.04.16-.08.05-.04.08-.08.11-.13.03-.05.04-.12.04-.19v-.46Zm.92,1.08v-1.68h.22l.04.28c.05-.1.12-.18.2-.23.09-.05.2-.08.33-.08.03,0,.06,0,.09,0,.04,0,.07.01.09.03l-.05.24s-.05-.02-.08-.02c-.03,0-.07,0-.12,0-.07,0-.14.02-.21.06-.07.04-.13.1-.17.18-.05.08-.07.18-.07.31v.91h-.27Zm2.3-1.08c0-.13-.03-.22-.1-.29-.07-.07-.16-.1-.29-.1-.12,0-.21.03-.3.08-.08.05-.14.13-.18.24l-.22-.13c.04-.13.13-.23.25-.3.12-.08.27-.12.45-.12.12,0,.23.02.33.06.1.04.18.1.23.19.06.08.09.19.09.32v.81c0,.08.04.12.13.12.04,0,.08,0,.12-.02v.21c-.06.02-.12.03-.19.03-.06,0-.12-.01-.17-.04-.05-.02-.09-.06-.12-.11-.03-.05-.04-.12-.04-.19v-.03h.07c-.03.1-.07.17-.14.22-.06.05-.14.09-.22.12-.08.02-.16.04-.24.04-.1,0-.19-.02-.28-.05-.08-.03-.15-.08-.2-.15-.05-.07-.07-.15-.07-.25,0-.13.04-.23.12-.31.08-.08.2-.14.35-.17l.66-.13v.22l-.54.11c-.11.02-.19.05-.24.09-.05.04-.08.1-.08.17s.03.13.08.17c.06.04.13.06.23.06.06,0,.13,0,.18-.02.06-.02.11-.04.16-.08.05-.04.08-.08.11-.13.03-.05.04-.12.04-.19v-.46Zm2.3.83h1.27v.25h-1.54v-2.21h.27v1.96Zm2.67-.83c0-.13-.03-.22-.1-.29-.07-.07-.16-.1-.29-.1-.12,0-.21.03-.3.08-.08.05-.14.13-.18.24l-.22-.13c.04-.13.13-.23.25-.3.12-.08.27-.12.45-.12.12,0,.23.02.33.06.1.04.18.1.23.19.06.08.09.19.09.32v.81c0,.08.04.12.13.12.04,0,.08,0,.12-.02v.21c-.06.02-.12.03-.19.03-.06,0-.12-.01-.17-.04-.05-.02-.09-.06-.12-.11-.03-.05-.04-.12-.04-.19v-.03h.07c-.03.1-.07.17-.14.22-.06.05-.14.09-.22.12-.08.02-.16.04-.24.04-.1,0-.19-.02-.28-.05-.08-.03-.15-.08-.2-.15-.05-.07-.07-.15-.07-.25,0-.13.04-.23.12-.31.08-.08.2-.14.35-.17l.66-.13v.22l-.54.11c-.11.02-.19.05-.24.09-.05.04-.08.1-.08.17s.03.13.08.17c.06.04.13.06.23.06.06,0,.13,0,.18-.02.06-.02.11-.04.16-.08.05-.04.08-.08.11-.13.03-.05.04-.12.04-.19v-.46Zm.92,1.08v-1.68h.22l.04.28c.05-.1.12-.18.2-.23.09-.05.2-.08.33-.08.03,0,.06,0,.09,0,.04,0,.07.01.09.03l-.05.24s-.05-.02-.08-.02-.07,0-.12,0c-.07,0-.14.02-.21.06-.07.04-.13.1-.17.18-.05.08-.07.18-.07.31v.91h-.27Zm1.9.03c-.16,0-.31-.03-.45-.1-.14-.07-.24-.17-.32-.3l.23-.16c.05.1.12.18.21.24.1.06.21.09.35.09.12,0,.21-.02.28-.07.07-.05.1-.11.1-.18,0-.05-.02-.09-.05-.13-.03-.04-.09-.07-.17-.09l-.4-.08c-.16-.03-.28-.09-.35-.17-.07-.08-.1-.18-.1-.29,0-.09.03-.18.08-.25.05-.08.13-.14.22-.18.1-.05.21-.07.35-.07.17,0,.31.03.42.1.11.06.2.16.25.28l-.22.15c-.04-.1-.1-.17-.18-.21-.08-.05-.17-.07-.27-.07-.08,0-.15.01-.21.03-.06.02-.1.05-.13.09-.03.04-.04.08-.04.13s.02.1.05.14c.03.04.1.07.19.09l.42.09c.16.03.27.08.33.15s.09.16.09.26-.03.2-.08.28c-.06.08-.13.14-.23.18-.1.04-.22.06-.35.06Zm1.77,0c-.16,0-.31-.03-.45-.1-.14-.07-.24-.17-.32-.3l.23-.16c.05.1.12.18.21.24.1.06.21.09.35.09.12,0,.21-.02.28-.07.07-.05.1-.11.1-.18,0-.05-.02-.09-.05-.13-.03-.04-.09-.07-.17-.09l-.4-.08c-.16-.03-.28-.09-.35-.17-.07-.08-.1-.18-.1-.29,0-.09.03-.18.08-.25.05-.08.13-.14.22-.18.1-.05.21-.07.35-.07.17,0,.31.03.42.1.11.06.2.16.25.28l-.22.15c-.04-.1-.1-.17-.18-.21-.08-.05-.17-.07-.27-.07-.08,0-.15.01-.21.03-.06.02-.1.05-.13.09-.03.04-.04.08-.04.13s.02.1.05.14c.03.04.1.07.19.09l.42.09c.16.03.27.08.33.15s.09.16.09.26-.03.2-.08.28c-.06.08-.13.14-.23.18-.1.04-.22.06-.35.06Zm1.86-1.74c.16,0,.3.03.42.1.12.07.22.17.29.3.07.13.1.29.1.47s-.03.34-.1.47c-.07.13-.17.23-.29.3-.12.07-.26.1-.42.1s-.3-.03-.42-.1-.22-.17-.29-.3c-.07-.13-.1-.29-.1-.47s.03-.34.1-.47c.07-.13.17-.23.29-.3s.26-.1.42-.1Zm0,.23c-.11,0-.21.03-.29.08-.08.05-.14.13-.19.22-.04.09-.06.21-.06.34s.02.25.06.34c.04.1.11.17.19.22.08.05.18.08.29.08s.21-.03.29-.08c.08-.05.14-.13.18-.22.04-.1.07-.21.07-.34s-.02-.25-.07-.34c-.04-.1-.1-.17-.18-.22-.08-.05-.18-.08-.29-.08Zm1.32,1.48v-1.68h.23l.02.38-.04-.04c.04-.09.08-.16.14-.21.06-.06.13-.1.21-.12.08-.02.16-.04.25-.04.12,0,.23.02.33.07.1.04.18.11.23.21.06.09.09.21.09.36v1.07h-.27v-.98c0-.19-.04-.31-.12-.39-.08-.07-.18-.11-.29-.11-.08,0-.16.02-.24.06-.08.04-.15.1-.2.18-.05.08-.08.2-.08.34v.89h-.27Z"/>
          <path class="cls-15" d="m160.63,109.93h-17.26c-1.49,0-2.91.66-3.86,1.81l-7.73,9.26h28.85v-11.07Z"/>
          <path class="cls-15" d="m4.14,109.93h17.26c1.49,0,2.91.66,3.86,1.81l7.73,9.26H4.14v-11.07Z"/>
          <path class="cls-17" d="m8.22,117.37v-.35c.35-.26.65-.49.89-.69.24-.2.43-.38.57-.54.14-.16.25-.31.31-.46.06-.15.09-.3.09-.46,0-.21-.07-.38-.2-.51-.13-.13-.31-.2-.55-.2s-.44.08-.59.24c-.15.16-.23.37-.26.63l-.38-.23c.03-.21.1-.39.2-.55.1-.16.24-.28.41-.37.18-.09.38-.13.62-.13.18,0,.35.03.49.08.15.05.27.13.38.23.1.1.18.21.24.35.06.14.09.29.09.45,0,.22-.05.44-.16.65-.11.21-.28.43-.53.67-.25.23-.58.49-1,.77h0s.09,0,.16,0c.07,0,.14,0,.21,0,.07,0,.13,0,.16,0h1.24v.4h-2.38Zm4.4.05c-.4,0-.72-.16-.96-.47-.24-.31-.36-.76-.36-1.36s.12-1.05.36-1.36c.24-.31.56-.47.96-.47s.72.16.96.47c.24.31.36.76.36,1.36s-.12,1.05-.36,1.36c-.24.31-.56.47-.96.47Zm0-.39c.19,0,.35-.05.48-.16.13-.11.23-.27.3-.49.07-.21.1-.48.1-.79s-.03-.57-.1-.79c-.06-.21-.16-.38-.3-.48-.13-.11-.29-.17-.48-.17s-.35.06-.48.17c-.13.11-.23.27-.3.48-.06.21-.1.48-.1.79s.03.57.1.79c.07.21.17.38.3.49.13.11.29.16.48.16Z"/>
          <path class="cls-17" d="m14.24,113.21c0-.19.06-.35.18-.48.12-.13.27-.2.44-.2s.32.07.44.2c.12.13.18.29.18.48s-.06.35-.18.48c-.12.13-.27.2-.44.2s-.32-.07-.44-.2c-.12-.13-.18-.3-.18-.48Zm.31,0c0,.1.03.18.09.25.07.07.14.1.23.1s.17-.03.23-.1c.07-.07.1-.15.1-.25,0-.05,0-.09-.02-.13-.02-.04-.04-.08-.07-.11-.03-.03-.07-.06-.11-.08s-.08-.03-.13-.03c-.09,0-.17.03-.23.1-.06.07-.09.15-.09.25Z"/>
          <path class="cls-17" d="m150.12,117.2v-.35c.35-.26.65-.49.89-.69.24-.2.43-.38.57-.54.14-.16.24-.31.31-.46.06-.15.09-.3.09-.46,0-.21-.07-.38-.2-.51-.13-.13-.32-.2-.55-.2s-.44.08-.58.24c-.15.16-.23.37-.26.63l-.38-.23c.03-.21.1-.39.2-.55.1-.16.24-.28.41-.37.17-.09.38-.13.62-.13.18,0,.35.03.49.08.15.05.27.13.38.23.1.1.18.21.24.35.06.14.09.29.09.45,0,.22-.05.44-.16.65-.11.21-.28.43-.53.67-.25.23-.58.49-1,.77h0s.09,0,.16,0c.07,0,.14,0,.21,0,.07,0,.13,0,.16,0h1.24v.4h-2.38Zm4.4.05c-.4,0-.72-.16-.96-.47-.24-.31-.36-.76-.36-1.36s.12-1.05.36-1.36c.24-.31.56-.47.96-.47s.72.16.96.47c.24.31.36.76.36,1.36s-.12,1.05-.36,1.36c-.24.31-.56.47-.96.47Zm0-.39c.19,0,.35-.05.48-.16.13-.11.23-.27.3-.49.07-.21.1-.48.1-.79s-.03-.57-.1-.79c-.06-.21-.16-.38-.3-.48-.13-.11-.29-.17-.48-.17s-.35.06-.48.17c-.13.11-.23.27-.3.48-.06.21-.1.48-.1.79s.03.57.1.79c.07.21.17.38.3.49.13.11.29.16.48.16Z"/>
          <path class="cls-17" d="m156.14,113.04c0-.19.06-.35.18-.48.13-.13.27-.2.44-.2s.32.07.44.2c.12.13.18.29.18.48s-.06.35-.18.48c-.12.13-.27.2-.44.2s-.32-.07-.44-.2c-.12-.13-.18-.3-.18-.48Zm.31,0c0,.1.03.18.09.25.07.07.14.1.23.1s.17-.03.23-.1c.07-.07.1-.15.1-.25,0-.05,0-.09-.02-.13-.02-.04-.04-.08-.07-.11-.03-.03-.07-.06-.11-.08-.04-.02-.08-.03-.13-.03-.09,0-.17.03-.23.1-.06.07-.09.15-.09.25Z"/>
          <path class="cls-34" d="m18.54,113.49c.12,0,.23.08.27.19l.61,1.77c.27.79,1.01,1.32,1.85,1.32h1.11c.19,0,.34.15.34.34s-.15.34-.34.34h-1.59c-.85,0-1.6-.55-1.84-1.37l-.68-2.22c-.06-.18.08-.37.27-.37Zm.74.03c-.11-.32-.41-.53-.74-.53-.53,0-.91.51-.75,1.02l.68,2.22c.31,1.02,1.26,1.72,2.33,1.72h1.59c.47,0,.84-.38.84-.84s-.38-.84-.84-.84h-1.11c-.62,0-1.17-.39-1.37-.98l-.61-1.77Z"/>
          <path class="cls-47" d="m22.47,115.72h-1.64"/>
          <path class="cls-47" d="m22.47,114.93h-1.64"/>
          <path class="cls-47" d="m22.47,114.15h-1.64"/>
          <path class="cls-34" d="m146.05,113.32c-.12,0-.23.08-.27.19l-.61,1.77c-.27.79-1.01,1.32-1.85,1.32h-1.11c-.19,0-.34.15-.34.34s.15.34.34.34h1.59c.85,0,1.6-.55,1.85-1.37l.68-2.22c.06-.18-.08-.37-.27-.37Zm-.74.03c.11-.32.41-.53.74-.53.53,0,.91.51.75,1.02l-.68,2.22c-.31,1.02-1.26,1.72-2.33,1.72h-1.59c-.47,0-.84-.38-.84-.84s.38-.84.84-.84h1.11c.62,0,1.17-.39,1.37-.98l.61-1.77Z"/>
          <path class="cls-47" d="m142.13,115.55h1.64"/>
          <path class="cls-47" d="m142.13,114.76h1.64"/>
          <path class="cls-47" d="m142.13,113.98h1.64"/>
          <path class="cls-20" d="m18.51,15.81c-.45,0-.89.13-1.27.39-.38.25-.67.61-.84,1.03-.17.42-.22.88-.13,1.32.09.44.31.85.63,1.17.32.32.73.54,1.17.63.44.09.9.04,1.32-.13.42-.17.77-.47,1.03-.84.25-.38.39-.82.39-1.27,0-.61-.24-1.19-.67-1.62-.43-.43-1.01-.67-1.62-.67Zm0,3.66c-.27,0-.54-.08-.76-.23-.23-.15-.4-.36-.5-.62-.1-.25-.13-.53-.08-.79.05-.27.18-.51.38-.7.19-.19.44-.32.7-.38.27-.05.54-.03.79.08.25.1.46.28.62.5.15.23.23.49.23.76,0,.36-.14.71-.4.97-.26.26-.61.4-.97.4Zm4.21.41c-.2.46-.47.89-.8,1.27-.08.09-.19.14-.31.15-.12,0-.24-.04-.33-.12-.09-.08-.14-.19-.15-.31,0-.12.03-.24.11-.33.6-.67.93-1.54.93-2.44s-.33-1.77-.93-2.44c-.04-.04-.07-.1-.09-.15-.02-.06-.03-.12-.03-.18,0-.06.02-.12.04-.17.03-.05.06-.1.11-.14.05-.04.1-.07.16-.09.06-.02.12-.03.18-.02.06,0,.12.02.17.05.05.03.1.06.14.11.58.65.96,1.44,1.1,2.3.14.85.04,1.73-.3,2.53Zm-7.58-3.2c-.27.64-.35,1.34-.24,2.02.11.68.42,1.32.88,1.84.08.09.12.21.11.33,0,.12-.06.23-.15.31-.09.08-.21.12-.33.12-.12,0-.23-.06-.31-.15-.75-.84-1.17-1.92-1.17-3.05s.41-2.21,1.17-3.05c.08-.09.19-.15.32-.15.12,0,.24.03.33.12.09.08.15.19.15.32,0,.12-.03.24-.12.33-.27.3-.49.64-.65,1.01Zm10.23,1.42c0,1.79-.7,3.52-1.96,4.8-.04.04-.09.08-.15.11-.06.02-.12.04-.18.04-.06,0-.12,0-.18-.03-.06-.02-.11-.06-.15-.1-.04-.04-.08-.09-.1-.15-.02-.06-.04-.12-.04-.18,0-.06.01-.12.04-.18.02-.06.06-.11.1-.15,1.09-1.11,1.7-2.6,1.7-4.16s-.61-3.05-1.7-4.16c-.09-.09-.13-.2-.13-.32,0-.12.05-.24.14-.32.09-.09.2-.13.32-.13.12,0,.24.05.32.14,1.26,1.28,1.96,3,1.96,4.8Zm-11.1,4.16s.08.09.1.15c.02.06.03.12.03.18,0,.06-.01.12-.04.17-.02.06-.06.11-.1.15-.04.04-.09.08-.15.1-.06.02-.12.03-.18.03-.06,0-.12-.01-.17-.04-.06-.02-.11-.06-.15-.1-1.26-1.28-1.96-3-1.96-4.8s.7-3.52,1.96-4.8c.04-.04.09-.08.15-.11.06-.02.12-.04.18-.04.06,0,.12,0,.18.03.06.02.11.06.15.1.04.04.08.09.1.15.02.06.04.12.04.18,0,.06-.01.12-.04.18-.02.06-.06.11-.1.15-1.09,1.11-1.7,2.6-1.7,4.16s.61,3.05,1.7,4.16h0Z"/>
          <g class="cls-55">
            <g>
              <rect class="cls-25" x="112.82" y="26.74" width="28.51" height="28.51" rx="6.71" ry="6.71"/>
              <g class="cls-51">
                <path class="cls-17" d="m124.59,43.62s.09.06.15.07c.05.01.11.02.16,0s.11-.03.16-.05c.05-.03.09-.07.12-.11.25-.34.59-.62.97-.81.38-.19.8-.29,1.22-.29s.84.1,1.22.29c.38.19.71.47.96.81.03.04.07.08.12.11.05.03.1.05.15.05s.11,0,.16,0c.05-.01.1-.04.15-.07.04-.03.08-.07.11-.12.03-.05.05-.1.05-.16,0-.05,0-.11,0-.16-.01-.05-.04-.1-.07-.15-.37-.5-.87-.9-1.44-1.14.31-.29.53-.66.63-1.08.1-.41.07-.85-.09-1.24-.15-.4-.42-.74-.77-.98-.35-.24-.76-.37-1.19-.37s-.84.13-1.19.37c-.35.24-.62.58-.77.98-.15.4-.18.83-.09,1.24s.32.79.63,1.08c-.57.25-1.07.64-1.44,1.14-.07.09-.1.2-.08.31.02.11.07.21.16.28Zm1.52-3.29c0-.25.07-.5.21-.7.14-.21.34-.37.57-.47.23-.1.49-.12.73-.07.24.05.47.17.65.35.18.18.3.4.35.65.05.25.02.5-.07.73-.1.23-.26.43-.47.57-.21.14-.45.21-.7.21-.33,0-.66-.13-.89-.37-.24-.24-.37-.56-.37-.9Zm5.05-4.64h-7.58c-.22,0-.44.09-.6.25-.16.16-.25.37-.25.6v1.27h-.84c-.11,0-.22.04-.3.12-.08.08-.12.19-.12.3s.04.22.12.3c.08.08.19.12.3.12h.84v2.11h-.84c-.11,0-.22.04-.3.12-.08.08-.12.19-.12.3s.04.22.12.3c.08.08.19.12.3.12h.84v2.11h-.84c-.11,0-.22.04-.3.12-.08.08-.12.19-.12.3s.04.22.12.3c.08.08.19.12.3.12h.84v1.27c0,.22.09.44.25.6.16.16.37.25.6.25h7.58c.22,0,.44-.09.6-.25.16-.16.25-.37.25-.6v-9.28c0-.22-.09-.44-.25-.6-.16-.16-.37-.25-.6-.25Zm0,10.13h-7.58v-9.28h7.58v9.28Z"/>
              </g>
            </g>
          </g>
          <path class="cls-17" d="m119.25,58.24l-.89.96h-.04s-.52.56-.52.56l-.03-.35,1.07-1.17h.4Zm-1.31,0v1.99h-.32v-1.99h.32Zm.49.71l.84,1.28h-.38l-.72-1.1.26-.18Zm2.07-.74c.19,0,.36.04.5.12s.25.2.33.35c.08.15.11.34.11.55s-.04.4-.11.55c-.08.15-.19.27-.33.35s-.31.12-.5.12-.36-.04-.5-.12-.25-.2-.33-.35c-.08-.15-.12-.34-.12-.55s.04-.4.12-.55c.08-.15.18-.27.33-.35s.31-.12.5-.12Zm0,.28c-.13,0-.23.03-.32.09-.09.06-.16.14-.21.25-.05.11-.07.25-.07.4s.02.29.07.4c.05.11.12.2.21.25.09.06.2.09.32.09s.23-.03.32-.09c.09-.06.16-.14.21-.25.05-.11.07-.25.07-.4s-.02-.29-.07-.4c-.05-.11-.12-.2-.21-.25-.09-.06-.2-.09-.32-.09Zm3.21-.25v1.99h-.38l-.77-1.26-.19-.35h0v.32s.01,1.29.01,1.29h-.3v-1.99h.38l.77,1.25.2.36h0v-.33s-.01-1.29-.01-1.29h.3Zm2.22,0v.28h-.68v1.71h-.32v-1.71h-.68v-.28h1.69Zm1.93,1.99h-.34l-.19-.52h-.84l-.19.52h-.33l.75-1.99h.39l.75,1.99Zm-1.28-.78h.66l-.33-.93-.33.93Zm3.41-1.21l-.89.96h-.04s-.52.56-.52.56l-.03-.35,1.07-1.17h.4Zm-1.31,0v1.99h-.32v-1.99h.32Zm.49.71l.84,1.28h-.38l-.72-1.1.26-.18Zm2.84-.71v.28h-.68v1.71h-.32v-1.71h-.68v-.28h1.69Zm.54,1.99v-1.99h1.44v.28h-1.12v.57h.88v.27h-.88v.59h1.16v.28h-1.48Zm2.88-1.99c.21,0,.38.05.51.16.13.11.19.25.19.43s-.06.33-.19.43c-.13.1-.29.15-.51.15l-.03.02h-.46v.8h-.32v-1.99h.81Zm-.02.93c.13,0,.23-.03.29-.08.06-.05.1-.14.1-.25s-.03-.19-.1-.24c-.06-.05-.16-.08-.29-.08h-.47v.65h.47Zm.19.07l.65,1h-.37l-.56-.87.28-.13Z"/>
          <path class="cls-48" d="m28.65,83.32h107.66"/>
          <path class="cls-49" d="m28.65,83.32l70.26-.05"/>
          <path class="cls-19" d="m131.03,87.31c-.2,0-.37-.05-.52-.14-.15-.09-.25-.22-.31-.39l.27-.14c.03.08.06.16.11.22.05.06.11.11.18.14.08.03.18.05.29.05.1,0,.18-.02.25-.05.07-.04.12-.08.15-.14.04-.06.05-.13.05-.21s-.02-.15-.05-.2c-.03-.05-.08-.09-.14-.12-.06-.03-.15-.04-.25-.04-.02,0-.05,0-.08,0-.03,0-.06,0-.09,0v-.27s.04,0,.06,0h.05c.16,0,.28-.03.35-.09.07-.06.1-.17.1-.3,0-.12-.04-.2-.11-.27-.07-.06-.17-.09-.31-.09-.14,0-.25.03-.32.09-.07.06-.13.14-.17.25l-.25-.12c.04-.09.09-.18.16-.25.07-.07.16-.13.26-.17.1-.04.22-.06.34-.06.15,0,.28.03.38.08.1.05.18.12.22.21.05.09.08.18.08.29,0,.08-.01.15-.03.22-.02.06-.05.12-.09.16-.04.05-.08.08-.13.11-.05.03-.1.04-.16.05h0c.07,0,.14.02.19.05.06.03.11.06.15.11.04.04.07.1.09.15.02.06.03.12.03.18,0,.13-.03.24-.1.35-.06.1-.15.18-.27.24-.11.06-.25.08-.4.08Zm1.48-1.74c.06,0,.12.02.16.06.04.04.06.09.06.16s-.02.12-.06.16-.09.06-.16.06-.12-.02-.16-.06-.06-.09-.06-.16.02-.12.06-.16c.04-.04.09-.06.16-.06Zm0,1.31c.06,0,.12.02.16.06s.06.09.06.16-.02.12-.06.16-.09.06-.16.06-.12-.02-.16-.06-.06-.09-.06-.16.02-.12.06-.16.09-.06.16-.06Zm.74.4v-.22c.22-.16.41-.31.55-.43.15-.12.27-.23.36-.34.09-.1.15-.2.19-.29.04-.09.06-.19.06-.29,0-.13-.04-.24-.13-.32-.08-.08-.2-.12-.34-.12s-.27.05-.37.15c-.09.1-.15.23-.16.4l-.23-.14c.02-.13.06-.24.12-.34.06-.1.15-.18.26-.23.11-.06.24-.08.39-.08.11,0,.22.02.31.05.09.03.17.08.23.14.06.06.11.13.15.22.04.08.05.18.05.28,0,.14-.03.28-.1.41-.07.13-.18.27-.33.42-.15.15-.36.31-.63.48h0s.06,0,.1,0c.04,0,.09,0,.13,0,.04,0,.08,0,.1,0h.77v.25h-1.49Zm2.41,0v-1.74s0-.09,0-.14c-.08.07-.16.14-.27.19-.1.05-.2.09-.31.12l-.07-.24s.09-.02.15-.04c.06-.03.13-.06.19-.1.07-.04.13-.08.19-.13.06-.04.1-.09.13-.13h.23v2.21h-.27Z"/>
          <path class="cls-19" d="m28.87,87.28v-.22c.22-.16.41-.31.55-.43.15-.12.27-.23.36-.34.09-.1.15-.2.19-.29.04-.09.06-.19.06-.29,0-.13-.04-.24-.13-.32-.08-.08-.2-.12-.34-.12s-.27.05-.37.15c-.09.1-.15.23-.16.4l-.23-.14c.02-.13.06-.24.12-.34.06-.1.15-.18.26-.23.11-.06.24-.08.39-.08.11,0,.22.02.31.05.09.03.17.08.23.14.06.06.11.13.15.22.04.08.05.18.05.28,0,.14-.03.28-.1.41-.07.13-.18.27-.33.42-.15.15-.36.31-.63.48h0s.06,0,.1,0c.04,0,.09,0,.13,0,.04,0,.08,0,.1,0h.77v.25h-1.49Zm2.2-1.71c.06,0,.12.02.16.06.04.04.06.09.06.16s-.02.12-.06.16-.09.06-.16.06-.12-.02-.16-.06-.06-.09-.06-.16.02-.12.06-.16c.04-.04.09-.06.16-.06Zm0,1.31c.06,0,.12.02.16.06s.06.09.06.16-.02.12-.06.16-.09.06-.16.06-.12-.02-.16-.06-.06-.09-.06-.16.02-.12.06-.16.09-.06.16-.06Zm1.54.44c-.25,0-.45-.1-.6-.29-.15-.19-.22-.48-.22-.85s.07-.65.22-.85c.15-.19.35-.29.6-.29s.45.1.6.29c.15.19.22.48.22.85s-.07.65-.22.85c-.15.19-.35.29-.6.29Zm0-.24c.12,0,.22-.03.3-.1.08-.07.14-.17.18-.31.04-.13.06-.3.06-.49s-.02-.36-.06-.49c-.04-.13-.1-.23-.18-.3-.08-.07-.18-.1-.3-.1s-.22.03-.3.1c-.08.07-.14.17-.18.3-.04.13-.06.3-.06.49s.02.36.06.49c.04.13.1.24.18.31.08.07.18.1.3.1Zm2.04-2.04c.19,0,.34.05.47.15.13.1.22.23.29.4.06.17.1.37.1.59,0,.25-.03.46-.1.63-.06.17-.16.3-.29.38-.13.09-.28.13-.47.13s-.34-.04-.47-.13c-.13-.08-.23-.21-.3-.37l.27-.14c.04.12.09.21.17.28.08.07.2.11.34.11.12,0,.21-.02.29-.07.08-.05.14-.11.18-.2.04-.09.08-.19.09-.31.02-.12.03-.25.03-.4h0v-.03h-.01c-.03.1-.07.18-.14.24-.07.06-.14.1-.23.13-.08.03-.17.04-.25.04-.15,0-.27-.03-.39-.08-.11-.06-.2-.14-.26-.24s-.09-.22-.09-.37c0-.15.03-.28.09-.39.06-.11.15-.2.26-.26.11-.06.25-.09.41-.09Zm0,.26c-.16,0-.28.04-.36.13-.08.08-.12.2-.12.36,0,.13.04.24.13.32.09.08.2.11.35.11.1,0,.18-.02.25-.06.07-.04.13-.09.17-.16.04-.07.06-.15.06-.24,0-.09-.02-.18-.06-.24-.04-.07-.1-.12-.17-.16-.07-.04-.16-.06-.25-.06Z"/>
          <circle class="cls-17" cx="98.97" cy="83.35" r="1.43"/>
          <path class="cls-39" d="m69.06,88.63h0c2.42,0,4.38,1.96,4.38,4.38h0c0,2.42-1.96,4.38-4.38,4.38h0c-2.42,0-4.38-1.96-4.38-4.38h0c0-2.42,1.96-4.38,4.38-4.38Z"/>
          <path class="cls-17" d="m68.23,92.13v1.76s-.02.09-.05.13c-.04.03-.08.05-.13.05-.05,0-.1-.02-.13-.05-.04-.03-.05-.08-.05-.13v-1.76s.02-.09.05-.13c.04-.03.08-.05.13-.05.05,0,.1.02.13.05.04.03.05.08.05.13Zm2.04.15v1.45c0,.05-.02.1-.06.13-.04.03-.08.05-.13.05-.02,0-.03,0-.05,0-.02,0-.04-.01-.05-.02l-1.15-.73s-.05-.04-.06-.06c-.01-.02-.02-.05-.02-.08,0-.03,0-.06.02-.08.01-.02.03-.05.06-.06l1.15-.73s.03-.02.05-.02c.02,0,.04,0,.05,0,.05,0,.09.02.13.05.04.03.06.07.06.13Z"/>
          <path class="cls-39" d="m95.73,88.63h0c2.42,0,4.38,1.96,4.38,4.38h0c0,2.42-1.96,4.38-4.38,4.38h0c-2.42,0-4.38-1.96-4.38-4.38h0c0-2.42,1.96-4.38,4.38-4.38Z"/>
          <path class="cls-17" d="m96.46,92.1v1.76s.02.09.05.13c.03.03.08.05.13.05.05,0,.09-.02.13-.05.03-.03.05-.08.05-.13v-1.76s-.02-.09-.05-.13c-.03-.03-.08-.05-.13-.05-.05,0-.09.02-.13.05-.03.03-.05.08-.05.13Zm-1.94.15v1.45c0,.05.02.1.05.13s.08.05.12.05c.01,0,.03,0,.05,0,.02,0,.03-.01.05-.02l1.09-.73s.05-.04.06-.06c.01-.03.02-.05.02-.08,0-.03,0-.06-.02-.08-.01-.03-.03-.05-.06-.06l-1.09-.73s-.03-.02-.05-.02c-.02,0-.03,0-.05,0-.05,0-.09.02-.12.05-.04.03-.05.07-.05.13Z"/>
          <path class="cls-39" d="m82.38,87.29h0c3.1,0,5.62,2.52,5.62,5.62h0c0,3.1-2.52,5.62-5.62,5.62h0c-3.1,0-5.62-2.52-5.62-5.62h0c0-3.1,2.52-5.62,5.62-5.62Z"/>
          <path class="cls-17" d="m81.24,94.39v-2.97c0-.08.03-.15.09-.2.06-.06.12-.08.2-.08.02,0,.05,0,.08.01.03,0,.05.02.08.03l2.34,1.48s.08.06.1.11c.02.04.03.09.03.14,0,.05-.01.09-.03.14-.02.04-.05.08-.1.11l-2.34,1.48s-.05.03-.08.03c-.03,0-.05.01-.08.01-.08,0-.14-.03-.2-.08-.06-.06-.09-.12-.09-.2Z"/>
          <g>
            <rect class="cls-15" x="3.97" y="3.76" width="156.66" height="13.42"/>
            <g>
              <path class="cls-20" d="m112.49,10.47c0-2.69,2.18-4.86,4.86-4.86h31.03c2.69,0,4.86,2.18,4.86,4.86h0c0,2.69-2.18,4.86-4.86,4.86h-31.03c-2.69,0-4.86-2.18-4.86-4.86h0Z"/>
              <path class="cls-1" d="m118.03,9.12c-.23,0-.45.07-.65.2-.19.13-.34.32-.43.53-.09.22-.11.46-.07.69.04.23.16.44.32.61.16.17.37.28.59.33.23.05.46.02.67-.07.21-.09.39-.24.52-.44.13-.2.2-.43.2-.66,0-.32-.12-.62-.34-.84-.22-.22-.51-.35-.82-.35Zm0,1.98c-.15,0-.3-.05-.43-.13-.13-.09-.23-.21-.29-.36s-.07-.3-.04-.46c.03-.15.1-.3.21-.41.11-.11.25-.19.4-.22.15-.03.31-.01.45.05.14.06.26.16.35.29.09.13.13.28.13.44,0,.21-.08.41-.23.56-.15.15-.34.23-.55.23Zm2.13-.74s0-.07,0-.11l.36-.46s.03-.05.04-.08c0-.03,0-.06,0-.09-.06-.23-.15-.45-.26-.65-.01-.03-.04-.05-.06-.07-.02-.02-.05-.03-.08-.03l-.57-.07s-.05-.05-.07-.07l-.07-.59s-.01-.06-.03-.09c-.02-.03-.04-.05-.06-.06-.2-.12-.41-.21-.64-.27-.03,0-.06,0-.09,0-.03,0-.06.02-.08.04l-.45.37h-.1l-.45-.37s-.05-.03-.08-.04c-.03,0-.06,0-.09,0-.22.06-.44.15-.64.27-.03.02-.05.04-.06.06-.02.03-.03.06-.03.09l-.06.59s-.05.05-.07.07l-.58.07s-.06.01-.08.03c-.03.02-.05.04-.06.07-.12.2-.2.42-.26.65,0,.03,0,.06,0,.09,0,.03.02.06.04.08l.36.46v.11l-.36.46s-.03.05-.04.08c0,.03,0,.06,0,.09.06.23.15.45.26.65.02.03.04.05.06.07.03.02.05.03.08.03l.57.07s.05.05.07.07l.07.59s.01.06.03.09c.02.03.04.05.06.06.2.12.41.21.64.27.03,0,.06,0,.09,0,.03,0,.06-.02.08-.04l.45-.37s.07,0,.1,0l.45.37s.05.03.08.04c.03,0,.06,0,.09,0,.22-.06.43-.15.63-.27.03-.02.05-.04.06-.06.02-.03.03-.06.03-.09l.06-.59s.05-.05.07-.07l.57-.07s.06-.01.08-.03c.03-.02.05-.04.06-.07.12-.2.2-.42.26-.65,0-.03,0-.06,0-.09,0-.03-.02-.06-.04-.08l-.36-.46Zm-.39-.16c0,.07,0,.14,0,.22,0,.05.01.1.04.14l.34.44c-.04.13-.09.25-.15.37l-.55.06s-.09.03-.12.07c-.05.05-.1.1-.15.15-.04.03-.06.08-.06.13l-.06.56c-.12.06-.24.11-.36.15l-.43-.35s-.08-.04-.12-.04h-.01c-.07,0-.14,0-.21,0-.05,0-.1.01-.13.04l-.43.35c-.13-.04-.25-.09-.36-.15l-.06-.56s-.03-.09-.06-.13c-.05-.05-.1-.1-.15-.15-.03-.04-.08-.06-.12-.07l-.55-.06c-.06-.12-.11-.24-.15-.37l.34-.44s.04-.09.04-.14c0-.07,0-.14,0-.22,0-.05-.01-.1-.04-.14l-.34-.44c.04-.13.09-.25.15-.37l.55-.06s.09-.03.12-.07c.05-.05.1-.1.15-.15.04-.03.06-.08.06-.13l.06-.56c.12-.06.24-.11.36-.15l.43.35s.08.05.13.04c.07,0,.14,0,.21,0,.05,0,.1-.01.13-.04l.43-.35c.13.04.25.09.36.15l.06.56s.03.09.06.13c.05.05.1.1.15.15.03.04.07.06.12.07l.55.06c.06.12.11.24.15.37l-.34.44s-.04.09-.04.14h0Z"/>
            </g>
            <path class="cls-1" d="m123.62,9.32v1.99h-.24v-1.99h.24Zm2.43,0v1.99h-.3l-.83-1.33-.21-.37h0v.3s.01,1.41.01,1.41h-.23v-1.99h.3l.83,1.33.21.38h0v-.3s-.01-1.41-.01-1.41h.23Zm1.51-.03c.17,0,.33.04.45.11.13.07.23.18.32.31l-.2.16c-.07-.13-.16-.22-.25-.27-.09-.05-.21-.08-.34-.08-.11,0-.19.02-.27.05-.07.03-.12.07-.15.12-.03.05-.05.1-.05.17,0,.07.02.13.07.19.04.05.13.09.27.12l.43.1c.19.04.32.11.4.19.08.08.11.19.11.32,0,.11-.03.21-.1.3-.06.09-.15.15-.27.2-.11.05-.25.07-.4.07-.15,0-.27-.02-.38-.06-.11-.04-.2-.09-.28-.16-.08-.07-.14-.14-.19-.22l.21-.17c.04.08.09.14.15.2.06.06.13.1.22.14.09.03.18.05.3.05.1,0,.19-.01.27-.04.08-.03.13-.06.17-.11.04-.05.06-.11.06-.18,0-.06-.02-.12-.06-.17-.04-.05-.12-.09-.24-.12l-.47-.11c-.12-.03-.22-.07-.3-.11-.07-.05-.13-.11-.16-.18-.03-.07-.05-.14-.05-.22,0-.11.03-.2.09-.29.06-.09.15-.16.26-.22.11-.05.25-.08.4-.08Zm2.81.03v.23h-.69v1.77h-.24v-1.77h-.69v-.23h1.63Zm1.95,1.99h-.26l-.21-.55h-.9l-.21.55h-.25l.78-1.99h.29l.77,1.99Zm-1.28-.78h.73l-.37-.98-.36.98Zm.07-1.81c.05,0,.09.02.12.05.03.03.05.07.05.12s-.02.09-.05.12c-.03.03-.07.05-.12.05s-.09-.02-.12-.05c-.03-.03-.05-.07-.05-.12s.02-.09.05-.12c.03-.03.07-.05.12-.05Zm.59,0c.05,0,.09.02.12.05.03.03.05.07.05.12s-.02.09-.05.12c-.03.03-.07.05-.12.05s-.09-.02-.12-.05c-.03-.03-.05-.07-.05-.12s.02-.09.05-.12c.03-.03.07-.05.12-.05Zm1.48,2.36h1.14v.23h-1.38v-1.99h.24v1.77Zm2.01,0h1.14v.23h-1.38v-1.99h.24v1.77Zm3.34-1.77v1.99h-.3l-.83-1.33-.21-.37h0v.3s.01,1.41.01,1.41h-.23v-1.99h.3l.83,1.33.21.38h0v-.3s-.01-1.41-.01-1.41h.23Zm1.11,0v1.99h-.24v-1.99h.24Zm2.43,0v1.99h-.3l-.83-1.33-.21-.37h0v.3s.01,1.41.01,1.41h-.23v-1.99h.3l.83,1.33.21.38h0v-.3s-.01-1.41-.01-1.41h.23Zm1.67,2.02c-.19,0-.35-.04-.49-.12-.14-.08-.24-.2-.32-.36-.07-.15-.11-.34-.11-.55s.04-.39.12-.55c.08-.15.19-.27.34-.35.14-.08.31-.13.49-.13.2,0,.36.04.48.11.13.07.23.19.3.34l-.22.12c-.04-.11-.12-.2-.21-.26-.1-.06-.21-.09-.35-.09s-.25.03-.36.1c-.1.06-.18.15-.24.27-.06.12-.09.26-.09.43s.03.31.08.43c.05.12.13.21.23.27.1.06.23.09.37.09.08,0,.16-.01.23-.03.07-.02.14-.05.19-.1.05-.04.1-.1.13-.16s.04-.14.04-.23v-.07h-.63v-.23h.85v1.01h-.19v-.37s.04,0,.04,0c-.05.12-.13.22-.25.29s-.25.1-.42.1Zm3.18-.03h-.26l-.21-.55h-.9l-.21.55h-.25l.78-1.99h.29l.77,1.99Zm-1.28-.78h.73l-.37-.98-.36.98Zm2.65-1.21c.2,0,.37.05.49.16s.18.25.18.43-.06.32-.19.42c-.12.1-.29.15-.49.15l-.02.02h-.49v.83h-.24v-1.99h.75Zm0,.94c.14,0,.25-.03.32-.09.07-.06.11-.15.11-.27s-.03-.21-.11-.27c-.07-.06-.17-.09-.32-.09h-.51v.71h.51Zm.14.05l.66,1.01h-.29l-.57-.87.2-.13Z"/>
            <path class="cls-17" d="m79.68,9.05v3.1h-.38v-3.1h.38Zm-2.06,0v3.1h-.38v-3.1h.38Zm1.86,1.35v.35h-2.03v-.35h2.03Zm1.55,1.75v-3.1h2.17v.35h-1.8v1h1.4v.35h-1.4v1.04h1.87v.35h-2.24Zm6.32-3.1v3.1h-.36v-1.95l.04-.82h0l-1.02,2.77h-.32l-1.02-2.77h0l.04.82v1.95h-.36v-3.1h.58l.68,1.88.23.77h0l.24-.77.68-1.89h.58Z"/>
            <path class="cls-17" d="m11.63,12.21v-2.79c0-.07,0-.14.01-.22-.12.12-.26.22-.42.31-.16.09-.33.15-.49.19l-.11-.39c.06,0,.14-.03.24-.07.1-.04.2-.09.31-.16.11-.06.21-.13.31-.2.09-.07.16-.14.21-.21h.38v3.54h-.43Zm2.94,0v-.93h-1.73v-.32l1.62-2.3h.54v2.24h.63v.37h-.63v.93h-.43Zm-1.27-1.3h1.27v-1.33c0-.09,0-.19,0-.28,0-.1.01-.19.02-.28h-.01c-.04.09-.1.19-.17.3-.07.11-.13.21-.19.29l-.93,1.3Zm3.38-1.44c.1,0,.19.03.25.1.06.06.1.15.1.25s-.03.19-.1.25c-.06.06-.15.1-.25.1s-.19-.03-.25-.1c-.06-.06-.1-.15-.1-.25s.03-.19.1-.25c.06-.06.15-.1.25-.1Zm0,2.09c.1,0,.19.03.25.1s.1.15.1.25-.03.19-.1.25c-.06.06-.15.1-.25.1s-.19-.03-.25-.1-.1-.15-.1-.25.03-.19.1-.25c.06-.06.15-.1.25-.1Zm1.91.64v-2.79c0-.07,0-.14.01-.22-.12.12-.26.22-.42.31-.16.09-.33.15-.49.19l-.11-.39c.06,0,.14-.03.24-.07.1-.04.2-.09.31-.16.11-.06.21-.13.31-.2.09-.07.16-.14.21-.21h.38v3.54h-.43Zm2.52.05c-.31,0-.57-.07-.76-.21-.19-.14-.34-.34-.44-.6l.42-.22c.06.19.14.34.26.46.12.11.3.17.53.17.16,0,.3-.03.42-.09.12-.06.21-.15.27-.26.06-.11.1-.25.1-.41,0-.17-.03-.31-.09-.42-.06-.11-.14-.2-.25-.26-.11-.06-.25-.09-.41-.09-.11,0-.22.01-.32.04-.1.02-.18.06-.26.11-.08.05-.15.12-.2.2l-.38-.07.21-1.95h1.99v.4h-1.63l-.14,1.12v.05s0,0,0,0c.09-.09.2-.16.33-.21.14-.05.3-.08.48-.08.23,0,.42.05.59.14.17.09.3.23.39.4.09.17.14.37.14.6,0,.18-.03.35-.09.49-.06.15-.15.27-.26.38-.11.1-.24.18-.4.23-.15.05-.32.08-.5.08Z"/>
            <path class="cls-17" d="m31.98,8.86c-.18,0-.37.03-.54.08-.07-.12-.16-.23-.25-.33l.26-.39s.03-.05.03-.08c0-.03,0-.06,0-.09,0-.03-.02-.06-.03-.08-.02-.03-.03-.05-.06-.07-.02-.02-.05-.03-.08-.04-.03,0-.06,0-.08,0-.03,0-.05.02-.08.03-.02.02-.04.04-.06.06l-.26.39c-.21-.11-.44-.17-.68-.17h-.05l-.08-.47s-.01-.06-.03-.09c-.01-.03-.03-.05-.06-.07-.02-.02-.05-.03-.08-.04-.03,0-.06,0-.09,0-.03,0-.06.02-.08.03-.02.02-.04.04-.06.06-.02.03-.03.05-.03.08,0,.03,0,.06,0,.09l.08.47c-.24.08-.45.23-.63.43l-.37-.27s-.05-.03-.08-.04c-.03,0-.06,0-.08,0-.03,0-.05.02-.08.03-.02.02-.04.04-.06.06-.02.03-.03.05-.03.08,0,.03,0,.06,0,.09,0,.03.02.06.03.08.02.03.04.05.06.06l.36.27c-.11.23-.16.47-.16.73v.05l-.44.08c-.05,0-.1.04-.13.09-.03.05-.05.1-.04.16,0,.06.03.11.07.15.04.04.09.06.15.06.01,0,.02,0,.04,0l.44-.08c.04.13.09.25.16.36-.21.2-.35.47-.41.77-.06.29-.04.6.06.88.1.28.28.52.51.69.23.17.51.26.79.26h2.15c.54,0,1.06-.23,1.44-.64.38-.41.6-.97.6-1.55s-.22-1.14-.6-1.55c-.38-.41-.9-.64-1.44-.64Zm-2.9.92c0-.24.07-.48.21-.68.13-.2.32-.34.54-.42.22-.07.45-.07.67,0,.22.08.4.23.54.42-.44.25-.78.66-.96,1.15-.28-.05-.57-.01-.83.12-.1-.18-.16-.39-.16-.6Zm2.9,3h-2.15c-.13,0-.26-.03-.38-.09-.12-.06-.23-.14-.32-.24s-.16-.23-.2-.36c-.04-.13-.06-.28-.05-.42,0-.14.04-.28.11-.41.06-.13.14-.24.25-.33.1-.09.22-.16.35-.2.13-.04.26-.05.39-.03,0,.07-.02.14-.02.21,0,.03,0,.06.01.09,0,.03.02.06.04.08.02.02.04.04.07.05.03.01.05.02.08.02.03,0,.06,0,.08-.01s.05-.03.07-.05c.02-.02.04-.04.05-.07.01-.03.02-.06.02-.09,0-.12.02-.23.05-.34,0,0,0,0,0-.01.08-.31.24-.59.46-.81.22-.22.49-.37.79-.43.3-.06.6-.03.88.08.28.11.53.31.71.57.18.26.3.56.32.88s-.03.64-.16.93c-.13.29-.34.53-.59.7-.26.17-.55.26-.85.26Z"/>
            <path class="cls-17" d="m37.57,10.55v.36h-1.44v-.36h1.44Zm.54,1.32v-.28c.29-.21.53-.4.72-.56.19-.16.35-.31.47-.44.12-.13.2-.25.25-.37.05-.12.07-.24.07-.37,0-.17-.06-.31-.17-.41-.11-.11-.26-.16-.44-.16s-.36.07-.48.2c-.12.13-.19.3-.21.51l-.31-.18c.03-.17.08-.32.16-.44.08-.13.2-.23.34-.3.14-.07.31-.11.51-.11.15,0,.28.02.4.07.12.04.22.11.31.19.08.08.15.17.19.28.05.11.07.23.07.37,0,.18-.04.36-.13.53-.09.17-.23.35-.43.54-.2.19-.47.4-.82.63h0s.08,0,.13,0c.06,0,.11,0,.17,0,.06,0,.1,0,.13,0h1.01v.33h-1.94Zm3.22-1.48c-.14,0-.27-.03-.38-.09-.11-.06-.2-.15-.26-.26-.06-.11-.1-.23-.1-.37s.03-.26.1-.37c.06-.11.15-.2.26-.26.11-.06.24-.09.38-.09s.27.03.38.09c.11.06.2.15.26.26.06.11.1.23.1.37s-.03.26-.1.37c-.06.11-.15.19-.26.26-.11.06-.24.09-.38.09Zm0-.28c.13,0,.23-.04.31-.12.08-.08.12-.19.12-.31s-.04-.23-.12-.31c-.08-.08-.19-.12-.31-.12s-.23.04-.31.12c-.08.08-.12.19-.12.31s.04.23.12.31c.08.08.19.12.31.12Zm3.79,1.03c-.06.16-.15.3-.26.42-.11.12-.25.2-.4.27-.15.06-.32.09-.5.09-.27,0-.51-.06-.71-.18-.2-.12-.35-.29-.46-.51-.11-.22-.16-.48-.16-.79s.05-.57.16-.79c.11-.22.26-.39.46-.51.2-.12.43-.18.7-.18.19,0,.35.03.5.08.15.05.27.13.37.23.1.1.19.22.25.37l-.34.16c-.06-.17-.16-.29-.28-.38-.12-.09-.27-.13-.47-.13s-.37.05-.51.14c-.15.09-.26.22-.35.39-.08.17-.12.38-.12.62s.04.45.12.62c.08.17.19.3.34.4.15.09.32.14.51.14s.36-.05.5-.14c.14-.1.25-.25.31-.44l.35.13Z"/>
            <rect class="cls-28" x="3.97" y="3.76" width="2.35" height="13.42"/>
          </g>
          <g class="cls-61">
            <g>
              <rect class="cls-40" x="23.59" y="26.74" width="28.51" height="28.51" rx="8.39" ry="8.39"/>
              <path class="cls-17" d="m42.54,47.57s-.08.03-.13.04c-.04,0-.09,0-.13,0-.04-.01-.08-.03-.12-.06-.04-.03-.06-.06-.09-.1l-2.96-4.95h-.82v.32c0,.08-.04.17-.1.23-.06.06-.15.09-.24.09s-.18-.03-.24-.09c-.06-.06-.1-.14-.1-.23v-.32h-.82l-1.48,2.48-1.48,2.48c-.04.07-.12.13-.2.15-.09.02-.18.01-.26-.03-.08-.04-.14-.11-.16-.19-.02-.08-.01-.17.03-.24l2.78-4.64h-2.48c-.09,0-.18-.03-.24-.09-.06-.06-.1-.14-.1-.23s.04-.17.1-.23c.06-.06.15-.09.24-.09h8.84c.09,0,.18.03.24.09.06.06.1.14.1.23s-.04.17-.1.23c-.06.06-.15.09-.24.09h-2.48l2.78,4.64s.04.08.04.12c0,.04,0,.08-.01.12-.01.04-.03.08-.06.11s-.06.06-.1.08Zm-4.59-3.48c-.09,0-.18.03-.24.09-.06.06-.1.14-.1.23v.64c0,.08.04.17.1.23.06.06.15.09.24.09s.18-.03.24-.09c.06-.06.1-.14.1-.23v-.64c0-.08-.04-.17-.1-.23-.06-.06-.15-.09-.24-.09Zm0,2.24c-.09,0-.18.03-.24.09-.06.06-.1.14-.1.23v.64c0,.08.04.17.1.23.06.06.15.09.24.09s.18-.03.24-.09c.06-.06.1-.14.1-.23v-.64c0-.08-.04-.17-.1-.23-.06-.06-.15-.09-.24-.09Z"/>
              <path class="cls-17" d="m43.14,41.84h-.74v-3.88c0-.09-.02-.18-.06-.27-.04-.08-.1-.16-.18-.22l-3.72-3.17s0,0,0,0c-.14-.11-.32-.17-.5-.17s-.36.06-.5.17h0s-3.72,3.17-3.72,3.17c-.08.06-.14.14-.18.22-.04.08-.06.18-.06.27v3.88h-.74c-.1,0-.19.04-.26.1-.07.06-.11.15-.11.24s.04.17.11.24c.07.06.16.1.26.1h10.42c.1,0,.19-.04.26-.1.07-.06.11-.15.11-.24s-.04-.17-.11-.24c-.07-.06-.16-.1-.26-.1Zm-8.93-3.88h0s3.72-3.17,3.72-3.17l3.72,3.16h0v3.88h-2.23v-2.01c0-.18-.08-.35-.22-.47-.14-.13-.33-.2-.53-.2h-1.49c-.2,0-.39.07-.53.2-.14.13-.22.3-.22.47v2.01h-2.23v-3.88Zm4.47,3.88h-1.49v-2.01h1.49v2.01Z"/>
            </g>
          </g>
          <path class="cls-17" d="m32.11,58.24l-.89.96h-.04s-.52.56-.52.56l-.03-.35,1.07-1.17h.4Zm-1.31,0v1.99h-.32v-1.99h.32Zm.49.71l.84,1.28h-.38l-.72-1.1.26-.18Zm2.06-.74c.19,0,.36.04.5.12.14.08.25.2.33.35.08.15.11.34.11.55s-.04.4-.11.55c-.08.15-.19.27-.33.35-.14.08-.31.12-.5.12s-.36-.04-.5-.12c-.14-.08-.25-.2-.33-.35-.08-.15-.11-.34-.11-.55s.04-.4.11-.55c.08-.15.19-.27.33-.35.14-.08.31-.12.5-.12Zm0,.28c-.12,0-.23.03-.32.09-.09.06-.16.14-.21.25-.05.11-.07.25-.07.4s.02.29.07.4c.05.11.12.2.21.25.09.06.2.09.32.09s.23-.03.32-.09c.09-.06.16-.14.21-.25.05-.11.07-.25.07-.4s-.02-.29-.07-.4c-.05-.11-.12-.2-.21-.25-.09-.06-.2-.09-.32-.09Zm-.3-.85c.06,0,.11.02.14.05.04.03.05.08.05.14s-.02.1-.05.14c-.03.03-.08.05-.14.05s-.11-.02-.14-.05c-.04-.04-.05-.08-.05-.14s.02-.1.05-.14c.04-.03.08-.05.14-.05Zm.61,0c.06,0,.11.02.14.05.04.03.05.08.05.14s-.02.1-.05.14c-.03.03-.08.05-.14.05s-.11-.02-.14-.05c-.03-.04-.05-.08-.05-.14s.02-.1.05-.14c.04-.03.08-.05.14-.05Zm2.08.6c.21,0,.38.05.51.16.13.11.19.25.19.43s-.06.33-.19.43c-.12.1-.29.15-.51.15l-.03.02h-.46v.8h-.32v-1.99h.81Zm-.02.93c.13,0,.23-.03.29-.08.06-.05.1-.14.1-.25s-.03-.19-.1-.24c-.06-.05-.16-.08-.29-.08h-.47v.65h.47Zm.19.07l.65,1h-.37l-.56-.87.28-.13Zm3.97-.99v1.99h-.33v-1.99h.33Zm-1.31,0v1.99h-.32v-1.99h.32Zm1.15.85v.28h-1.31v-.28h1.31Zm.9,1.15v-1.99h1.44v.28h-1.12v.57h.88v.27h-.88v.59h1.16v.28h-1.49Zm4.11-1.99v1.99h-.3v-1.15l.02-.55h0l-.61,1.7h-.27l-.61-1.7h0l.02.55v1.15h-.3v-1.99h.48l.4,1.15.14.47h0l.14-.47.4-1.15h.47Z"/>
          <g class="cls-56">
            <g>
              <rect class="cls-13" x="68.21" y="26.74" width="28.51" height="28.51" rx="8.39" ry="8.39" shape-rendering="crispEdges"/>
              <rect class="cls-8" x="68.21" y="26.74" width="28.51" height="28.51" rx="6.71" ry="6.71"/>
              <path class="cls-17" d="m82.58,38.79c-.45,0-.89.13-1.27.39-.38.25-.67.61-.84,1.03-.17.42-.22.88-.13,1.32.09.44.31.85.63,1.17.32.32.73.54,1.17.63.44.09.9.04,1.32-.13.42-.17.77-.47,1.03-.84.25-.38.39-.82.39-1.27,0-.61-.24-1.19-.67-1.62-.43-.43-1.01-.67-1.62-.67Zm0,3.66c-.27,0-.54-.08-.76-.23-.23-.15-.4-.36-.51-.62-.1-.25-.13-.53-.08-.79.05-.27.18-.51.38-.7.19-.19.44-.32.7-.38.27-.05.54-.03.79.08.25.1.46.28.62.5.15.23.23.49.23.76,0,.36-.14.71-.4.97-.26.26-.61.4-.97.4Zm4.21.41c-.2.46-.47.89-.8,1.27-.08.09-.19.14-.31.15-.12,0-.24-.04-.33-.12-.09-.08-.14-.19-.15-.31,0-.12.03-.24.11-.33.6-.67.93-1.54.93-2.44s-.33-1.77-.93-2.44c-.04-.04-.07-.1-.09-.15-.02-.06-.03-.12-.03-.18,0-.06.02-.12.04-.17.03-.05.06-.1.11-.14.05-.04.1-.07.16-.09.06-.02.12-.03.18-.02.06,0,.12.02.17.05.05.03.1.06.14.11.58.65.96,1.44,1.1,2.3.14.85.04,1.73-.3,2.53Zm-7.58-3.2c-.27.64-.35,1.34-.24,2.02.11.68.42,1.32.88,1.84.08.09.12.21.11.33,0,.12-.06.23-.15.31-.09.08-.21.12-.33.12-.12,0-.23-.06-.31-.15-.75-.84-1.17-1.92-1.17-3.05s.41-2.21,1.17-3.05c.08-.09.19-.15.32-.15.12,0,.24.03.33.12.09.08.15.19.15.32,0,.12-.03.24-.12.33-.27.3-.49.64-.65,1.01Zm10.23,1.42c0,1.79-.7,3.52-1.96,4.8-.04.04-.09.08-.15.11-.06.02-.12.04-.18.04-.06,0-.12,0-.18-.03-.06-.02-.11-.06-.15-.1-.04-.04-.08-.09-.1-.15-.02-.06-.04-.12-.04-.18,0-.06.01-.12.04-.18.02-.06.06-.11.1-.15,1.09-1.11,1.7-2.6,1.7-4.16s-.61-3.05-1.7-4.16c-.09-.09-.13-.2-.13-.32,0-.12.05-.24.14-.32.09-.09.2-.13.32-.13.12,0,.24.05.32.14,1.26,1.28,1.96,3,1.96,4.8Zm-11.1,4.16s.08.09.1.15c.02.06.03.12.03.18,0,.06-.01.12-.04.17-.02.06-.06.11-.1.15-.04.04-.09.08-.15.1-.06.02-.12.03-.18.03-.06,0-.12-.01-.17-.04-.06-.02-.11-.06-.15-.1-1.26-1.28-1.96-3-1.96-4.8s.7-3.52,1.96-4.8c.04-.04.09-.08.15-.11.06-.02.12-.04.18-.04.06,0,.12,0,.18.03.06.02.11.06.15.1.04.04.08.09.1.15.02.06.04.12.04.18,0,.06-.01.12-.04.18-.02.06-.06.11-.1.15-1.09,1.11-1.7,2.6-1.7,4.16s.61,3.05,1.7,4.16h0Z"/>
            </g>
          </g>
          <path class="cls-17" d="m78.33,58.24c.21,0,.38.05.51.16.13.11.19.25.19.43s-.06.33-.19.43c-.12.1-.29.15-.51.15l-.03.02h-.46v.8h-.32v-1.99h.81Zm-.02.93c.13,0,.23-.03.29-.08.06-.05.1-.14.1-.25s-.03-.19-.1-.24c-.06-.05-.16-.08-.29-.08h-.47v.65h.47Zm.19.07l.65,1h-.37l-.56-.87.28-.13Zm2.86,1h-.34l-.19-.52h-.84l-.19.52h-.33l.75-1.99h.39l.75,1.99Zm-1.28-.78h.66l-.33-.93-.33.93Zm2.48-1.21c.31,0,.55.09.73.26.18.17.26.42.26.74s-.09.57-.26.74c-.17.17-.42.26-.73.26h-.7v-1.99h.7Zm0,1.72c.21,0,.37-.06.48-.19.11-.13.17-.3.17-.53s-.06-.41-.17-.53c-.11-.13-.27-.19-.48-.19h-.38v1.44h.38Zm1.94-1.72v1.99h-.32v-1.99h.32Zm1.57-.03c.19,0,.36.04.5.12s.25.2.33.35c.08.15.11.34.11.55s-.04.4-.11.55c-.08.15-.19.27-.33.35s-.31.12-.5.12-.36-.04-.5-.12-.25-.2-.33-.35c-.08-.15-.11-.34-.11-.55s.04-.4.11-.55c.08-.15.19-.27.33-.35s.31-.12.5-.12Zm0,.28c-.12,0-.23.03-.32.09-.09.06-.16.14-.21.25-.05.11-.07.25-.07.4s.02.29.07.4c.05.11.12.2.21.25.09.06.2.09.32.09s.23-.03.32-.09c.09-.06.16-.14.21-.25.05-.11.07-.25.07-.4s-.02-.29-.07-.4c-.05-.11-.12-.2-.21-.25-.09-.06-.2-.09-.32-.09Z"/>
        </g>
      </g>
      <path class="cls-30" d="m161.56,0H3.35C1.5,0,0,1.5,0,3.35v134.96c0,1.85,1.5,3.35,3.35,3.35h158.2c1.85,0,3.35-1.5,3.35-3.35V3.35c0-1.85-1.5-3.35-3.35-3.35Zm-1.01,117.01c0,2.14-1.73,3.87-3.87,3.87H8c-2.14,0-3.87-1.73-3.87-3.87V7.71c0-2.14,1.73-3.87,3.87-3.87h148.68c2.14,0,3.87,1.73,3.87,3.87v109.3Z"/>
      <path class="cls-27" d="m25.04,126.07c0-.09.08-.17.17-.17h17.21c.09,0,.17.08.17.17v12.91c0,.93-.75,1.68-1.68,1.68h-14.19c-.93,0-1.68-.75-1.68-1.68v-12.91Z"/>
      <g class="cls-64">
        <path class="cls-35" d="m25.04,126.07c0-1.3,1.05-2.35,2.35-2.35h12.85c1.3,0,2.35,1.05,2.35,2.35v2.01h-17.55v-2.01Zm17.55,14.59h-17.55,17.55Zm-17.55,0v-14.76,14.76Zm17.55-14.76v14.76-14.76Z"/>
      </g>
      <path class="cls-17" d="m33.48,129.2s.05-.07.09-.1c.04-.02.09-.04.13-.04.05,0,.1,0,.14.03.04.02.08.05.1.08l.02.03,2.14,4.13c.05.13.01.28-.1.38-.05.04-.11.08-.18.09-.07.02-.14.02-.21,0l-1.89-.57-1.84.56c-.07.02-.14.03-.21.02-.07,0-.14-.04-.19-.08l-.03-.02c-.11-.09-.15-.23-.11-.37v-.04s2.14-4.1,2.14-4.1Z"/>
      <path class="cls-22" d="m33.16,137.16v1.55h-.23v-.9l.02-.43h0l-.47,1.32h-.21l-.47-1.32h0l.02.43v.9h-.23v-1.55h.37l.31.9.11.37h0l.11-.37.31-.9h.37Zm1.6,1.55l-.15-.41h-.65l-.15.41h-.26l.58-1.55h.3l.58,1.55h-.27Zm-.73-.61h.5l-.18-.5-.07-.22h0l-.07.22-.18.5Zm1.98-.94c.33,0,.54.18.54.48s-.21.48-.54.48h-.35v.58h-.25v-1.55h.6Zm-.04.75c.22,0,.32-.09.32-.27s-.1-.27-.32-.27h-.31v.54h.31Z"/>
      <path class="cls-31" d="m45.94,126.07c0-.09.08-.17.17-.17h17.21c.09,0,.17.08.17.17v12.91c0,.93-.75,1.68-1.68,1.68h-14.19c-.93,0-1.68-.75-1.68-1.68v-12.91Z"/>
      <g class="cls-63">
        <path class="cls-7" d="m45.94,126.07c0-1.3,1.05-2.35,2.35-2.35h12.85c1.3,0,2.35,1.05,2.35,2.35v2.01h-17.55v-2.01Zm17.55,14.59h-17.55,17.55Zm-17.55,0v-14.76,14.76Zm17.55-14.76v14.76-14.76Z"/>
      </g>
      <path class="cls-17" d="m52.42,131.18c.6,1.17,1.68,2.09,3.01,2.6l.21.08c.24.09.5.11.75.05.25-.06.46-.2.61-.39l.28-.37c.04-.06.06-.13.05-.2-.01-.07-.05-.13-.11-.18l-.95-.68s-.07-.04-.11-.05c-.04-.01-.08-.01-.13,0-.04,0-.08.02-.12.04s-.07.04-.09.07l-.29.35c-.75-.33-1.36-.87-1.73-1.54l.4-.26s.06-.05.08-.08c.02-.03.04-.07.04-.11,0-.04,0-.08,0-.11-.01-.04-.03-.07-.06-.1l-.76-.84c-.05-.05-.12-.09-.2-.1-.08-.01-.16,0-.22.04l-.42.25c-.22.13-.37.32-.45.55-.07.22-.05.46.06.67l.16.32Z"/>
      <path class="cls-22" d="m53.07,138.3c-.1.28-.34.43-.64.43-.45,0-.73-.31-.73-.8s.28-.8.73-.8c.31,0,.53.13.62.38l-.24.11c-.06-.18-.18-.27-.37-.27-.29,0-.48.21-.48.58s.18.58.47.58c.2,0,.34-.1.4-.3l.24.08Zm1.46.41l-.15-.41h-.65l-.15.41h-.26l.58-1.55h.3l.58,1.55h-.27Zm-.73-.61h.5l-.18-.5-.07-.22h0l-.07.22-.18.5Zm1.63.39h.85v.22h-1.11v-1.55h.25v1.33Zm1.52,0h.85v.22h-1.11v-1.55h.25v1.33Z"/>
      <path class="cls-29" d="m71.54,125.96c0-.09.08-.17.17-.17h21.01c.09,0,.17.08.17.17v12.91c0,.93-.75,1.68-1.68,1.68h-17.99c-.93,0-1.68-.75-1.68-1.68v-12.91Z"/>
      <g class="cls-50">
        <path class="cls-22" d="m71.54,125.96c0-1.3,1.05-2.35,2.35-2.35h16.65c1.3,0,2.35,1.05,2.35,2.35v2.01h-21.35v-2.01Zm21.35,14.59h-21.35,21.35Zm-21.35,0v-14.76,14.76Zm21.35-14.76v14.76-14.76Z"/>
      </g>
      <g class="cls-65">
        <path class="cls-17" d="m85.15,131.58c0,.18-.15.31-.33.31h-.33v1.56s0,.05,0,.08v.16c0,.21-.18.39-.41.39h-.16s-.02,0-.03,0c-.01,0-.03,0-.04,0h-.58c-.23,0-.41-.17-.41-.39v-.86c0-.17-.15-.31-.33-.31h-.65c-.18,0-.33.14-.33.31v.86c0,.21-.18.39-.41.39h-.57s-.03,0-.05,0c-.01,0-.02,0-.04,0h-.16c-.23,0-.41-.17-.41-.39v-1.09s0-.02,0-.03v-.68h-.33c-.18,0-.33-.14-.33-.31,0-.09.03-.17.1-.23l2.62-2.17c.07-.07.15-.08.22-.08s.15.02.21.07l2.6,2.18c.08.07.12.15.11.23Z"/>
      </g>
      <path class="cls-22" d="m79.77,137.05h.25v1.55h-.25v-.68h-.77v.68h-.25v-1.55h.25v.66h.77v-.66Zm1.47-.02c.45,0,.73.31.73.8s-.28.8-.73.8-.73-.31-.73-.8.28-.8.73-.8Zm0,.22c-.29,0-.47.21-.47.58s.18.58.47.58.47-.21.47-.58-.18-.58-.47-.58Zm2.81-.19v1.55h-.23v-.9l.02-.43h0l-.47,1.32h-.21l-.47-1.32h0l.02.43v.9h-.23v-1.55h.37l.31.9.11.37h0l.11-.37.31-.9h.37Zm.83,1.33h.9v.22h-1.16v-1.55h1.12v.22h-.87v.45h.68v.21h-.68v.46Z"/>
      <path class="cls-36" d="m100.93,125.96c0-.09.08-.17.17-.17h17.21c.09,0,.17.08.17.17v12.91c0,.93-.75,1.68-1.68,1.68h-14.19c-.93,0-1.68-.75-1.68-1.68v-12.91Z"/>
      <g class="cls-53">
        <path class="cls-4" d="m100.93,125.96c0-1.3,1.05-2.35,2.35-2.35h12.85c1.3,0,2.35,1.05,2.35,2.35v2.01h-17.55v-2.01Zm17.55,14.59h-17.55,17.55Zm-17.55,0v-14.76,14.76Zm17.55-14.76v14.76-14.76Z"/>
      </g>
      <path class="cls-17" d="m112.16,129.57v3.14c0,.23-.1.46-.29.62-.19.17-.44.26-.7.26s-.51-.09-.7-.26c-.19-.17-.29-.39-.29-.62s.1-.46.29-.62c.19-.17.44-.26.7-.26.15,0,.3.03.42.09v-1.48l-2.83.54v2.24c0,.23-.1.46-.29.62-.19.17-.44.26-.7.26s-.51-.09-.7-.26c-.19-.17-.29-.39-.29-.62s.1-.46.29-.62c.19-.17.44-.26.7-.26.15,0,.3.03.42.09v-2.1l3.96-.75Z"/>
      <path class="cls-22" d="m107.05,138.6l-.15-.41h-.65l-.15.41h-.26l.58-1.55h.3l.58,1.55h-.27Zm-.73-.61h.5l-.18-.5-.07-.22h0l-.07.22-.18.5Zm2.57-.94v.96c0,.41-.22.62-.63.62s-.63-.21-.63-.62v-.96h.25v.93c0,.29.12.43.38.43s.38-.14.38-.43v-.93h.25Zm1.1,0c.49,0,.77.28.77.77s-.28.77-.77.77h-.55v-1.55h.55Zm0,1.34c.33,0,.51-.2.51-.56s-.18-.56-.51-.56h-.3v1.12h.3Zm1.51-1.34v1.55h-.25v-1.55h.25Zm1.22-.02c.45,0,.73.31.73.8s-.28.8-.73.8-.73-.31-.73-.8.28-.8.73-.8Zm0,.22c-.29,0-.47.21-.47.58s.18.58.47.58.47-.21.47-.58-.18-.58-.47-.58Z"/>
      <path class="cls-12" d="m121.83,125.96c0-.09.07-.17.17-.17h17.21c.09,0,.17.08.17.17v12.91c0,.93-.75,1.68-1.68,1.68h-14.19c-.93,0-1.68-.75-1.68-1.68v-12.91Z"/>
      <g class="cls-58">
        <path class="cls-26" d="m121.83,125.96c0-1.3,1.05-2.35,2.35-2.35h12.85c1.3,0,2.35,1.05,2.35,2.35v2.01h-17.55v-2.01Zm17.55,14.59h-17.55,17.55Zm-17.55,0v-14.76,14.76Zm17.55-14.76v14.76-14.76Z"/>
      </g>
      <path class="cls-17" d="m132.01,130.34l-1.28-1.14c-.19-.17-.51-.05-.51.19v1.64l-1.16-1.03s-.06-.04-.1-.06c-.04-.01-.07-.02-.11-.02s-.08,0-.11.02c-.04.01-.07.03-.1.06-.03.02-.05.05-.06.09-.02.03-.02.07-.02.1s0,.07.02.1c.01.03.04.06.06.09l1.46,1.3-1.46,1.3s-.05.05-.06.09c-.02.03-.02.07-.02.1s0,.07.02.1c.01.03.04.06.06.09.03.02.06.04.1.06.04.01.07.02.11.02s.08,0,.11-.02c.04-.01.07-.03.1-.06l1.16-1.03v1.64c0,.24.32.36.51.19l1.28-1.14s.05-.05.06-.09c.01-.03.02-.07.02-.1s0-.07-.02-.1c-.02-.03-.04-.06-.06-.09l-1.07-.95,1.07-.95c.12-.1.12-.27,0-.38Zm-1.2-.31l.56.5-.56.5v-1Zm.56,2.78l-.56.5v-1l.56.5Z"/>
      <path class="cls-22" d="m126.27,137.02c.29,0,.48.1.62.31l-.19.17c-.09-.19-.21-.27-.43-.27s-.34.1-.34.23c0,.12.1.19.4.24.42.07.57.2.57.45,0,.28-.25.45-.62.45-.34,0-.55-.12-.67-.31l.18-.18c.1.19.26.27.49.27.22,0,.36-.08.36-.22,0-.11-.09-.17-.38-.23-.42-.08-.58-.21-.58-.46,0-.26.23-.47.6-.47Zm1.74,0c.45,0,.73.31.73.8s-.28.8-.73.8-.73-.31-.73-.8.28-.8.73-.8Zm0,.22c-.29,0-.47.21-.47.58s.18.58.47.58.47-.21.47-.58-.18-.58-.47-.58Zm2.47-.19v.96c0,.41-.22.62-.63.62s-.63-.21-.63-.62v-.96h.25v.93c0,.29.12.43.38.43s.38-.14.38-.43v-.93h.25Zm1.53,1.55l-.39-.62h-.33v.62h-.25v-1.55h.63c.33,0,.54.17.54.46,0,.22-.12.38-.33.44l.42.65h-.29Zm-.73-1.34v.51h.36c.2,0,.3-.08.3-.25s-.1-.25-.3-.25h-.36Zm2.72.93c-.1.28-.34.43-.64.43-.45,0-.73-.31-.73-.8s.28-.8.73-.8c.31,0,.53.13.62.38l-.24.11c-.06-.18-.18-.27-.37-.27-.29,0-.48.21-.48.58s.18.58.47.58c.2,0,.34-.1.4-.3l.24.08Zm.69.19h.9v.22h-1.15v-1.55h1.12v.22h-.87v.45h.68v.21h-.68v.46Z"/>
      <circle class="cls-2" cx="152.84" cy="132.17" r="7.71"/>
      <g class="cls-57">
        <rect class="cls-17" x="144.79" y="123.95" width="16.6" height="7.55"/>
      </g>
      <path class="cls-22" d="m147.26,133v.23h-.8v-.23h.8Z"/>
      <path class="cls-22" d="m159.34,133.21v.21h-.47v.49h-.22v-.49h-.47v-.21h.47v-.49h.22v.49h.47Z"/>
      <path class="cls-22" d="m150.23,130.95v1.22h-.18v-1.04s.01,0,.01,0l-.37,1.04h-.16l-.37-1.04h0v.34s.01.7.01.7h-.18v-1.22h.29l.24.7.08.29h0l.09-.29.24-.7h.29Zm.65,0v1.22h-.2v-1.22h.2Zm1.45,0v1.22h-.23l-.47-.77-.12-.23h0v.21s0,.79,0,.79h-.18v-1.22h.23l.47.77.12.23h0v-.21s0-.79,0-.79h.18Zm.65,0v1.22h-.2v-1.22h.2Zm1.7,0v1.22h-.18v-1.04s.01,0,.01,0l-.37,1.04h-.16l-.37-1.04h0v.34s.01.7.01.7h-.18v-1.22h.29l.24.7.08.29h0l.09-.29.24-.7h.29Zm1.26,1.22l-.11-.32h-.51l-.12.32h-.2l.46-1.22h.24l.46,1.22h-.21Zm-.57-.48h.4l-.14-.39-.06-.18h0l-.05.17-.14.39Zm1.28.31h.67v.17h-.87v-1.22h.2v1.05Z"/>
      <path class="cls-9" d="m152.9,135.67c-.16,0-.31-.06-.42-.17-.11-.11-.17-.26-.17-.42s.06-.31.17-.42c.11-.11.26-.17.42-.17s.31.06.42.17c.11.11.17.26.17.42s-.06.31-.17.42c-.11.11-.26.17-.42.17Zm0,.2c.21,0,.41-.08.55-.23.15-.15.23-.35.23-.55s-.08-.41-.23-.55c-.15-.15-.35-.23-.55-.23s-.41.08-.55.23c-.15.15-.23.35-.23.55s.08.41.23.55c.15.15.35.23.55.23Zm0-2.35s.05.01.07.03c.02.02.03.04.03.07v.39s-.01.05-.03.07c-.02.02-.04.03-.07.03s-.05-.01-.07-.03-.03-.04-.03-.07v-.39s.01-.05.03-.07c.02-.02.04-.03.07-.03Zm0,2.55s.05.01.07.03c.02.02.03.04.03.07v.39s-.01.05-.03.07c-.02.02-.04.03-.07.03s-.05-.01-.07-.03c-.02-.02-.03-.04-.03-.07v-.39s.01-.05.03-.07c.02-.02.04-.03.07-.03Zm1.57-.98s-.01.05-.03.07c-.02.02-.04.03-.07.03h-.39s-.05-.01-.07-.03c-.02-.02-.03-.04-.03-.07s.01-.05.03-.07c.02-.02.04-.03.07-.03h.39s.05.01.07.03c.02.02.03.04.03.07Zm-2.55,0s-.01.05-.03.07c-.02.02-.04.03-.07.03h-.39s-.05-.01-.07-.03c-.02-.02-.03-.04-.03-.07s.01-.05.03-.07c.02-.02.04-.03.07-.03h.39s.05.01.07.03c.02.02.03.04.03.07Zm2.09-1.11s.03.04.03.07-.01.05-.03.07l-.28.28s-.02.02-.03.02-.02,0-.04,0c-.03,0-.05-.01-.07-.03,0,0-.02-.02-.02-.03,0-.01,0-.02,0-.04,0-.03.01-.05.03-.07l.28-.28s.04-.03.07-.03.05.01.07.03Zm-1.8,1.8s.03.04.03.07-.01.05-.03.07l-.28.28s-.04.03-.07.03c-.03,0-.05-.01-.07-.03-.02-.02-.03-.04-.03-.07,0-.03,0-.05.03-.07l.28-.28s.04-.03.07-.03.05.01.07.03Zm1.8.42s-.04.03-.07.03-.05-.01-.07-.03l-.28-.28s-.03-.04-.03-.07.01-.05.03-.07c.02-.02.04-.03.07-.03.03,0,.05,0,.07.03l.28.28s.03.04.03.07-.01.05-.03.07Zm-1.8-1.8s-.04.03-.07.03-.05-.01-.07-.03l-.28-.28s-.02-.02-.02-.03c0-.01,0-.02,0-.04,0-.01,0-.03,0-.04,0-.01.01-.02.02-.03,0,0,.02-.02.03-.02.01,0,.02,0,.04,0s.03,0,.04,0c.01,0,.02.01.03.02l.28.28s.02.02.02.03c0,.01,0,.02,0,.04s0,.03,0,.04c0,.01-.01.02-.02.03Z"/>
      <g class="cls-52">
        <path class="cls-17" d="m152.9,135.77v-1.37l.59.29c.07.13.16.47,0,.78-.16.31-.46.33-.59.29Z"/>
      </g>
      <circle class="cls-18" cx="11.85" cy="132.17" r="7.71"/>
      <g class="cls-60">
        <rect class="cls-17" x="3.63" y="123.78" width="16.6" height="7.55"/>
      </g>
      <path class="cls-22" d="m10.88,130.56l-.53,1.44h-.27l-.53-1.44h.25l.34.96.09.29.09-.28.34-.96h.25Zm.93-.02c.14,0,.26.03.36.09.1.06.18.14.24.26.06.11.08.24.08.4s-.03.29-.08.4c-.06.11-.13.2-.24.26-.1.06-.22.09-.36.09s-.26-.03-.36-.09c-.1-.06-.18-.14-.24-.26-.06-.11-.08-.24-.08-.4s.03-.29.08-.4c.06-.11.13-.2.24-.26.1-.06.22-.09.36-.09Zm0,.2c-.09,0-.17.02-.23.06-.06.04-.11.1-.15.18-.03.08-.05.18-.05.29s.02.21.05.29c.03.08.08.14.15.18.07.04.14.06.23.06s.17-.02.23-.06c.07-.04.12-.1.15-.18.03-.08.05-.18.05-.29s-.02-.21-.05-.29c-.03-.08-.09-.14-.15-.18-.06-.04-.14-.06-.23-.06Zm1.37,1.06h.79v.2h-1.03v-1.44h.23v1.24Z"/>
      <path class="cls-22" d="m6.27,132.66v.23h-.8v-.23h.8Z"/>
      <path class="cls-22" d="m17.89,132.39v1.19h-.22v-1.19h.22Zm.47.49v.21h-1.16v-.21h1.16Z"/>
      <g class="cls-54">
        <path class="cls-17" d="m11.81,135.31s-.06-.01-.08-.03c-.02-.02-.03-.05-.03-.08v-.93s.01-.06.03-.08c.02-.02.05-.03.08-.03.03,0,.06.01.08.03.02.02.03.05.03.08v.93s-.01.06-.03.08c-.02.02-.05.03-.08.03Zm0,1.05c-.14,0-.28-.03-.41-.08-.13-.06-.24-.13-.33-.22s-.17-.21-.22-.33c-.06-.13-.08-.26-.08-.41,0-.12.02-.23.06-.35.04-.11.09-.21.17-.31.02-.03.05-.04.08-.04.03,0,.06.01.09.04.02.02.03.05.03.08,0,.03-.01.06-.03.09-.05.07-.09.15-.12.23-.03.08-.04.17-.04.26,0,.23.08.42.24.58.16.16.35.24.58.24s.42-.08.58-.24c.16-.16.24-.35.24-.58,0-.09-.01-.18-.04-.26-.03-.08-.07-.16-.12-.23-.02-.03-.03-.05-.03-.08,0-.03,0-.06.03-.08.02-.02.05-.04.08-.04.03,0,.06.01.08.04.08.09.13.2.17.31s.06.23.06.35c0,.15-.03.28-.08.41-.06.13-.13.24-.22.33-.09.09-.2.17-.33.22-.13.06-.26.08-.41.08Z"/>
      </g>
    </g>
  </g>
  <g id="Layer_4" data-name="Layer 4">
    <g>
      <rect class="cls-24" y="154.51" width="164.91" height="73.31" rx="10.68" ry="10.68"/>
      <ellipse class="cls-37" cx="23.03" cy="174.47" rx="14.89" ry="14.96"/>
      <path class="cls-22" d="m19.07,176.67h-.6l-.34-.92h-1.48l-.34.92h-.59l1.33-3.53h.68l1.33,3.53Zm-2.26-1.39h1.16l-.58-1.65-.58,1.65Zm5.57-2.14v2.17c0,.47-.12.82-.37,1.05-.25.24-.6.35-1.07.35s-.82-.12-1.07-.35c-.25-.24-.37-.59-.37-1.05v-2.17h.57v2.1c0,.33.07.58.21.74.14.16.36.24.65.24s.51-.08.66-.24c.14-.16.21-.41.21-.74v-2.1h.57Zm3.6,0v.49h-1.21v3.03h-.57v-3.03h-1.21v-.49h2.99Zm2.02-.05c.34,0,.64.07.89.22.25.15.44.35.58.62.14.27.2.59.2.97s-.07.7-.2.97c-.14.27-.33.48-.58.62-.25.15-.54.22-.89.22s-.63-.07-.88-.22c-.25-.15-.44-.35-.58-.62-.14-.27-.2-.59-.2-.97s.07-.7.2-.97c.14-.27.33-.48.58-.62.25-.15.54-.22.88-.22Zm0,.5c-.22,0-.41.05-.57.15-.16.1-.28.25-.36.45s-.13.43-.13.72.04.52.13.72c.09.2.21.35.36.45.16.1.35.15.57.15s.41-.05.57-.15c.16-.1.28-.25.37-.45.09-.2.13-.44.13-.72s-.04-.52-.13-.72-.21-.35-.37-.45c-.16-.1-.35-.15-.57-.15Z"/>
      <path class="cls-43" d="m22.63,161.32h.31c.86.05,1.71.17,2.55.37l.16.04,1.3.34,1.15.48.89.5c.85.48,1.64,1.06,2.36,1.71l.79.72.46.52c.73.81,1.36,1.71,1.87,2.68l.05.1c.36.69.67,1.41.9,2.15l.06.19v.03c.15.61.22,1.24.22,1.87h0"/>
      <path class="cls-42" d="m22.7,161.32l-.13.02c-.63.08-1.25.2-1.85.37l-.08.02-1.3.34-1.15.48-.89.5c-.85.48-1.64,1.06-2.36,1.71l-.79.72-.46.52c-.73.81-1.36,1.71-1.87,2.68l-.05.1c-.36.69-.67,1.41-.9,2.15l-.06.19v.03c-.15.61-.22,1.24-.22,1.87h0"/>
      <path class="cls-38" d="m21.83,171.07h2.27c.18,0,.33.15.33.33h0c0,.18-.15.33-.33.33h-2.27c-.18,0-.33-.15-.33-.33h0c0-.18.15-.33.33-.33Z"/>
      <ellipse class="cls-37" cx="141.61" cy="174.87" rx="14.89" ry="14.96"/>
      <path class="cls-22" d="m137.65,177.07h-.6l-.34-.92h-1.48l-.34.92h-.59l1.33-3.53h.68l1.33,3.53Zm-2.26-1.39h1.16l-.58-1.65-.58,1.65Zm5.57-2.14v2.17c0,.47-.12.82-.37,1.05-.25.24-.6.35-1.07.35s-.82-.12-1.07-.35c-.25-.24-.37-.59-.37-1.05v-2.17h.57v2.1c0,.33.07.58.21.74.14.16.36.24.65.24s.52-.08.66-.24c.14-.16.21-.41.21-.74v-2.1h.57Zm3.6,0v.49h-1.21v3.03h-.57v-3.03h-1.21v-.49h2.99Zm2.02-.05c.34,0,.64.07.89.22s.44.35.58.62c.13.27.2.59.2.97s-.07.7-.2.97c-.13.27-.33.48-.58.62-.25.15-.54.22-.89.22s-.63-.07-.88-.22c-.25-.15-.44-.35-.58-.62-.13-.27-.2-.59-.2-.97s.07-.7.2-.97c.13-.27.33-.48.58-.62s.54-.22.88-.22Zm0,.5c-.22,0-.41.05-.57.15-.16.1-.28.25-.36.45s-.13.43-.13.72.04.52.13.72c.09.2.21.35.36.45.16.1.35.15.57.15s.42-.05.57-.15c.16-.1.28-.25.37-.45.09-.2.13-.44.13-.72s-.04-.52-.13-.72-.21-.35-.37-.45c-.16-.1-.35-.15-.57-.15Z"/>
      <path class="cls-43" d="m141.21,161.72h.31c.86.05,1.71.17,2.55.37l.16.04,1.3.34,1.15.48.88.5c.85.48,1.64,1.06,2.36,1.71l.79.72.46.52c.73.81,1.36,1.71,1.87,2.68l.05.1c.36.69.66,1.41.9,2.15l.06.19v.03c.15.61.22,1.24.22,1.87h0"/>
      <path class="cls-42" d="m141.28,161.72l-.13.02c-.63.08-1.25.2-1.85.37l-.08.02-1.3.34-1.15.48-.88.5c-.85.48-1.64,1.06-2.36,1.71l-.79.72-.46.52c-.73.81-1.36,1.71-1.87,2.68l-.05.1c-.36.69-.67,1.41-.9,2.15l-.06.19v.03c-.15.61-.22,1.24-.22,1.87h0"/>
      <path class="cls-38" d="m140.54,171.47h2.27c.18,0,.33.15.33.33h0c0,.18-.15.33-.33.33h-2.27c-.18,0-.33-.15-.33-.33h0c0-.18.15-.33.33-.33Z"/>
      <ellipse class="cls-37" cx="82.19" cy="174.94" rx="14.89" ry="14.96"/>
      <path class="cls-22" d="m80.95,181.95h-.54l-.3-.83h-1.33l-.3.83h-.53l1.2-3.17h.62l1.2,3.17Zm-2.03-1.25h1.04l-.52-1.48-.52,1.48Zm4.15-2.24l-1.43,3.82h-.48l1.43-3.82h.48Zm3.12,2.64c-.06.19-.16.36-.29.49-.13.13-.28.23-.45.3-.17.07-.36.1-.57.1-.3,0-.57-.07-.79-.2-.22-.13-.4-.32-.52-.56-.12-.24-.18-.54-.18-.87s.06-.63.18-.87c.12-.24.29-.43.52-.56.22-.13.49-.2.79-.2.21,0,.4.03.56.09.17.06.31.14.43.26s.21.26.27.43l-.49.22c-.06-.19-.16-.33-.28-.41-.12-.09-.28-.13-.48-.13s-.37.05-.51.14-.26.23-.35.4c-.08.18-.12.39-.12.64s.04.46.12.64c.08.18.19.31.33.4s.32.14.52.14.36-.05.5-.15c.14-.1.25-.25.31-.46l.49.16Z"/>
      <path class="cls-46" d="m81.52,162.12h.31c.86.05,1.71.17,2.55.37l.16.04,1.3.34,1.15.48.89.5c.85.48,1.64,1.06,2.36,1.71l.79.72.46.52c.73.81,1.36,1.71,1.87,2.68l.05.1c.36.69.67,1.41.9,2.15l.06.19v.03c.15.61.22,1.24.22,1.87h0"/>
      <path class="cls-46" d="m81.59,162.12l-.13.02c-.63.08-1.25.2-1.85.37l-.08.02-1.3.34-1.15.48-.89.5c-.85.48-1.64,1.06-2.36,1.71l-.79.72-.46.52c-.73.81-1.36,1.71-1.87,2.68l-.05.1c-.36.69-.67,1.41-.9,2.15l-.06.19v.03c-.15.61-.22,1.24-.22,1.87h0"/>
      <path class="cls-16" d="m70.56,176.03v.48h-1.64v-.48h1.64Z"/>
      <path class="cls-22" d="m94.75,175.06v2.43h-.45v-2.43h.45Zm.96,1v.43h-2.37v-.43h2.37Z"/>
      <path class="cls-38" d="m80.99,176.81h2.27c.18,0,.33.15.33.33h0c0,.18-.15.33-.33.33h-2.27c-.18,0-.33-.15-.33-.33h0c0-.18.15-.33.33-.33Z"/>
      <path class="cls-41" d="m82.09,172.19v-3.13l1.73.67c.1.04.19.1.25.18.07.08.11.18.12.28.02.1,0,.21-.04.31-.04.1-.1.18-.19.25l-1.88,1.45Zm0,0h3.17l-.68,1.71c-.04.1-.1.18-.19.25-.08.07-.18.11-.29.12-.1.02-.21,0-.31-.04-.1-.04-.18-.1-.25-.19l-1.47-1.86Zm0,0h-3.17l.68-1.71c.04-.1.1-.18.19-.25.08-.07.18-.11.29-.12.1-.02.21,0,.31.04.1.04.18.1.25.19l1.47,1.86Zm0,0v3.13l-1.73-.67c-.1-.04-.19-.1-.25-.18-.07-.08-.11-.18-.12-.28-.02-.1,0-.21.04-.31.04-.1.1-.18.19-.25l1.88-1.45Z" shape-rendering="crispEdges"/>
      <path class="cls-37" d="m107.16,202.38c0-2.21,1.79-4.01,4.01-4.01h9.02c2.21,0,4.01,1.79,4.01,4.01v3.74c0,2.21-1.79,4.01-4.01,4.01h-9.02c-2.21,0-4.01-1.79-4.01-4.01v-3.74Z"/>
      <path class="cls-37" d="m87.73,201.91c0-2.21,1.79-4.01,4.01-4.01h9.02c2.21,0,4.01,1.79,4.01,4.01v3.74c0,2.21-1.79,4.01-4.01,4.01h-9.02c-2.21,0-4.01-1.79-4.01-4.01v-3.74Z"/>
      <g class="cls-62">
        <path class="cls-16" d="m115.18,203.88c.08.06.12.14.13.24.01.09-.02.19-.08.26l-.09.1c-.11.14-.18.31-.17.49,0,.18.07.35.19.49l.04.05c.26.26.42.6.44.97.02.36-.1.72-.33,1.01l-.09.1s-.07.07-.11.09c-.04.02-.09.04-.14.04-.05,0-.1,0-.14-.01-.05-.01-.09-.03-.13-.06-.04-.03-.07-.07-.09-.11-.02-.04-.04-.09-.04-.13,0-.05,0-.09.01-.14.01-.04.04-.09.07-.12l.09-.1c.11-.14.18-.31.17-.49,0-.18-.07-.35-.19-.49l-.05-.05c-.27-.26-.42-.6-.44-.97-.02-.36.1-.72.33-1.01l.09-.1s.07-.07.11-.09c.04-.02.09-.04.14-.04.05,0,.1,0,.14.01s.09.03.13.06h0Zm.95.06c.06-.07.14-.12.23-.13.09-.01.19,0,.26.06.08.05.13.13.15.22.02.09,0,.18-.05.26l-.03.04-.09.1c-.11.14-.18.31-.17.49,0,.18.07.35.19.49l.04.05c.26.25.41.58.44.93.03.35-.07.7-.28.98l-.05.06-.09.1c-.06.07-.14.12-.23.13-.09.01-.19,0-.26-.06-.08-.05-.13-.13-.15-.22-.02-.09,0-.18.05-.26l.03-.04.09-.1c.11-.14.18-.31.17-.49,0-.18-.07-.35-.19-.49l-.05-.05c-.26-.25-.41-.58-.44-.93-.03-.35.07-.7.28-.98l.05-.06.09-.1Zm-.45-2.27c1.18,0,2.03.17,2.59.35l.15.05.13.05s.04.02.06.02l.11.05s.04.02.05.02l.1.05s.03.01.04.02c.33.17.41.53.3.82l-1.01,2.61c-.04.09-.1.16-.19.19-.09.04-.19.04-.28,0-.09-.03-.16-.1-.2-.18-.04-.08-.05-.18-.01-.27l.99-2.57-.08-.04-.09-.04-.1-.04-.11-.04-.06-.02-.13-.04-.15-.04s-.05-.01-.08-.02l-.17-.04s-.06-.01-.09-.02l-.19-.04c-.43-.08-.95-.13-1.6-.13-.79,0-1.41.08-1.87.19l-.17.04s-.05.01-.08.02l-.15.04-.13.04-.12.04-.06.02-.1.04-.09.04-.08.04.99,2.57s.03.09.03.14c0,.05-.01.09-.03.14-.02.04-.05.08-.08.11-.04.03-.08.06-.12.07-.05.02-.09.02-.14.02-.05,0-.1-.01-.14-.03-.04-.02-.08-.05-.12-.08-.03-.03-.06-.08-.07-.12l-1.01-2.61c-.11-.28-.02-.65.3-.82l.09-.04s.03-.02.05-.02l.11-.05s.08-.03.12-.05l.13-.05.15-.05c.57-.18,1.41-.35,2.59-.35Z"/>
      </g>
      <path class="cls-38" d="m114.42,199.57h2.26c.18,0,.33.15.33.33h0c0,.18-.15.33-.33.33h-2.26c-.18,0-.33-.15-.33-.33h0c0-.18.15-.33.33-.33Z"/>
      <path class="cls-38" d="m94.98,199.57h2.26c.18,0,.33.15.33.33h0c0,.18-.15.33-.33.33h-2.26c-.18,0-.33-.15-.33-.33h0c0-.18.15-.33.33-.33Z"/>
      <path class="cls-32" d="m95.58,203.65c.07.06.12.14.13.24.01.09-.02.19-.08.26l-.08.1c-.11.14-.17.31-.17.49,0,.18.07.35.18.49l.04.05c.26.26.41.6.43.96.02.36-.09.72-.32,1.01l-.08.1s-.07.07-.11.09c-.04.02-.09.04-.13.04-.05,0-.09,0-.14-.01-.04-.01-.09-.03-.12-.06-.04-.03-.07-.07-.09-.11-.02-.04-.04-.09-.04-.13,0-.05,0-.09.01-.14.01-.04.03-.09.06-.12l.08-.1c.11-.14.17-.31.17-.49,0-.18-.07-.35-.18-.49l-.04-.05c-.26-.26-.41-.6-.43-.96-.02-.36.09-.72.32-1.01l.08-.1s.07-.07.11-.09c.04-.02.09-.04.13-.04.05,0,.09,0,.14.01.04.01.09.03.12.06h0Zm1.42,0c.07.06.12.14.13.24.01.09-.02.19-.08.26l-.08.1c-.11.14-.17.31-.17.49,0,.18.07.35.18.49l.04.05c.26.26.41.6.43.96.02.36-.09.72-.32,1.01l-.08.1s-.07.07-.11.09c-.04.02-.09.04-.13.04-.05,0-.09,0-.14-.01-.04-.01-.09-.03-.12-.06-.04-.03-.07-.07-.09-.11-.02-.04-.04-.09-.04-.13,0-.05,0-.09.01-.14.01-.04.03-.09.06-.12l.08-.1c.11-.14.17-.31.17-.49,0-.18-.07-.35-.18-.49l-.04-.05c-.26-.26-.41-.6-.43-.96-.02-.36.09-.72.32-1.01l.08-.1s.07-.07.11-.09c.04-.02.09-.04.13-.04.05,0,.09,0,.14.01.04.01.09.03.12.06h0Zm1.55-2.21c.27,0,.53.1.73.29.2.19.32.44.33.71v.06s0,2.49,0,2.49c0,.27-.1.53-.29.73-.19.2-.44.32-.71.33h-.06s-.35,0-.35,0c-.09,0-.18-.03-.24-.1-.07-.06-.11-.15-.11-.24,0-.09.02-.18.08-.25.06-.07.14-.11.23-.12h.04s.35,0,.35,0c.09,0,.17-.03.24-.09.07-.06.11-.14.12-.22v-.04s0-2.49,0-2.49c0-.09-.03-.17-.09-.24-.06-.07-.14-.11-.22-.12h-.04s-4.97,0-4.97,0c-.09,0-.17.03-.24.09-.07.06-.11.14-.12.22v.04s0,2.49,0,2.49c0,.09.03.17.09.24.06.07.14.11.22.12h.04s.35,0,.35,0c.09,0,.18.03.24.1.07.06.11.15.11.24,0,.09-.02.18-.08.25-.06.07-.14.11-.23.12h-.04s-.35,0-.35,0c-.27,0-.53-.1-.73-.29-.2-.19-.32-.44-.33-.71v-.06s0-2.49,0-2.49c0-.27.1-.53.29-.73.19-.2.44-.32.71-.33h.06s4.97,0,4.97,0Z"/>
      <rect class="cls-37" x="40.06" y="197.91" width="17.04" height="11.75" rx="4.01" ry="4.01"/>
      <rect class="cls-37" x="58.56" y="197.91" width="17.04" height="11.75" rx="4.01" ry="4.01"/>
      <path class="cls-38" d="m65.81,199.64h2.26c.18,0,.33.15.33.33h0c0,.18-.15.33-.33.33h-2.26c-.18,0-.33-.15-.33-.33h0c0-.18.15-.33.33-.33Z"/>
      <g>
        <path class="cls-44" d="m63.7,205.74h-.95c-.28,0-.47-.17-.47-.42v-1.27c0-.38.33-.72.71-.8.85-.21,2.13-.47,2.13-.47,0,0,.61-.59,1.04-.97.24-.17.52-.3.85-.3h3.31c.28,0,.52.17.66.38l.66,1.23c.06.16.09.33.09.51v1.69c0,.25-.19.42-.47.42h-.94"/>
        <path class="cls-44" d="m69.37,206.58c-.52,0-.94-.38-.94-.85s.42-.85.94-.85.95.38.95.85-.42.85-.95.85Z"/>
        <path class="cls-44" d="m68.43,205.74h-2.83"/>
        <path class="cls-44" d="m64.65,206.58c-.52,0-.94-.38-.94-.85s.42-.85.94-.85.95.38.95.85-.42.85-.95.85Z"/>
      </g>
      <path class="cls-22" d="m66.64,202.77l-.15.08-.15-.08.15-.08.15.08Zm1.07,1.34c-.06,0-.11-.01-.15-.03-.04-.02-.06-.05-.06-.08s.02-.06.06-.08c.04-.02.09-.03.15-.03v.22Zm-.15-.7l-1.07-.56.3-.16,1.07.56-.3.16Zm-1.07-.71l1.07-.56.3.16-1.07.56-.3-.16Zm.15-.03h2.24v.22h-2.24v-.22Zm2.24,1.45h-1.17v-.22h1.17v.22Zm1.39-.72c0,.19-.15.38-.41.51-.26.14-.61.21-.98.21v-.22c.13,0,.25-.01.37-.04s.22-.06.31-.11c.09-.05.16-.1.21-.16.05-.06.07-.13.07-.19h.43Zm-1.39-.72c.37,0,.72.08.98.21.26.14.41.32.41.51h-.43c0-.07-.02-.13-.07-.19-.05-.06-.12-.12-.21-.16-.09-.05-.19-.08-.31-.11-.12-.03-.24-.04-.37-.04v-.22Z"/>
      <g class="cls-66">
        <path class="cls-32" d="m65.03,203.88v.22h5.34v-.22h-5.34Zm1.17-1.23v.22h5.34v-.22h-5.34Zm0,1.23v.22h5.34v-.22h-5.34Zm3.63,2.17h.43v-5.34h-.43v5.34Zm-3.2-3.28l2.47,4.73,9.06-4.73-9.06-4.73-2.47,4.73Zm-.3,0l-2.47-4.73-9.06,4.73,9.06,4.73,2.47-4.73Zm1.15,1.23h5.34-5.34Zm.06-.59l-2.47,4.73,2.47,1.29,2.47-1.29-2.47-4.73Zm-.76-.71l2.47-4.73-2.47-1.29-2.47,1.29,2.47,4.73Zm1.07.56l2.47,4.73,9.06-4.73-9.06-4.73-2.47,4.73Zm-.3-1.11l2.47-4.73-2.47-1.29-2.47,1.29,2.47,4.73Zm.3.16l2.47,4.73,9.06-4.73-9.06-4.73-2.47,4.73Zm-1.07.56l-2.47,4.73,2.47,1.29,2.47-1.29-2.47-4.73Zm-.15-.19v-5.34h-5.34v5.34h5.34Zm0,.22h-5.34v5.34h5.34v-5.34Zm2.24,1.23v-5.34,5.34Zm0-.22v-5.34,5.34Zm1.39-.5h5.34-5.34Zm-6.1-5.35l-.15.08,4.95,9.47.15-.08-4.95-9.47Zm4.8.08l-.15-.08-4.95,9.47.15.08,4.95-9.47Zm-.15,9.39l.15-.08-4.95-9.47-.15.08,4.95,9.47Zm-4.8-.08l.15.08,4.95-9.47-.15-.08-4.95,9.47Zm3.69-8.66c.33,0,.69.03,1.05.11.35.08.8.21,1.27.46l-4.95,9.47c.97.51,1.92.64,2.62.64v-10.68Zm2.32.57c.7.37,2.8,1.76,2.8,4.66h-10.68c0,2.95,2.15,4.4,2.93,4.81l4.95-9.47Zm2.8,4.66c0,2.89-2.1,4.29-2.8,4.65l-4.95-9.47c-.78.41-2.93,1.86-2.93,4.81h10.68Zm-2.8,4.65c-.48.25-.92.39-1.27.46-.36.08-.71.11-1.05.11v-10.68c-.7,0-1.65.13-2.62.64l4.95,9.47Zm0-9.98l-1.07-.56-4.95,9.47,1.07.56,4.95-9.47Zm-1.07,8.91l.3-.16-4.95-9.47-.3.16,4.95,9.47Zm-4.65-.16l1.07.56,4.95-9.47-1.07-.56-4.95,9.47Zm1.07-8.91l-.3.16,4.95,9.47.3-.16-4.95-9.47Zm3.58,8.91l1.07-.56-4.95-9.47-1.07.56,4.95,9.47Zm-3.88-.56l.3.16,4.95-9.47-.3-.16-4.95,9.47Zm.3-9.31l-1.07.56,4.95,9.47,1.07-.56-4.95-9.47Zm3.88.56l-.3-.16-4.95,9.47.3.16,4.95-9.47Zm-2.62,9.88h2.24v-10.68h-2.24v10.68Zm2.24-10.46h-2.24v10.68h2.24v-10.68Zm3.1,5.34v-.22h-10.68v.22h10.68Zm-3.1-4.12h-1.17v10.68h1.17v-10.68Zm-1.17,10.46h1.17v-10.68h-1.17v10.68Zm-2.78-5.84c0-2.73,1.98-3.97,2.46-4.22l4.95,9.47c1-.52,3.27-2.13,3.27-5.25h-10.68Zm2.46-4.22c.37-.19.68-.28.89-.33.22-.05.42-.07.6-.07v10.68c1.02,0,2.26-.2,3.45-.82l-4.95-9.47Zm1.49,10.06c.48,0,.99-.05,1.5-.16l-2.26-10.44c.28-.06.53-.08.76-.08v10.68Zm1.5-.16c.5-.11,1.07-.29,1.66-.6l-4.95-9.47c.4-.21.76-.32,1.03-.38l2.26,10.44Zm1.66-.6c.57-.3,1.29-.79,1.92-1.58l-8.37-6.64c.53-.67,1.12-1.05,1.5-1.25l4.95,9.47Zm1.92-1.58c.66-.83,1.23-2.03,1.23-3.51h-10.68c0-1.35.52-2.42,1.08-3.13l8.37,6.64Zm-5.07,1.11c-.18,0-.38-.02-.6-.07-.21-.05-.53-.14-.89-.33l4.95-9.47c-1.19-.62-2.44-.82-3.45-.82v10.68Zm-1.49-.4c-.48-.25-2.46-1.49-2.46-4.22h10.68c0-3.12-2.27-4.72-3.27-5.25l-4.95,9.47Zm7.79-4.22c0-1.48-.57-2.68-1.23-3.51l-8.37,6.64c-.56-.71-1.08-1.78-1.08-3.13h10.68Zm-1.23-3.51c-.63-.79-1.35-1.28-1.92-1.58l-4.95,9.47c-.39-.2-.97-.58-1.5-1.25l8.37-6.64Zm-1.92-1.58c-.58-.3-1.15-.49-1.66-.6l-2.26,10.44c-.27-.06-.63-.17-1.03-.38l4.95-9.47Zm-1.66-.6c-.51-.11-1.01-.16-1.5-.16v10.68c-.23,0-.49-.02-.76-.08l2.26-10.44Z"/>
      </g>
      <circle class="cls-11" cx="11.15" cy="195.71" r="5.01"/>
      <path class="cls-21" d="m18.39,213.79c-.34-.15-.73-.06-.98.22l-5.56,6.22c-.5.56-.1,1.45.65,1.46,6.76.06,9.15.48,14.25,2.38.73.27,1.42-.46,1.07-1.15-2.01-3.98-4.64-7.04-9.44-9.13Z"/>
      <path class="cls-3" d="m16.23,213.42c.3-.32.31-.81.06-1.16-3.31-4.66-4.5-13.12-6.71-9.54-2.12,3.43-2.01,11.42-.45,16.51.19.61.95.76,1.39.29l5.71-6.09Z"/>
      <path class="cls-22" d="m22.09,206.5c.22,0,.4-.08.55-.25.15-.17.23-.37.23-.61h-.52c0,.08-.03.15-.08.21-.05.06-.11.08-.19.08-.07,0-.14-.03-.19-.08-.05-.06-.08-.12-.07-.21,0-.08.02-.15.08-.21.05-.06.11-.08.19-.08h2.48v-.58h-2.48c-.22,0-.4.08-.55.25-.15.17-.23.37-.23.61s.08.45.23.61c.15.17.34.25.55.25Zm2.48-2.89v-.58h-3.52c-.11,0-.21-.04-.28-.12-.07-.08-.11-.19-.11-.31s.04-.23.11-.31c.07-.08.17-.12.28-.12s.21.04.28.12c.07.08.11.19.11.31h.52c0-.28-.09-.52-.26-.72-.18-.2-.39-.29-.65-.29-.26,0-.47.1-.65.29-.18.2-.26.44-.26.72,0,.28.09.52.26.72s.39.29.65.29h3.52Zm-4.31,2.31v-.58c-.11,0-.21-.04-.28-.12-.07-.08-.11-.19-.11-.31s.04-.23.11-.31c.07-.08.17-.12.28-.12h4.31v-.58h-4.31c-.26,0-.47.1-.65.29-.18.2-.26.44-.26.72,0,.28.09.52.26.72.18.2.39.29.65.29Z"/>
      <circle class="cls-33" cx="153.09" cy="195.71" r="5.01"/>
      <path class="cls-5" d="m145.85,213.79c.34-.15.73-.06.97.22l5.56,6.22c.5.56.1,1.45-.65,1.46-6.76.06-9.15.48-14.25,2.38-.73.27-1.42-.46-1.07-1.15,2.01-3.98,4.64-7.04,9.44-9.13Z"/>
      <path class="cls-23" d="m148.01,213.42c-.3-.32-.32-.81-.06-1.16,3.31-4.66,4.5-13.12,6.71-9.54,2.12,3.43,2.01,11.42.45,16.51-.19.61-.95.76-1.39.29l-5.71-6.09Z"/>
      <path class="cls-22" d="m142.15,206.5c-.22,0-.4-.08-.56-.25-.15-.17-.23-.37-.23-.61h.52c0,.08.03.15.08.21.05.06.11.08.19.08.07,0,.14-.03.19-.08.05-.06.08-.12.07-.21,0-.08-.02-.15-.07-.21-.05-.06-.11-.08-.19-.08h-2.48v-.58h2.48c.22,0,.4.08.55.25s.23.37.23.61-.08.45-.23.61c-.15.17-.34.25-.55.25Zm-2.48-2.89v-.58h3.53c.11,0,.21-.04.28-.12.07-.08.11-.19.11-.31s-.04-.23-.11-.31c-.07-.08-.17-.12-.28-.12s-.21.04-.28.12c-.07.08-.11.19-.11.31h-.52c0-.28.09-.52.26-.72.18-.2.39-.29.65-.29.26,0,.47.1.65.29.18.2.26.44.26.72s-.09.52-.26.72c-.17.2-.39.29-.65.29h-3.53Zm4.31,2.31v-.58c.11,0,.21-.04.28-.12.07-.08.11-.19.11-.31s-.04-.23-.11-.31c-.07-.08-.17-.12-.28-.12h-4.31v-.58h4.31c.26,0,.47.1.65.29.18.2.26.44.26.72s-.09.52-.26.72c-.18.2-.39.29-.65.29Z"/>
    </g>
  </g>
</svg>