<svg width="1445" height="170" viewBox="0 0 1445 170" fill="none" xmlns="http://www.w3.org/2000/svg">
<path d="M0 30C0 13.4315 13.4315 0 30 0H1415C1431.57 0 1445 13.4315 1445 30V140C1445 156.569 1431.57 170 1415 170H30C13.4315 170 0 156.569 0 140V30Z" fill="#908F8F"/>
<mask id="path-3-outside-1_345_10204" maskUnits="userSpaceOnUse" x="209" y="9" width="157" height="152" fill="black">
<rect fill="white" x="209" y="9" width="157" height="152"/>
<path d="M209 30.5C209 29.6716 209.672 29 210.5 29H364.444C365.272 29 365.944 29.6716 365.944 30.5V146C365.944 154.284 359.228 161 350.944 161H224C215.716 161 209 154.284 209 146V30.5Z"/>
</mask>
<path d="M209 30.5C209 29.6716 209.672 29 210.5 29H364.444C365.272 29 365.944 29.6716 365.944 30.5V146C365.944 154.284 359.228 161 350.944 161H224C215.716 161 209 154.284 209 146V30.5Z" fill="url(#paint0_linear_345_10204)"/>
<path d="M209 30.5C209 18.902 218.402 9.5 230 9.5H344.944C356.542 9.5 365.944 18.902 365.944 30.5V48.5C365.944 48.5 365.272 48.5 364.444 48.5H210.5C209.672 48.5 209 48.5 209 48.5V30.5ZM365.944 161H209H365.944ZM209 161V29V161ZM365.944 29V161V29Z" fill="#3BAD69" mask="url(#path-3-outside-1_345_10204)"/>
<path d="M284.457 58.4849C284.637 58.1374 284.919 57.8395 285.273 57.6226C285.628 57.4057 286.042 57.2779 286.471 57.2527C286.9 57.2274 287.33 57.3057 287.713 57.4792C288.097 57.6527 288.42 57.915 288.65 58.2384L288.798 58.4849L307.936 95.3856C308.409 96.5883 308.056 97.9271 307.032 98.8174C306.582 99.2131 306.024 99.498 305.412 99.6444C304.801 99.7908 304.157 99.7936 303.544 99.6526L286.625 94.5568L270.132 99.5251C269.531 99.7345 268.879 99.7993 268.241 99.7132C267.603 99.627 267.001 99.3928 266.498 99.0342L266.23 98.8217C265.278 98.0014 264.901 96.7944 265.29 95.5152L265.403 95.1964L284.457 58.4849Z" fill="#FAFAFA"/>
<path d="M281.63 129.64V143.5H279.572V135.478L279.719 131.656H279.698L275.477 143.5H273.608L269.387 131.656H269.366L269.534 135.478V143.5H267.455V129.64H270.794L273.587 137.662L274.553 140.959H274.595L275.582 137.662L278.354 129.64H281.63ZM295.933 143.5L294.631 139.867H288.793L287.47 143.5H285.16L290.389 129.64H293.077L298.306 143.5H295.933ZM289.444 138.04H293.959L292.363 133.588L291.733 131.593H291.67L291.082 133.546L289.444 138.04ZM307.148 129.64C310.13 129.64 312.02 131.257 312.02 133.966C312.02 136.654 310.13 138.271 307.148 138.271H304.061V143.5H301.814V129.64H307.148ZM306.791 136.36C308.786 136.36 309.689 135.541 309.689 133.966C309.689 132.391 308.786 131.551 306.791 131.551H304.061V136.36H306.791Z" fill="white"/>
<mask id="path-7-outside-2_345_10204" maskUnits="userSpaceOnUse" x="395.933" y="9" width="157" height="152" fill="black">
<rect fill="white" x="395.933" y="9" width="157" height="152"/>
<path d="M395.933 30.5C395.933 29.6716 396.605 29 397.433 29H551.377C552.205 29 552.877 29.6716 552.877 30.5V146C552.877 154.284 546.161 161 537.877 161H410.933C402.649 161 395.933 154.284 395.933 146V30.5Z"/>
</mask>
<path d="M395.933 30.5C395.933 29.6716 396.605 29 397.433 29H551.377C552.205 29 552.877 29.6716 552.877 30.5V146C552.877 154.284 546.161 161 537.877 161H410.933C402.649 161 395.933 154.284 395.933 146V30.5Z" fill="url(#paint1_linear_345_10204)"/>
<path d="M395.933 30.5C395.933 18.902 405.335 9.5 416.933 9.5H531.877C543.475 9.5 552.877 18.902 552.877 30.5V48.5C552.877 48.5 552.205 48.5 551.377 48.5H397.433C396.605 48.5 395.933 48.5 395.933 48.5V30.5ZM552.877 161H395.933H552.877ZM395.933 161V29V161ZM552.877 29V161V29Z" fill="#507FFF" mask="url(#path-7-outside-2_345_10204)"/>
<path d="M453.874 76.15C459.273 86.602 468.868 94.8861 480.779 99.38L482.692 100.138C484.81 100.976 487.193 101.123 489.42 100.552C491.648 99.9822 493.578 98.7312 494.87 97.02L497.371 93.71C497.762 93.1909 497.92 92.5604 497.815 91.9427C497.709 91.3249 497.347 90.7648 496.8 90.3725L488.328 84.2975C488.033 84.0861 487.693 83.9298 487.328 83.8382C486.964 83.7465 486.582 83.7212 486.206 83.764C485.83 83.8067 485.468 83.9165 485.141 84.0868C484.814 84.2571 484.529 84.4844 484.303 84.755L481.682 87.8975C474.953 84.9436 469.506 80.1015 466.184 74.12L469.717 71.79C470.022 71.5894 470.277 71.3362 470.469 71.0456C470.66 70.7549 470.784 70.4329 470.832 70.0988C470.88 69.7646 470.852 69.4253 470.749 69.1012C470.645 68.777 470.47 68.4748 470.232 68.2125L463.397 60.6825C462.956 60.1962 462.326 59.8743 461.631 59.7804C460.936 59.6864 460.226 59.8272 459.642 60.175L455.893 62.41C453.956 63.5645 452.543 65.2926 451.906 67.2864C451.269 69.2803 451.449 71.4105 452.414 73.2975L453.874 76.15Z" fill="#FAFAFA"/>
<path d="M459.643 139.825C458.782 142.366 456.619 143.71 453.91 143.71C449.899 143.71 447.379 140.98 447.379 136.57C447.379 132.16 449.92 129.43 453.889 129.43C456.64 129.43 458.593 130.585 459.433 132.832L457.312 133.777C456.766 132.139 455.737 131.383 454.015 131.383C451.432 131.383 449.731 133.273 449.731 136.57C449.731 139.846 451.306 141.757 453.931 141.757C455.695 141.757 456.976 140.875 457.501 139.111L459.643 139.825ZM472.697 143.5L471.395 139.867H465.557L464.234 143.5H461.924L467.153 129.64H469.841L475.07 143.5H472.697ZM466.208 138.04H470.723L469.127 133.588L468.497 131.593H468.434L467.846 133.546L466.208 138.04ZM480.824 141.568H488.468V143.5H478.577V129.64H480.824V141.568ZM494.446 141.568H502.09V143.5H492.199V129.64H494.446V141.568Z" fill="white"/>
<mask id="path-11-outside-3_345_10204" maskUnits="userSpaceOnUse" x="624.851" y="8" width="191" height="152" fill="black">
<rect fill="white" x="624.851" y="8" width="191" height="152"/>
<path d="M624.851 29.5C624.851 28.6716 625.523 28 626.351 28H814.283C815.111 28 815.783 28.6716 815.783 29.5V145C815.783 153.284 809.067 160 800.783 160H639.851C631.567 160 624.851 153.284 624.851 145V29.5Z"/>
</mask>
<path d="M624.851 29.5C624.851 28.6716 625.523 28 626.351 28H814.283C815.111 28 815.783 28.6716 815.783 29.5V145C815.783 153.284 809.067 160 800.783 160H639.851C631.567 160 624.851 153.284 624.851 145V29.5Z" fill="url(#paint2_linear_345_10204)"/>
<path d="M624.851 29.5C624.851 17.902 634.253 8.5 645.851 8.5H794.783C806.381 8.5 815.783 17.902 815.783 29.5V47.5C815.783 47.5 815.111 47.5 814.283 47.5H626.351C625.523 47.5 624.851 47.5 624.851 47.5V29.5ZM815.783 160H624.851H815.783ZM624.851 160V28V160ZM815.783 28V160V28Z" fill="white" mask="url(#path-11-outside-3_345_10204)"/>
<g clip-path="url(#clip0_345_10204)">
<path d="M746.571 79.7061C746.571 81.2723 745.203 82.4992 743.652 82.4992H740.733L740.797 96.4385C740.797 96.6734 740.779 96.9083 740.751 97.1433V98.5441C740.751 100.467 739.118 102.025 737.102 102.025H735.643C735.542 102.025 735.442 102.025 735.342 102.016C735.214 102.025 735.086 102.025 734.958 102.025H729.804C727.788 102.025 726.155 100.467 726.155 98.5441V90.8871C726.155 89.347 724.851 88.1027 723.236 88.1027H717.398C715.783 88.1027 714.478 89.347 714.478 90.8871V98.5441C714.478 100.467 712.845 102.025 710.829 102.025H705.73C705.593 102.025 705.456 102.016 705.319 102.007C705.21 102.016 705.1 102.025 704.991 102.025H703.531C701.515 102.025 699.882 100.467 699.882 98.5441V88.7988C699.882 88.7205 699.882 88.6335 699.891 88.5552V82.4992H696.963C695.321 82.4992 694.044 81.281 694.044 79.7061C694.044 78.923 694.318 78.2269 694.956 77.6178L718.346 58.1707C718.985 57.5616 719.715 57.4746 720.353 57.4746C720.992 57.4746 721.722 57.6486 722.269 58.0837L745.568 77.6178C746.298 78.2269 746.663 78.923 746.571 79.7061Z" fill="#FAFAFA"/>
</g>
<path d="M698.516 128.64H700.784V142.5H698.516V136.452H691.67V142.5H689.423V128.64H691.67V134.52H698.516V128.64ZM711.69 128.43C715.722 128.43 718.242 131.16 718.242 135.57C718.242 139.98 715.722 142.71 711.69 142.71C707.679 142.71 705.159 139.98 705.159 135.57C705.159 131.16 707.679 128.43 711.69 128.43ZM711.69 130.383C709.086 130.383 707.511 132.273 707.511 135.57C707.511 138.867 709.086 140.757 711.69 140.757C714.315 140.757 715.89 138.867 715.89 135.57C715.89 132.273 714.315 130.383 711.69 130.383ZM736.808 128.64V142.5H734.75V134.478L734.897 130.656H734.876L730.655 142.5H728.786L724.565 130.656H724.544L724.712 134.478V142.5H722.633V128.64H725.972L728.765 136.662L729.731 139.959H729.773L730.76 136.662L733.532 128.64H736.808ZM744.223 140.568H752.308V142.5H741.976V128.64H752.014V130.572H744.223V134.562H750.313V136.452H744.223V140.568Z" fill="white"/>
<mask id="path-15-outside-4_345_10204" maskUnits="userSpaceOnUse" x="887.757" y="8" width="157" height="152" fill="black">
<rect fill="white" x="887.757" y="8" width="157" height="152"/>
<path d="M887.757 29.5C887.757 28.6716 888.429 28 889.257 28H1043.2C1044.03 28 1044.7 28.6716 1044.7 29.5V145C1044.7 153.284 1037.99 160 1029.7 160H902.757C894.473 160 887.757 153.284 887.757 145V29.5Z"/>
</mask>
<path d="M887.757 29.5C887.757 28.6716 888.429 28 889.257 28H1043.2C1044.03 28 1044.7 28.6716 1044.7 29.5V145C1044.7 153.284 1037.99 160 1029.7 160H902.757C894.473 160 887.757 153.284 887.757 145V29.5Z" fill="url(#paint3_linear_345_10204)"/>
<path d="M887.757 29.5C887.757 17.902 897.159 8.5 908.757 8.5H1023.7C1035.3 8.5 1044.7 17.902 1044.7 29.5V47.5C1044.7 47.5 1044.03 47.5 1043.2 47.5H889.257C888.429 47.5 887.757 47.5 887.757 47.5V29.5ZM1044.7 160H887.757H1044.7ZM887.757 160V28V160ZM1044.7 28V160V28Z" fill="#E4842B" mask="url(#path-15-outside-4_345_10204)"/>
<path d="M988.167 61.75V89.875C988.167 91.9636 987.234 93.9666 985.573 95.4435C983.911 96.9203 981.658 97.75 979.308 97.75C976.958 97.75 974.704 96.9203 973.043 95.4435C971.381 93.9666 970.448 91.9636 970.448 89.875C970.448 87.7864 971.381 85.7834 973.043 84.3065C974.704 82.8297 976.958 82 979.308 82C980.675 82 981.966 82.27 983.105 82.765V69.5575L957.791 74.35V94.375C957.791 96.4636 956.858 98.4666 955.196 99.9435C953.535 101.42 951.281 102.25 948.932 102.25C946.582 102.25 944.328 101.42 942.667 99.9435C941.005 98.4666 940.072 96.4636 940.072 94.375C940.072 92.2864 941.005 90.2834 942.667 88.8065C944.328 87.3297 946.582 86.5 948.932 86.5C950.298 86.5 951.589 86.77 952.729 87.265V68.5L988.167 61.75Z" fill="#FAFAFA"/>
<path d="M942.489 142.5L941.187 138.867H935.349L934.026 142.5H931.716L936.945 128.64H939.633L944.862 142.5H942.489ZM936 137.04H940.515L938.919 132.588L938.289 130.593H938.226L937.638 132.546L936 137.04ZM959.029 128.64V137.187C959.029 140.862 957.034 142.71 953.359 142.71C949.684 142.71 947.689 140.862 947.689 137.187V128.64H949.957V136.914C949.957 139.539 951.028 140.757 953.359 140.757C955.69 140.757 956.761 139.539 956.761 136.914V128.64H959.029ZM968.894 128.64C973.241 128.64 975.782 131.118 975.782 135.57C975.782 140.022 973.241 142.5 968.894 142.5H964.001V128.64H968.894ZM968.894 140.589C971.813 140.589 973.43 138.762 973.43 135.57C973.43 132.378 971.813 130.551 968.894 130.551H966.248V140.589H968.894ZM982.412 128.64V142.5H980.165V128.64H982.412ZM993.327 128.43C997.359 128.43 999.879 131.16 999.879 135.57C999.879 139.98 997.359 142.71 993.327 142.71C989.316 142.71 986.796 139.98 986.796 135.57C986.796 131.16 989.316 128.43 993.327 128.43ZM993.327 130.383C990.723 130.383 989.148 132.273 989.148 135.57C989.148 138.867 990.723 140.757 993.327 140.757C995.952 140.757 997.527 138.867 997.527 135.57C997.527 132.273 995.952 130.383 993.327 130.383Z" fill="white"/>
<mask id="path-19-outside-5_345_10204" maskUnits="userSpaceOnUse" x="1074.69" y="8" width="157" height="152" fill="black">
<rect fill="white" x="1074.69" y="8" width="157" height="152"/>
<path d="M1074.69 29.5C1074.69 28.6716 1075.36 28 1076.19 28H1230.13C1230.96 28 1231.63 28.6716 1231.63 29.5V145C1231.63 153.284 1224.92 160 1216.63 160H1089.69C1081.41 160 1074.69 153.284 1074.69 145V29.5Z"/>
</mask>
<path d="M1074.69 29.5C1074.69 28.6716 1075.36 28 1076.19 28H1230.13C1230.96 28 1231.63 28.6716 1231.63 29.5V145C1231.63 153.284 1224.92 160 1216.63 160H1089.69C1081.41 160 1074.69 153.284 1074.69 145V29.5Z" fill="url(#paint4_linear_345_10204)"/>
<path d="M1074.69 29.5C1074.69 17.902 1084.09 8.5 1095.69 8.5H1210.63C1222.23 8.5 1231.63 17.902 1231.63 29.5V47.5C1231.63 47.5 1230.96 47.5 1230.13 47.5H1076.19C1075.36 47.5 1074.69 47.5 1074.69 47.5V29.5ZM1231.63 160H1074.69H1231.63ZM1074.69 160V28V160ZM1231.63 28V160V28Z" fill="#8947EA" mask="url(#path-19-outside-5_345_10204)"/>
<path d="M1165.68 68.6248L1154.22 58.4361C1152.53 56.9398 1149.65 57.9848 1149.65 60.0986V74.7761L1139.25 65.5373C1139 65.3174 1138.71 65.143 1138.39 65.024C1138.06 64.905 1137.72 64.8438 1137.37 64.8438C1137.02 64.8438 1136.67 64.905 1136.35 65.024C1136.03 65.143 1135.73 65.3174 1135.48 65.5373C1135.24 65.7572 1135.04 66.0182 1134.91 66.3055C1134.77 66.5928 1134.7 66.9007 1134.7 67.2117C1134.7 67.5227 1134.77 67.8306 1134.91 68.1179C1135.04 68.4051 1135.24 68.6662 1135.48 68.8861L1148.55 80.4998L1135.48 92.1136C1135.24 92.3334 1135.04 92.5945 1134.91 92.8818C1134.77 93.1691 1134.7 93.477 1134.7 93.7879C1134.7 94.0989 1134.77 94.4068 1134.91 94.6941C1135.04 94.9814 1135.24 95.2424 1135.48 95.4623C1135.73 95.6822 1136.03 95.8566 1136.35 95.9756C1136.67 96.0946 1137.02 96.1559 1137.37 96.1559C1137.72 96.1559 1138.06 96.0946 1138.39 95.9756C1138.71 95.8566 1139 95.6822 1139.25 95.4623L1149.65 86.2236V100.901C1149.65 103.015 1152.53 104.084 1154.22 102.587L1165.68 92.3748C1165.93 92.1551 1166.12 91.8941 1166.26 91.6068C1166.39 91.3195 1166.46 91.0115 1166.46 90.7004C1166.46 90.3894 1166.39 90.0814 1166.26 89.7941C1166.12 89.5068 1165.93 89.2458 1165.68 89.0261L1156.09 80.4998L1165.68 71.9973C1166.72 71.0711 1166.72 69.5511 1165.68 68.6248ZM1154.99 65.8461L1160.01 70.3111L1154.99 74.7761V65.8461ZM1160.01 90.6886L1154.99 95.1536V86.2236L1160.01 90.6886Z" fill="#FAFAFA"/>
<path d="M1114.38 128.43C1116.94 128.43 1118.7 129.354 1119.92 131.244L1118.22 132.777C1117.44 131.118 1116.37 130.383 1114.4 130.383C1112.42 130.383 1111.35 131.265 1111.35 132.441C1111.35 133.554 1112.21 134.142 1114.9 134.625C1118.62 135.276 1119.98 136.431 1119.98 138.657C1119.98 141.135 1117.74 142.71 1114.46 142.71C1111.44 142.71 1109.57 141.618 1108.5 139.896L1110.07 138.321C1110.97 140.001 1112.36 140.757 1114.44 140.757C1116.41 140.757 1117.63 140.064 1117.63 138.783C1117.63 137.796 1116.79 137.229 1114.19 136.746C1110.39 136.032 1108.98 134.877 1108.98 132.672C1108.98 130.32 1111 128.43 1114.38 128.43ZM1129.93 128.43C1133.96 128.43 1136.48 131.16 1136.48 135.57C1136.48 139.98 1133.96 142.71 1129.93 142.71C1125.92 142.71 1123.4 139.98 1123.4 135.57C1123.4 131.16 1125.92 128.43 1129.93 128.43ZM1129.93 130.383C1127.33 130.383 1125.75 132.273 1125.75 135.57C1125.75 138.867 1127.33 140.757 1129.93 140.757C1132.55 140.757 1134.13 138.867 1134.13 135.57C1134.13 132.273 1132.55 130.383 1129.93 130.383ZM1152.02 128.64V137.187C1152.02 140.862 1150.03 142.71 1146.35 142.71C1142.68 142.71 1140.68 140.862 1140.68 137.187V128.64H1142.95V136.914C1142.95 139.539 1144.02 140.757 1146.35 140.757C1148.69 140.757 1149.76 139.539 1149.76 136.914V128.64H1152.02ZM1165.73 142.5L1162.2 136.956H1159.22V142.5H1157V128.64H1162.65C1165.63 128.64 1167.5 130.194 1167.5 132.798C1167.5 134.793 1166.4 136.179 1164.56 136.704L1168.32 142.5H1165.73ZM1159.22 130.551V135.087H1162.46C1164.28 135.087 1165.17 134.352 1165.17 132.819C1165.17 131.286 1164.28 130.551 1162.46 130.551H1159.22ZM1183.52 138.825C1182.66 141.366 1180.5 142.71 1177.79 142.71C1173.78 142.71 1171.26 139.98 1171.26 135.57C1171.26 131.16 1173.8 128.43 1177.77 128.43C1180.52 128.43 1182.47 129.585 1183.31 131.832L1181.19 132.777C1180.64 131.139 1179.61 130.383 1177.89 130.383C1175.31 130.383 1173.61 132.273 1173.61 135.57C1173.61 138.846 1175.18 140.757 1177.81 140.757C1179.57 140.757 1180.85 139.875 1181.38 138.111L1183.52 138.825ZM1189.69 140.568H1197.77V142.5H1187.44V128.64H1197.48V130.572H1189.69V134.562H1195.78V136.452H1189.69V140.568Z" fill="white"/>
<circle cx="1352" cy="85" r="69" fill="url(#paint5_linear_345_10204)"/>
<mask id="mask0_345_10204" style="mask-type:alpha" maskUnits="userSpaceOnUse" x="1298" y="28" width="110" height="110">
<circle cx="1352.75" cy="82.75" r="53.25" stroke="#FAFAFA" stroke-width="3"/>
</mask>
<g mask="url(#mask0_345_10204)">
<rect x="1280" y="11.5" width="148.5" height="67.5" fill="#FAFAFA"/>
</g>
<path d="M1302.08 92.427V94.506H1294.92V92.427H1302.08Z" fill="white"/>
<path d="M1410.17 94.356V96.225H1405.99V100.614H1404.04V96.225H1399.84V94.356H1404.04V89.988H1405.99V94.356H1410.17Z" fill="white"/>
<path d="M1328.66 74.11V85H1327.04V78.697L1327.16 75.694H1327.14L1323.83 85H1322.36L1319.04 75.694H1319.03L1319.16 78.697V85H1317.52V74.11H1320.15L1322.34 80.413L1323.1 83.0035H1323.13L1323.91 80.413L1326.09 74.11H1328.66ZM1334.49 74.11V85H1332.72V74.11H1334.49ZM1347.47 74.11V85H1345.37L1341.17 78.136L1340.11 76.123H1340.09L1340.16 77.971V85H1338.54V74.11H1340.62L1344.81 80.9575L1345.88 82.987H1345.9L1345.84 81.139V74.11H1347.47ZM1353.28 74.11V85H1351.52V74.11H1353.28ZM1368.47 74.11V85H1366.86V78.697L1366.97 75.694H1366.96L1363.64 85H1362.17L1358.85 75.694H1358.84L1358.97 78.697V85H1357.34V74.11H1359.96L1362.15 80.413L1362.91 83.0035H1362.95L1363.72 80.413L1365.9 74.11H1368.47ZM1379.71 85L1378.69 82.1455H1374.1L1373.06 85H1371.25L1375.36 74.11H1377.47L1381.58 85H1379.71ZM1374.61 80.71H1378.16L1376.91 77.212L1376.41 75.6445H1376.36L1375.9 77.179L1374.61 80.71ZM1386.1 83.482H1392.1V85H1384.33V74.11H1386.1V83.482Z" fill="white"/>
<path d="M1352.6 116.365C1351.2 116.365 1349.86 115.81 1348.88 114.823C1347.89 113.836 1347.34 112.496 1347.34 111.1C1347.34 109.704 1347.89 108.365 1348.88 107.377C1349.86 106.39 1351.2 105.835 1352.6 105.835C1354 105.835 1355.34 106.39 1356.32 107.377C1357.31 108.365 1357.87 109.704 1357.87 111.1C1357.87 112.496 1357.31 113.836 1356.32 114.823C1355.34 115.81 1354 116.365 1352.6 116.365ZM1352.6 118.12C1354.46 118.12 1356.25 117.38 1357.56 116.064C1358.88 114.747 1359.62 112.962 1359.62 111.1C1359.62 109.238 1358.88 107.453 1357.56 106.136C1356.25 104.82 1354.46 104.08 1352.6 104.08C1350.74 104.08 1348.95 104.82 1347.64 106.136C1346.32 107.453 1345.58 109.238 1345.58 111.1C1345.58 112.962 1346.32 114.747 1347.64 116.064C1348.95 117.38 1350.74 118.12 1352.6 118.12ZM1352.6 97.0601C1352.83 97.0601 1353.06 97.1525 1353.22 97.3171C1353.39 97.4816 1353.48 97.7048 1353.48 97.9376V101.448C1353.48 101.68 1353.39 101.903 1353.22 102.068C1353.06 102.233 1352.83 102.325 1352.6 102.325C1352.37 102.325 1352.14 102.233 1351.98 102.068C1351.82 101.903 1351.72 101.68 1351.72 101.448V97.9376C1351.72 97.7048 1351.82 97.4816 1351.98 97.3171C1352.14 97.1525 1352.37 97.0601 1352.6 97.0601ZM1352.6 119.875C1352.83 119.875 1353.06 119.968 1353.22 120.132C1353.39 120.297 1353.48 120.52 1353.48 120.753V124.263C1353.48 124.495 1353.39 124.718 1353.22 124.883C1353.06 125.048 1352.83 125.14 1352.6 125.14C1352.37 125.14 1352.14 125.048 1351.98 124.883C1351.82 124.718 1351.72 124.495 1351.72 124.263V120.753C1351.72 120.52 1351.82 120.297 1351.98 120.132C1352.14 119.968 1352.37 119.875 1352.6 119.875ZM1366.64 111.1C1366.64 111.333 1366.55 111.556 1366.38 111.721C1366.22 111.885 1366 111.978 1365.76 111.978H1362.25C1362.02 111.978 1361.8 111.885 1361.63 111.721C1361.47 111.556 1361.38 111.333 1361.38 111.1C1361.38 110.867 1361.47 110.644 1361.63 110.48C1361.8 110.315 1362.02 110.223 1362.25 110.223H1365.76C1366 110.223 1366.22 110.315 1366.38 110.48C1366.55 110.644 1366.64 110.867 1366.64 111.1ZM1343.83 111.1C1343.83 111.333 1343.73 111.556 1343.57 111.721C1343.4 111.885 1343.18 111.978 1342.95 111.978H1339.44C1339.2 111.978 1338.98 111.885 1338.82 111.721C1338.65 111.556 1338.56 111.333 1338.56 111.1C1338.56 110.867 1338.65 110.644 1338.82 110.48C1338.98 110.315 1339.2 110.223 1339.44 110.223H1342.95C1343.18 110.223 1343.4 110.315 1343.57 110.48C1343.73 110.644 1343.83 110.867 1343.83 111.1ZM1362.53 101.172C1362.69 101.337 1362.79 101.56 1362.79 101.792C1362.79 102.025 1362.69 102.248 1362.53 102.413L1360.05 104.896C1359.96 104.978 1359.87 105.042 1359.76 105.086C1359.65 105.13 1359.54 105.153 1359.43 105.153C1359.19 105.153 1358.97 105.06 1358.8 104.895C1358.72 104.814 1358.66 104.717 1358.61 104.61C1358.57 104.504 1358.55 104.39 1358.55 104.274C1358.55 104.041 1358.64 103.818 1358.81 103.654L1361.29 101.172C1361.45 101.008 1361.68 100.915 1361.91 100.915C1362.14 100.915 1362.36 101.008 1362.53 101.172ZM1346.39 117.306C1346.56 117.47 1346.65 117.693 1346.65 117.926C1346.65 118.159 1346.56 118.382 1346.39 118.547L1343.91 121.028C1343.75 121.188 1343.53 121.276 1343.3 121.274C1343.07 121.272 1342.85 121.18 1342.68 121.017C1342.52 120.855 1342.43 120.635 1342.43 120.405C1342.42 120.174 1342.51 119.953 1342.67 119.787L1345.15 117.306C1345.32 117.141 1345.54 117.049 1345.77 117.049C1346.01 117.049 1346.23 117.141 1346.39 117.306ZM1362.53 121.028C1362.36 121.193 1362.14 121.285 1361.91 121.285C1361.68 121.285 1361.45 121.193 1361.29 121.028L1358.81 118.547C1358.65 118.381 1358.56 118.159 1358.56 117.929C1358.56 117.699 1358.65 117.479 1358.82 117.316C1358.98 117.154 1359.2 117.061 1359.43 117.059C1359.66 117.057 1359.88 117.146 1360.05 117.306L1362.53 119.787C1362.69 119.952 1362.79 120.175 1362.79 120.408C1362.79 120.64 1362.69 120.864 1362.53 121.028ZM1346.39 104.896C1346.23 105.061 1346.01 105.153 1345.77 105.153C1345.54 105.153 1345.32 105.061 1345.15 104.896L1342.67 102.413C1342.59 102.332 1342.52 102.235 1342.48 102.128C1342.43 102.021 1342.41 101.906 1342.4 101.789C1342.4 101.673 1342.43 101.557 1342.47 101.449C1342.51 101.342 1342.58 101.244 1342.66 101.161C1342.74 101.079 1342.84 101.014 1342.95 100.969C1343.06 100.925 1343.17 100.903 1343.29 100.904C1343.41 100.905 1343.52 100.929 1343.63 100.975C1343.74 101.021 1343.83 101.088 1343.91 101.172L1346.39 103.654C1346.48 103.735 1346.54 103.832 1346.59 103.939C1346.63 104.045 1346.65 104.159 1346.65 104.275C1346.65 104.39 1346.63 104.505 1346.59 104.611C1346.54 104.718 1346.48 104.815 1346.39 104.896Z" fill="#FFFBFB"/>
<g clip-path="url(#clip1_345_10204)">
<path d="M1352.6 117.242V104.957L1357.86 107.59C1358.45 108.76 1359.27 111.802 1357.86 114.61C1356.46 117.418 1353.77 117.535 1352.6 117.242Z" fill="#FAFAFA"/>
</g>
<circle cx="91" cy="85" r="69" fill="url(#paint6_linear_345_10204)"/>
<mask id="mask1_345_10204" style="mask-type:alpha" maskUnits="userSpaceOnUse" x="35" y="26" width="110" height="110">
<circle cx="90.25" cy="81.25" r="53.25" stroke="#FAFAFA" stroke-width="3"/>
</mask>
<g mask="url(#mask1_345_10204)">
<rect x="17.5" y="10" width="148.5" height="67.5" fill="#FAFAFA"/>
</g>
<path d="M82.3298 70.63L77.5523 83.5H75.1148L70.3373 70.63H72.5603L75.5633 79.1905L76.3433 81.745L77.1233 79.21L80.1263 70.63H82.3298ZM90.6676 70.435C91.9156 70.435 92.9946 70.7015 93.9046 71.2345C94.8146 71.7675 95.5166 72.528 96.0106 73.516C96.5046 74.504 96.7516 75.687 96.7516 77.065C96.7516 78.443 96.5046 79.626 96.0106 80.614C95.5166 81.602 94.8146 82.3625 93.9046 82.8955C92.9946 83.4285 91.9156 83.695 90.6676 83.695C89.4326 83.695 88.3601 83.4285 87.4501 82.8955C86.5401 82.3625 85.8381 81.602 85.3441 80.614C84.8501 79.626 84.6031 78.443 84.6031 77.065C84.6031 75.687 84.8501 74.504 85.3441 73.516C85.8381 72.528 86.5401 71.7675 87.4501 71.2345C88.3601 70.7015 89.4326 70.435 90.6676 70.435ZM90.6676 72.2485C89.8616 72.2485 89.1661 72.437 88.5811 72.814C88.0091 73.191 87.5671 73.737 87.2551 74.452C86.9431 75.167 86.7871 76.038 86.7871 77.065C86.7871 78.079 86.9431 78.95 87.2551 79.678C87.5671 80.393 88.0091 80.939 88.5811 81.316C89.1661 81.693 89.8616 81.8815 90.6676 81.8815C91.4866 81.8815 92.1821 81.693 92.7541 81.316C93.3391 80.939 93.7876 80.393 94.0996 79.678C94.4116 78.95 94.5676 78.079 94.5676 77.065C94.5676 76.038 94.4116 75.167 94.0996 74.452C93.7876 73.737 93.3391 73.191 92.7541 72.814C92.1821 72.437 91.4866 72.2485 90.6676 72.2485ZM102.916 81.706H110.014V83.5H100.829V70.63H102.916V81.706Z" fill="white"/>
<path d="M41.0842 89.427V91.506H33.9232V89.427H41.0842Z" fill="white"/>
<path d="M144.992 86.988V97.614H143.039V86.988H144.992ZM149.171 91.356V93.225H138.839V91.356H149.171Z" fill="white"/>
<g clip-path="url(#clip2_345_10204)">
<path d="M90.6668 113.106C90.373 113.106 90.1269 113.005 89.9285 112.805C89.73 112.605 89.6305 112.357 89.6298 112.062V103.711C89.6298 103.415 89.7293 103.167 89.9285 102.968C90.1276 102.768 90.3737 102.668 90.6668 102.667C90.9607 102.667 91.2071 102.767 91.4062 102.968C91.6053 103.168 91.7046 103.416 91.7039 103.711V112.062C91.7039 112.357 91.6043 112.606 91.4052 112.806C91.2061 113.006 90.96 113.106 90.6668 113.106ZM90.6668 122.5C89.3705 122.5 88.1565 122.253 87.0248 121.757C85.893 121.262 84.9078 120.592 84.0692 119.748C83.2306 118.904 82.5652 117.912 82.0729 116.773C81.5807 115.633 81.3342 114.411 81.3335 113.106C81.3335 112.044 81.5063 111.013 81.852 110.013C82.1977 109.012 82.6989 108.094 83.3557 107.26C83.5458 107.016 83.7878 106.899 84.0816 106.908C84.3755 106.917 84.6347 107.035 84.8594 107.26C85.0495 107.451 85.136 107.686 85.1187 107.965C85.1014 108.243 85.0063 108.504 84.8335 108.747C84.3668 109.374 84.0125 110.061 83.7705 110.809C83.5286 111.557 83.4076 112.323 83.4076 113.106C83.4076 115.141 84.1121 116.868 85.5211 118.286C86.93 119.705 88.6453 120.413 90.6668 120.413C92.6891 120.413 94.4047 119.704 95.8136 118.286C97.2226 116.869 97.9268 115.142 97.9261 113.106C97.9261 112.305 97.8096 111.527 97.5766 110.769C97.3436 110.012 96.9762 109.321 96.4742 108.695C96.3014 108.469 96.2063 108.221 96.1891 107.952C96.1718 107.683 96.2582 107.452 96.4483 107.26C96.6557 107.051 96.9063 106.943 97.2002 106.934C97.494 106.926 97.736 107.035 97.9261 107.26C98.6002 108.095 99.1145 109.008 99.4692 110C99.8239 110.992 100.001 112.027 100 113.106C100 114.41 99.754 115.633 99.2618 116.773C98.7695 117.913 98.1041 118.904 97.2655 119.748C96.4269 120.591 95.4417 121.261 94.3099 121.757C93.1782 122.253 91.9638 122.501 90.6668 122.5Z" fill="#FAFAFA"/>
</g>
<defs>
<linearGradient id="paint0_linear_345_10204" x1="287.472" y1="29" x2="287.472" y2="161" gradientUnits="userSpaceOnUse">
<stop stop-color="#393939"/>
<stop offset="1" stop-color="#2B2B2B"/>
</linearGradient>
<linearGradient id="paint1_linear_345_10204" x1="474.405" y1="29" x2="474.405" y2="161" gradientUnits="userSpaceOnUse">
<stop stop-color="#393939"/>
<stop offset="1" stop-color="#2B2B2B"/>
</linearGradient>
<linearGradient id="paint2_linear_345_10204" x1="720.317" y1="28" x2="720.317" y2="160" gradientUnits="userSpaceOnUse">
<stop stop-color="#393939"/>
<stop offset="1" stop-color="#2B2B2B"/>
</linearGradient>
<linearGradient id="paint3_linear_345_10204" x1="966.229" y1="28" x2="966.229" y2="160" gradientUnits="userSpaceOnUse">
<stop stop-color="#393939"/>
<stop offset="1" stop-color="#2B2B2B"/>
</linearGradient>
<linearGradient id="paint4_linear_345_10204" x1="1153.16" y1="28" x2="1153.16" y2="160" gradientUnits="userSpaceOnUse">
<stop stop-color="#393939"/>
<stop offset="1" stop-color="#2B2B2B"/>
</linearGradient>
<linearGradient id="paint5_linear_345_10204" x1="1352" y1="16" x2="1352" y2="154" gradientUnits="userSpaceOnUse">
<stop stop-color="#393939"/>
<stop offset="1" stop-color="#2B2B2B"/>
</linearGradient>
<linearGradient id="paint6_linear_345_10204" x1="91" y1="16" x2="91" y2="154" gradientUnits="userSpaceOnUse">
<stop stop-color="#393939"/>
<stop offset="1" stop-color="#2B2B2B"/>
</linearGradient>
<clipPath id="clip0_345_10204">
<rect width="52.5457" height="44.55" fill="white" transform="translate(694.044 57.4746)"/>
</clipPath>
<clipPath id="clip1_345_10204">
<rect width="19.305" height="19.305" fill="white" transform="translate(1343.82 97.0601)"/>
</clipPath>
<clipPath id="clip2_345_10204">
<rect width="21" height="21" fill="white" transform="translate(79 101.5)"/>
</clipPath>
</defs>
</svg>
