<svg width="1399" height="1048" viewBox="0 0 1399 1048" fill="none" xmlns="http://www.w3.org/2000/svg">
<g clip-path="url(#clip0_20_3285)">
<rect width="1399" height="1048" fill="#1F1F1F"/>
<g filter="url(#filter0_d_20_3285)">
<rect x="163.5" y="570" width="1074" height="316.5" rx="30" fill="url(#paint0_linear_20_3285)"/>
</g>
<path d="M628.316 629.806L641.357 629.806L641.357 632.394L625.556 632.394L625.556 609.624L628.316 609.624L628.316 629.806ZM651.531 632.739C650.427 632.739 649.381 632.532 648.392 632.118C647.426 631.704 646.632 631.037 646.011 630.117C645.413 629.174 645.114 627.955 645.114 626.46L645.114 615.144L647.874 615.144L647.874 625.735C647.874 627.483 648.254 628.691 649.013 629.358C649.772 630.002 650.841 630.324 652.221 630.324C652.865 630.324 653.498 630.22 654.119 630.013C654.74 629.783 655.292 629.438 655.775 628.978C656.281 628.495 656.672 627.886 656.948 627.15C657.247 626.414 657.396 625.54 657.396 624.528L657.396 615.144L660.156 615.144L660.156 632.394L657.741 632.394L657.569 629.772C656.971 630.807 656.154 631.566 655.119 632.049C654.107 632.509 652.911 632.739 651.531 632.739ZM672.79 632.739C671.111 632.739 669.558 632.382 668.132 631.669C666.729 630.956 665.648 629.944 664.889 628.633L667.235 626.943C667.741 628.001 668.477 628.829 669.443 629.427C670.432 630.025 671.617 630.324 672.997 630.324C674.216 630.324 675.17 630.094 675.86 629.634C676.55 629.151 676.895 628.53 676.895 627.771C676.895 627.288 676.734 626.851 676.412 626.46C676.113 626.046 675.527 625.747 674.653 625.563L670.513 624.7C668.834 624.355 667.626 623.78 666.89 622.975C666.177 622.17 665.821 621.17 665.821 619.974C665.821 619.031 666.085 618.168 666.614 617.386C667.166 616.604 667.937 615.983 668.926 615.523C669.938 615.04 671.122 614.799 672.479 614.799C674.181 614.799 675.619 615.132 676.792 615.799C677.965 616.466 678.839 617.409 679.414 618.628L677.102 620.146C676.711 619.134 676.079 618.398 675.205 617.938C674.331 617.455 673.422 617.214 672.479 617.214C671.651 617.214 670.938 617.329 670.34 617.559C669.765 617.789 669.317 618.111 668.995 618.525C668.696 618.916 668.546 619.364 668.546 619.87C668.546 620.376 668.719 620.848 669.064 621.285C669.409 621.699 670.053 621.998 670.996 622.182L675.308 623.079C676.918 623.401 678.045 623.93 678.689 624.666C679.333 625.402 679.655 626.299 679.655 627.357C679.655 628.438 679.368 629.392 678.793 630.22C678.218 631.025 677.413 631.646 676.378 632.083C675.343 632.52 674.147 632.739 672.79 632.739ZM684.773 632.394L684.773 607.209L687.533 607.209L687.533 617.731C688.131 616.696 688.925 615.949 689.914 615.489C690.903 615.029 691.984 614.799 693.157 614.799C694.399 614.799 695.526 615.04 696.538 615.523C697.55 615.983 698.355 616.696 698.953 617.662C699.574 618.628 699.884 619.859 699.884 621.354L699.884 632.394L697.124 632.394L697.124 622.32C697.124 620.411 696.71 619.088 695.882 618.352C695.077 617.593 694.077 617.214 692.881 617.214C692.053 617.214 691.225 617.409 690.397 617.8C689.569 618.191 688.879 618.835 688.327 619.732C687.798 620.606 687.533 621.779 687.533 623.251L687.533 632.394L684.773 632.394ZM721.169 629.806L734.21 629.806L734.21 632.394L718.409 632.394L718.409 609.624L721.169 609.624L721.169 629.806ZM739.891 611.832C739.27 611.832 738.764 611.648 738.373 611.28C738.005 610.889 737.821 610.383 737.821 609.762C737.821 609.141 738.005 608.646 738.373 608.278C738.764 607.887 739.27 607.692 739.891 607.692C740.512 607.692 741.007 607.887 741.375 608.278C741.766 608.646 741.961 609.141 741.961 609.762C741.961 610.383 741.766 610.889 741.375 611.28C741.007 611.648 740.512 611.832 739.891 611.832ZM741.271 615.144L741.271 632.394L738.511 632.394L738.511 615.144L741.271 615.144ZM754.679 607.036C755.277 607.036 755.84 607.105 756.369 607.243C756.898 607.381 757.312 607.577 757.611 607.83L756.887 610.072C756.611 609.888 756.312 609.762 755.99 609.693C755.668 609.601 755.311 609.555 754.92 609.555C753.931 609.555 753.161 609.796 752.609 610.279C752.057 610.739 751.781 611.487 751.781 612.522L751.781 615.144L751.781 616.041L751.781 632.394L749.021 632.394L749.021 612.246C749.021 611.487 749.136 610.785 749.366 610.141C749.596 609.497 749.941 608.945 750.401 608.485C750.884 608.025 751.482 607.669 752.195 607.416C752.908 607.163 753.736 607.036 754.679 607.036ZM757.542 615.144L757.542 617.524L745.571 617.524L745.571 615.144L757.542 615.144ZM767.958 632.739C766.325 632.739 764.864 632.382 763.576 631.669C762.311 630.956 761.322 629.933 760.609 628.599C759.896 627.242 759.54 625.632 759.54 623.769C759.54 621.906 759.896 620.307 760.609 618.973C761.322 617.616 762.3 616.581 763.542 615.868C764.784 615.155 766.198 614.799 767.785 614.799C769.395 614.799 770.764 615.144 771.891 615.834C773.041 616.524 773.915 617.467 774.513 618.663C775.111 619.836 775.41 621.158 775.41 622.63C775.41 623.021 775.398 623.378 775.375 623.7C775.352 624.022 775.318 624.309 775.272 624.562L761.334 624.562L761.334 622.113L774.064 622.113L772.65 622.389C772.65 620.733 772.19 619.456 771.27 618.559C770.373 617.662 769.188 617.214 767.716 617.214C766.589 617.214 765.612 617.478 764.784 618.007C763.979 618.513 763.346 619.261 762.886 620.25C762.449 621.216 762.231 622.389 762.231 623.769C762.231 625.126 762.461 626.299 762.921 627.288C763.381 628.277 764.025 629.036 764.853 629.565C765.704 630.071 766.716 630.324 767.889 630.324C769.154 630.324 770.177 630.082 770.959 629.599C771.764 629.116 772.408 628.461 772.891 627.633L775.065 628.909C774.628 629.691 774.064 630.37 773.374 630.945C772.707 631.52 771.914 631.968 770.994 632.29C770.097 632.589 769.085 632.739 767.958 632.739Z" fill="#FAFAFA"/>
<path d="M608.998 671.014L608.578 670.144L622.408 670.144L622.408 672.394L606.838 672.394L606.838 670.264L619.858 653.974L620.278 654.844L607.138 654.844L607.138 652.594L622.018 652.594L622.018 654.724L608.998 671.014ZM635.604 662.704C635.604 661.584 635.304 660.724 634.704 660.124C634.104 659.504 633.254 659.194 632.154 659.194C631.114 659.194 630.234 659.424 629.514 659.884C628.794 660.324 628.264 661.044 627.924 662.044L625.974 660.844C626.374 659.724 627.114 658.824 628.194 658.144C629.274 657.444 630.614 657.094 632.214 657.094C633.294 657.094 634.274 657.284 635.154 657.664C636.034 658.024 636.724 658.584 637.224 659.344C637.744 660.084 638.004 661.044 638.004 662.224L638.004 669.484C638.004 670.204 638.384 670.564 639.144 670.564C639.524 670.564 639.894 670.514 640.254 670.414L640.134 672.304C639.734 672.504 639.214 672.604 638.574 672.604C637.994 672.604 637.474 672.494 637.014 672.274C636.554 672.054 636.194 671.724 635.934 671.284C635.674 670.824 635.544 670.254 635.544 669.574L635.544 669.274L636.144 669.364C635.904 670.144 635.494 670.784 634.914 671.284C634.334 671.764 633.684 672.124 632.964 672.364C632.244 672.584 631.534 672.694 630.834 672.694C629.954 672.694 629.134 672.544 628.374 672.244C627.614 671.944 627.004 671.494 626.544 670.894C626.104 670.274 625.884 669.514 625.884 668.614C625.884 667.494 626.254 666.574 626.994 665.854C627.754 665.114 628.804 664.614 630.144 664.354L636.084 663.184L636.084 665.164L631.254 666.154C630.274 666.354 629.544 666.634 629.064 666.994C628.584 667.354 628.344 667.854 628.344 668.494C628.344 669.114 628.584 669.624 629.064 670.024C629.564 670.404 630.264 670.594 631.164 670.594C631.744 670.594 632.294 670.524 632.814 670.384C633.354 670.224 633.834 669.994 634.254 669.694C634.674 669.374 635.004 668.984 635.244 668.524C635.484 668.044 635.604 667.484 635.604 666.844L635.604 662.704ZM643.836 672.394L643.836 657.394L645.786 657.394L646.116 659.854C646.536 658.934 647.146 658.244 647.946 657.784C648.766 657.324 649.756 657.094 650.916 657.094C651.176 657.094 651.456 657.114 651.756 657.154C652.076 657.194 652.346 657.274 652.566 657.394L652.146 659.584C651.926 659.504 651.686 659.444 651.426 659.404C651.166 659.364 650.796 659.344 650.316 659.344C649.696 659.344 649.066 659.524 648.426 659.884C647.806 660.244 647.286 660.794 646.866 661.534C646.446 662.254 646.236 663.174 646.236 664.294L646.236 672.394L643.836 672.394ZM664.432 662.704C664.432 661.584 664.132 660.724 663.532 660.124C662.932 659.504 662.082 659.194 660.982 659.194C659.942 659.194 659.062 659.424 658.342 659.884C657.622 660.324 657.092 661.044 656.752 662.044L654.802 660.844C655.202 659.724 655.942 658.824 657.022 658.144C658.102 657.444 659.442 657.094 661.042 657.094C662.122 657.094 663.102 657.284 663.982 657.664C664.862 658.024 665.552 658.584 666.052 659.344C666.572 660.084 666.832 661.044 666.832 662.224L666.832 669.484C666.832 670.204 667.212 670.564 667.972 670.564C668.352 670.564 668.722 670.514 669.082 670.414L668.962 672.304C668.562 672.504 668.042 672.604 667.402 672.604C666.822 672.604 666.302 672.494 665.842 672.274C665.382 672.054 665.022 671.724 664.762 671.284C664.502 670.824 664.372 670.254 664.372 669.574L664.372 669.274L664.972 669.364C664.732 670.144 664.322 670.784 663.742 671.284C663.162 671.764 662.512 672.124 661.792 672.364C661.072 672.584 660.362 672.694 659.662 672.694C658.782 672.694 657.962 672.544 657.202 672.244C656.442 671.944 655.832 671.494 655.372 670.894C654.932 670.274 654.712 669.514 654.712 668.614C654.712 667.494 655.082 666.574 655.822 665.854C656.582 665.114 657.632 664.614 658.972 664.354L664.912 663.184L664.912 665.164L660.082 666.154C659.102 666.354 658.372 666.634 657.892 666.994C657.412 667.354 657.172 667.854 657.172 668.494C657.172 669.114 657.412 669.624 657.892 670.024C658.392 670.404 659.092 670.594 659.992 670.594C660.572 670.594 661.122 670.524 661.642 670.384C662.182 670.224 662.662 669.994 663.082 669.694C663.502 669.374 663.832 668.984 664.072 668.524C664.312 668.044 664.432 667.484 664.432 666.844L664.432 662.704ZM685.036 670.144L696.376 670.144L696.376 672.394L682.636 672.394L682.636 652.594L685.036 652.594L685.036 670.144ZM708.876 662.704C708.876 661.584 708.576 660.724 707.976 660.124C707.376 659.504 706.526 659.194 705.426 659.194C704.386 659.194 703.506 659.424 702.786 659.884C702.066 660.324 701.536 661.044 701.196 662.044L699.246 660.844C699.646 659.724 700.386 658.824 701.466 658.144C702.546 657.444 703.886 657.094 705.486 657.094C706.566 657.094 707.546 657.284 708.426 657.664C709.306 658.024 709.996 658.584 710.496 659.344C711.016 660.084 711.276 661.044 711.276 662.224L711.276 669.484C711.276 670.204 711.656 670.564 712.416 670.564C712.796 670.564 713.166 670.514 713.526 670.414L713.406 672.304C713.006 672.504 712.486 672.604 711.846 672.604C711.266 672.604 710.746 672.494 710.286 672.274C709.826 672.054 709.466 671.724 709.206 671.284C708.946 670.824 708.816 670.254 708.816 669.574L708.816 669.274L709.416 669.364C709.176 670.144 708.766 670.784 708.186 671.284C707.606 671.764 706.956 672.124 706.236 672.364C705.516 672.584 704.806 672.694 704.106 672.694C703.226 672.694 702.406 672.544 701.646 672.244C700.886 671.944 700.276 671.494 699.816 670.894C699.376 670.274 699.156 669.514 699.156 668.614C699.156 667.494 699.526 666.574 700.266 665.854C701.026 665.114 702.076 664.614 703.416 664.354L709.356 663.184L709.356 665.164L704.526 666.154C703.546 666.354 702.816 666.634 702.336 666.994C701.856 667.354 701.616 667.854 701.616 668.494C701.616 669.114 701.856 669.624 702.336 670.024C702.836 670.404 703.536 670.594 704.436 670.594C705.016 670.594 705.566 670.524 706.086 670.384C706.626 670.224 707.106 669.994 707.526 669.694C707.946 669.374 708.276 668.984 708.516 668.524C708.756 668.044 708.876 667.484 708.876 666.844L708.876 662.704ZM717.108 672.394L717.108 657.394L719.058 657.394L719.388 659.854C719.808 658.934 720.418 658.244 721.218 657.784C722.038 657.324 723.028 657.094 724.188 657.094C724.448 657.094 724.728 657.114 725.028 657.154C725.348 657.194 725.618 657.274 725.838 657.394L725.418 659.584C725.198 659.504 724.958 659.444 724.698 659.404C724.438 659.364 724.068 659.344 723.588 659.344C722.968 659.344 722.338 659.524 721.698 659.884C721.078 660.244 720.558 660.794 720.138 661.534C719.718 662.254 719.508 663.174 719.508 664.294L719.508 672.394L717.108 672.394ZM734.11 672.694C732.65 672.694 731.3 672.384 730.06 671.764C728.84 671.144 727.9 670.264 727.24 669.124L729.28 667.654C729.72 668.574 730.36 669.294 731.2 669.814C732.06 670.334 733.09 670.594 734.29 670.594C735.35 670.594 736.18 670.394 736.78 669.994C737.38 669.574 737.68 669.034 737.68 668.374C737.68 667.954 737.54 667.574 737.26 667.234C737 666.874 736.49 666.614 735.73 666.454L732.13 665.704C730.67 665.404 729.62 664.904 728.98 664.204C728.36 663.504 728.05 662.634 728.05 661.594C728.05 660.774 728.28 660.024 728.74 659.344C729.22 658.664 729.89 658.124 730.75 657.724C731.63 657.304 732.66 657.094 733.84 657.094C735.32 657.094 736.57 657.384 737.59 657.964C738.61 658.544 739.37 659.364 739.87 660.424L737.86 661.744C737.52 660.864 736.97 660.224 736.21 659.824C735.45 659.404 734.66 659.194 733.84 659.194C733.12 659.194 732.5 659.294 731.98 659.494C731.48 659.694 731.09 659.974 730.81 660.334C730.55 660.674 730.42 661.064 730.42 661.504C730.42 661.944 730.57 662.354 730.87 662.734C731.17 663.094 731.73 663.354 732.55 663.514L736.3 664.294C737.7 664.574 738.68 665.034 739.24 665.674C739.8 666.314 740.08 667.094 740.08 668.014C740.08 668.954 739.83 669.784 739.33 670.504C738.83 671.204 738.13 671.744 737.23 672.124C736.33 672.504 735.29 672.694 734.11 672.694ZM749.93 672.694C748.47 672.694 747.12 672.384 745.88 671.764C744.66 671.144 743.72 670.264 743.06 669.124L745.1 667.654C745.54 668.574 746.18 669.294 747.02 669.814C747.88 670.334 748.91 670.594 750.11 670.594C751.17 670.594 752 670.394 752.6 669.994C753.2 669.574 753.5 669.034 753.5 668.374C753.5 667.954 753.36 667.574 753.08 667.234C752.82 666.874 752.31 666.614 751.55 666.454L747.95 665.704C746.49 665.404 745.44 664.904 744.8 664.204C744.18 663.504 743.87 662.634 743.87 661.594C743.87 660.774 744.1 660.024 744.56 659.344C745.04 658.664 745.71 658.124 746.57 657.724C747.45 657.304 748.48 657.094 749.66 657.094C751.14 657.094 752.39 657.384 753.41 657.964C754.43 658.544 755.19 659.364 755.69 660.424L753.68 661.744C753.34 660.864 752.79 660.224 752.03 659.824C751.27 659.404 750.48 659.194 749.66 659.194C748.94 659.194 748.32 659.294 747.8 659.494C747.3 659.694 746.91 659.974 746.63 660.334C746.37 660.674 746.24 661.064 746.24 661.504C746.24 661.944 746.39 662.354 746.69 662.734C746.99 663.094 747.55 663.354 748.37 663.514L752.12 664.294C753.52 664.574 754.5 665.034 755.06 665.674C755.62 666.314 755.9 667.094 755.9 668.014C755.9 668.954 755.65 669.784 755.15 670.504C754.65 671.204 753.95 671.744 753.05 672.124C752.15 672.504 751.11 672.694 749.93 672.694ZM766.56 657.094C767.98 657.094 769.23 657.404 770.31 658.024C771.41 658.644 772.27 659.544 772.89 660.724C773.51 661.884 773.82 663.274 773.82 664.894C773.82 666.514 773.51 667.914 772.89 669.094C772.27 670.254 771.41 671.144 770.31 671.764C769.23 672.384 767.98 672.694 766.56 672.694C765.16 672.694 763.91 672.384 762.81 671.764C761.71 671.144 760.85 670.254 760.23 669.094C759.61 667.914 759.3 666.514 759.3 664.894C759.3 663.274 759.61 661.884 760.23 660.724C760.85 659.544 761.71 658.644 762.81 658.024C763.91 657.404 765.16 657.094 766.56 657.094ZM766.56 659.164C765.54 659.164 764.67 659.394 763.95 659.854C763.23 660.314 762.67 660.974 762.27 661.834C761.89 662.674 761.7 663.694 761.7 664.894C761.7 666.074 761.89 667.094 762.27 667.954C762.67 668.814 763.23 669.474 763.95 669.934C764.67 670.394 765.54 670.624 766.56 670.624C767.58 670.624 768.45 670.394 769.17 669.934C769.89 669.474 770.44 668.814 770.82 667.954C771.22 667.094 771.42 666.074 771.42 664.894C771.42 663.694 771.22 662.674 770.82 661.834C770.44 660.974 769.89 660.314 769.17 659.854C768.45 659.394 767.58 659.164 766.56 659.164ZM778.338 672.394L778.338 657.394L780.438 657.394L780.648 660.754L780.258 660.424C780.578 659.624 781.008 658.984 781.548 658.504C782.088 658.004 782.708 657.644 783.408 657.424C784.128 657.204 784.868 657.094 785.628 657.094C786.708 657.094 787.688 657.304 788.568 657.724C789.448 658.124 790.148 658.744 790.668 659.584C791.208 660.424 791.478 661.494 791.478 662.794L791.478 672.394L789.078 672.394L789.078 663.634C789.078 661.974 788.718 660.824 787.998 660.184C787.298 659.524 786.428 659.194 785.388 659.194C784.668 659.194 783.948 659.364 783.228 659.704C782.508 660.044 781.908 660.594 781.428 661.354C780.968 662.114 780.738 663.134 780.738 664.414L780.738 672.394L778.338 672.394Z" fill="#AEAEAE"/>
<g filter="url(#filter1_d_20_3285)">
<path d="M1399.5 949.5H1245.15C1231.81 949.5 1219.15 955.424 1210.6 965.673L1141.5 1048.5H1399.5V949.5Z" fill="#3A3A3A"/>
</g>
<g filter="url(#filter2_d_20_3285)">
<path d="M0 949.5H154.347C167.693 949.5 180.351 955.424 188.901 965.673L258 1048.5H0L0 949.5Z" fill="#3A3A3A"/>
</g>
<path d="M36.552 1016V1012.88C39.72 1010.54 42.36 1008.5 44.472 1006.74C46.616 1004.98 48.328 1003.38 49.608 1001.94C50.888 1000.5 51.8 999.136 52.344 997.856C52.888 996.544 53.16 995.184 53.16 993.776C53.16 991.888 52.552 990.368 51.336 989.216C50.152 988.032 48.52 987.44 46.44 987.44C44.264 987.44 42.52 988.16 41.208 989.6C39.896 991.008 39.128 992.896 38.904 995.264L35.544 993.248C35.832 991.392 36.424 989.76 37.32 988.352C38.248 986.944 39.48 985.84 41.016 985.04C42.584 984.24 44.44 983.84 46.584 983.84C48.216 983.84 49.672 984.08 50.952 984.56C52.264 985.04 53.384 985.728 54.312 986.624C55.24 987.488 55.944 988.528 56.424 989.744C56.936 990.96 57.192 992.304 57.192 993.776C57.192 995.76 56.712 997.712 55.752 999.632C54.792 1001.52 53.208 1003.5 51 1005.58C48.792 1007.66 45.8 1009.97 42.024 1012.5V1012.54C42.376 1012.51 42.856 1012.5 43.464 1012.5C44.104 1012.46 44.728 1012.45 45.336 1012.45C45.976 1012.42 46.456 1012.4 46.776 1012.4H57.864V1016H36.552ZM75.9124 1016.48C72.3284 1016.48 69.4644 1015.09 67.3204 1012.3C65.1764 1009.52 64.1044 1005.47 64.1044 1000.16C64.1044 994.848 65.1764 990.8 67.3204 988.016C69.4644 985.232 72.3284 983.84 75.9124 983.84C79.5284 983.84 82.3924 985.232 84.5044 988.016C86.6484 990.8 87.7204 994.848 87.7204 1000.16C87.7204 1005.47 86.6484 1009.52 84.5044 1012.3C82.3924 1015.09 79.5284 1016.48 75.9124 1016.48ZM75.9124 1013.02C77.6084 1013.02 79.0324 1012.54 80.1844 1011.58C81.3684 1010.59 82.2484 1009.14 82.8244 1007.22C83.4324 1005.3 83.7364 1002.94 83.7364 1000.16C83.7364 997.376 83.4324 995.024 82.8244 993.104C82.2484 991.184 81.3684 989.744 80.1844 988.784C79.0324 987.792 77.6084 987.296 75.9124 987.296C74.2164 987.296 72.7764 987.792 71.5924 988.784C70.4404 989.744 69.5604 991.184 68.9524 993.104C68.3764 995.024 68.0884 997.376 68.0884 1000.16C68.0884 1002.94 68.3764 1005.3 68.9524 1007.22C69.5604 1009.14 70.4404 1010.59 71.5924 1011.58C72.7764 1012.54 74.2164 1013.02 75.9124 1013.02Z" fill="#FAFAFA"/>
<path d="M90.3887 978.783C90.3887 977.112 90.9467 975.675 92.0317 974.505C93.1477 973.302 94.4497 972.733 95.9997 972.733C97.5187 972.733 98.8517 973.335 99.9367 974.505C101.022 975.708 101.58 977.112 101.58 978.783C101.58 980.454 101.022 981.891 99.9367 983.095C98.8517 984.298 97.5187 984.899 95.9997 984.899C94.4807 984.899 93.1477 984.298 92.0317 983.095C90.9157 981.891 90.3887 980.454 90.3887 978.783ZM93.1167 978.783C93.1167 979.652 93.3957 980.387 93.9537 981.022C94.5427 981.657 95.2247 981.958 96.0307 981.958C96.8367 981.958 97.5187 981.657 98.1077 981.022C98.6967 980.387 98.9757 979.652 98.9757 978.783C98.9847 978.37 98.9119 977.96 98.7622 977.579C98.6126 977.199 98.3894 976.857 98.1077 976.577C97.8356 976.281 97.5121 976.047 97.1557 975.886C96.7993 975.725 96.417 975.642 96.0307 975.641C95.2247 975.641 94.5427 975.942 93.9537 976.544C93.3957 977.145 93.1167 977.881 93.1167 978.783Z" fill="#FAFAFA"/>
<path d="M1305.55 1014.5V1011.38C1308.72 1009.04 1311.36 1007 1313.47 1005.24C1315.62 1003.48 1317.33 1001.88 1318.61 1000.44C1319.89 998.996 1320.8 997.636 1321.34 996.356C1321.89 995.044 1322.16 993.684 1322.16 992.276C1322.16 990.388 1321.55 988.868 1320.34 987.716C1319.15 986.532 1317.52 985.94 1315.44 985.94C1313.26 985.94 1311.52 986.66 1310.21 988.1C1308.9 989.508 1308.13 991.396 1307.9 993.764L1304.54 991.748C1304.83 989.892 1305.42 988.26 1306.32 986.852C1307.25 985.444 1308.48 984.34 1310.02 983.54C1311.58 982.74 1313.44 982.34 1315.58 982.34C1317.22 982.34 1318.67 982.58 1319.95 983.06C1321.26 983.54 1322.38 984.228 1323.31 985.124C1324.24 985.988 1324.94 987.028 1325.42 988.244C1325.94 989.46 1326.19 990.804 1326.19 992.276C1326.19 994.26 1325.71 996.212 1324.75 998.132C1323.79 1000.02 1322.21 1002 1320 1004.08C1317.79 1006.16 1314.8 1008.47 1311.02 1011V1011.04C1311.38 1011.01 1311.86 1011 1312.46 1011C1313.1 1010.96 1313.73 1010.95 1314.34 1010.95C1314.98 1010.92 1315.46 1010.9 1315.78 1010.9H1326.86V1014.5H1305.55ZM1344.91 1014.98C1341.33 1014.98 1338.46 1013.59 1336.32 1010.8C1334.18 1008.02 1333.1 1003.97 1333.1 998.66C1333.1 993.348 1334.18 989.3 1336.32 986.516C1338.46 983.732 1341.33 982.34 1344.91 982.34C1348.53 982.34 1351.39 983.732 1353.5 986.516C1355.65 989.3 1356.72 993.348 1356.72 998.66C1356.72 1003.97 1355.65 1008.02 1353.5 1010.8C1351.39 1013.59 1348.53 1014.98 1344.91 1014.98ZM1344.91 1011.52C1346.61 1011.52 1348.03 1011.04 1349.18 1010.08C1350.37 1009.09 1351.25 1007.64 1351.82 1005.72C1352.43 1003.8 1352.74 1001.44 1352.74 998.66C1352.74 995.876 1352.43 993.524 1351.82 991.604C1351.25 989.684 1350.37 988.244 1349.18 987.284C1348.03 986.292 1346.61 985.796 1344.91 985.796C1343.22 985.796 1341.78 986.292 1340.59 987.284C1339.44 988.244 1338.56 989.684 1337.95 991.604C1337.38 993.524 1337.09 995.876 1337.09 998.66C1337.09 1001.44 1337.38 1003.8 1337.95 1005.72C1338.56 1007.64 1339.44 1009.09 1340.59 1010.08C1341.78 1011.04 1343.22 1011.52 1344.91 1011.52Z" fill="#FAFAFA"/>
<path d="M1359.39 977.283C1359.39 975.612 1359.95 974.175 1361.03 973.005C1362.15 971.802 1363.45 971.233 1365 971.233C1366.52 971.233 1367.85 971.835 1368.94 973.005C1370.02 974.208 1370.58 975.612 1370.58 977.283C1370.58 978.954 1370.02 980.391 1368.94 981.595C1367.85 982.798 1366.52 983.399 1365 983.399C1363.48 983.399 1362.15 982.798 1361.03 981.595C1359.92 980.391 1359.39 978.954 1359.39 977.283ZM1362.12 977.283C1362.12 978.152 1362.4 978.887 1362.95 979.522C1363.54 980.157 1364.22 980.458 1365.03 980.458C1365.84 980.458 1366.52 980.157 1367.11 979.522C1367.7 978.887 1367.98 978.152 1367.98 977.283C1367.98 976.87 1367.91 976.46 1367.76 976.079C1367.61 975.699 1367.39 975.357 1367.11 975.077C1366.84 974.781 1366.51 974.547 1366.16 974.386C1365.8 974.225 1365.42 974.142 1365.03 974.141C1364.22 974.141 1363.54 974.442 1362.95 975.044C1362.4 975.645 1362.12 976.381 1362.12 977.283Z" fill="#FAFAFA"/>
<path fill-rule="evenodd" clip-rule="evenodd" d="M128.843 981.3C129.929 981.3 130.895 981.989 131.25 983.016L136.709 998.832C139.141 1005.88 145.774 1010.61 153.228 1010.61H163.155C164.838 1010.61 166.203 1011.97 166.203 1013.65C166.203 1015.34 164.838 1016.7 163.155 1016.7H148.956C141.365 1016.7 134.666 1011.74 132.457 1004.47L126.407 984.588C125.909 982.952 127.133 981.3 128.843 981.3ZM135.504 981.547C134.523 978.707 131.848 976.8 128.843 976.8C124.112 976.8 120.725 981.371 122.102 985.897L128.152 1005.78C130.938 1014.94 139.384 1021.2 148.956 1021.2H163.155C167.324 1021.2 170.703 1017.82 170.703 1013.65C170.703 1009.48 167.324 1006.11 163.155 1006.11H153.228C147.694 1006.11 142.769 1002.6 140.963 997.364L135.504 981.547Z" fill="#CFCFCF"/>
<path d="M163.915 1001.2H149.252" stroke="#CFCFCF" stroke-width="3" stroke-linecap="round"/>
<path d="M163.915 994.201H149.252" stroke="#CFCFCF" stroke-width="3" stroke-linecap="round"/>
<path d="M163.915 987.201H149.252" stroke="#CFCFCF" stroke-width="3" stroke-linecap="round"/>
<path fill-rule="evenodd" clip-rule="evenodd" d="M1269.16 979.8C1268.07 979.8 1267.1 980.489 1266.75 981.516L1261.29 997.332C1258.86 1004.38 1252.23 1009.11 1244.77 1009.11H1234.84C1233.16 1009.11 1231.8 1010.47 1231.8 1012.15C1231.8 1013.84 1233.16 1015.2 1234.84 1015.2H1249.04C1256.63 1015.2 1263.33 1010.24 1265.54 1002.97L1271.59 983.088C1272.09 981.452 1270.87 979.8 1269.16 979.8ZM1262.5 980.047C1263.48 977.207 1266.15 975.3 1269.16 975.3C1273.89 975.3 1277.28 979.871 1275.9 984.397L1269.85 1004.28C1267.06 1013.44 1258.62 1019.7 1249.04 1019.7H1234.84C1230.68 1019.7 1227.3 1016.32 1227.3 1012.15C1227.3 1007.98 1230.68 1004.61 1234.84 1004.61H1244.77C1250.31 1004.61 1255.23 1001.1 1257.04 995.864L1262.5 980.047Z" fill="#CFCFCF"/>
<path d="M1234.09 999.701H1248.75" stroke="#CFCFCF" stroke-width="3" stroke-linecap="round"/>
<path d="M1234.09 992.701H1248.75" stroke="#CFCFCF" stroke-width="3" stroke-linecap="round"/>
<path d="M1234.09 985.701H1248.75" stroke="#CFCFCF" stroke-width="3" stroke-linecap="round"/>
<path d="M128.546 107.777C124.504 107.777 120.552 108.975 117.191 111.221C113.831 113.467 111.211 116.659 109.664 120.393C108.117 124.127 107.713 128.237 108.501 132.201C109.29 136.166 111.236 139.807 114.094 142.666C116.953 145.524 120.594 147.47 124.559 148.259C128.523 149.048 132.633 148.643 136.367 147.096C140.101 145.549 143.293 142.93 145.539 139.569C147.785 136.208 148.983 132.256 148.983 128.214C148.983 122.794 146.83 117.595 142.997 113.763C139.165 109.93 133.966 107.777 128.546 107.777ZM128.546 140.477C126.121 140.477 123.75 139.757 121.733 138.41C119.717 137.063 118.145 135.147 117.217 132.907C116.289 130.666 116.046 128.201 116.519 125.822C116.992 123.443 118.16 121.258 119.875 119.543C121.59 117.828 123.775 116.66 126.154 116.187C128.532 115.714 130.998 115.957 133.239 116.885C135.479 117.813 137.394 119.385 138.742 121.401C140.089 123.418 140.808 125.789 140.808 128.214C140.808 131.466 139.516 134.585 137.217 136.885C134.917 139.185 131.798 140.477 128.546 140.477ZM166.207 144.125C164.451 148.276 162.02 152.109 159.013 155.468C158.285 156.255 157.276 156.725 156.205 156.776C155.133 156.827 154.084 156.454 153.285 155.739C152.486 155.023 152 154.022 151.932 152.952C151.864 151.881 152.22 150.826 152.923 150.016C158.29 144.023 161.258 136.261 161.258 128.217C161.258 120.172 158.29 112.41 152.923 106.418C152.555 106.019 152.27 105.552 152.084 105.042C151.898 104.533 151.816 103.992 151.842 103.45C151.867 102.908 152 102.377 152.233 101.887C152.466 101.398 152.794 100.959 153.198 100.598C153.602 100.236 154.074 99.9584 154.587 99.7809C155.099 99.6034 155.642 99.5297 156.183 99.5639C156.724 99.5982 157.253 99.7398 157.739 99.9805C158.225 100.221 158.658 100.556 159.013 100.966C164.174 106.741 167.59 113.863 168.864 121.503C170.137 129.143 169.216 136.988 166.207 144.125ZM98.4006 115.487C95.9889 121.196 95.2492 127.473 96.2678 133.586C97.2863 139.699 100.021 145.397 104.154 150.016C104.856 150.826 105.212 151.881 105.145 152.952C105.077 154.022 104.591 155.023 103.791 155.739C102.992 156.454 101.943 156.827 100.872 156.776C99.8002 156.725 98.7915 156.255 98.0634 155.468C91.3527 147.977 87.6418 138.274 87.6418 128.217C87.6418 118.16 91.3527 108.456 98.0634 100.966C98.7863 100.156 99.8013 99.6668 100.885 99.6055C101.969 99.5442 103.032 99.9159 103.842 100.639C104.652 101.362 105.141 102.377 105.202 103.46C105.264 104.544 104.892 105.608 104.169 106.418C101.757 109.1 99.8081 112.165 98.4006 115.487ZM189.858 128.214C189.883 144.266 183.59 159.684 172.338 171.133C171.966 171.531 171.518 171.85 171.021 172.073C170.523 172.295 169.986 172.416 169.441 172.427C168.896 172.439 168.355 172.342 167.848 172.141C167.342 171.94 166.88 171.641 166.491 171.259C166.102 170.877 165.793 170.422 165.583 169.919C165.372 169.417 165.264 168.877 165.266 168.332C165.267 167.787 165.377 167.248 165.589 166.746C165.802 166.244 166.113 165.79 166.503 165.41C176.246 155.485 181.704 142.132 181.704 128.224C181.704 114.316 176.246 100.964 166.503 91.0383C165.742 90.2645 165.319 89.22 165.328 88.1343C165.336 87.0487 165.776 86.0109 166.549 85.2494C167.323 84.4878 168.368 84.0648 169.453 84.0734C170.539 84.0821 171.577 84.5216 172.338 85.2954C183.59 96.7446 189.883 112.162 189.858 128.214ZM90.5884 165.4C90.9648 165.783 91.262 166.237 91.4632 166.735C91.6643 167.233 91.7654 167.766 91.7607 168.303C91.7559 168.84 91.6454 169.371 91.4355 169.865C91.2256 170.359 90.9204 170.808 90.5373 171.184C90.1541 171.56 89.7006 171.858 89.2026 172.059C88.7046 172.26 88.1719 172.361 87.6348 172.356C87.0977 172.352 86.5668 172.241 86.0724 172.031C85.5781 171.821 85.1299 171.516 84.7534 171.133C73.5035 159.68 67.2002 144.268 67.2002 128.214C67.2002 112.16 73.5035 96.7482 84.7534 85.2954C85.1257 84.8974 85.5737 84.5779 86.0713 84.3556C86.5688 84.1333 87.1057 84.0127 87.6505 84.001C88.1953 83.9892 88.737 84.0865 89.2436 84.2871C89.7503 84.4878 90.2117 84.7877 90.6007 85.1692C90.9898 85.5508 91.2986 86.0063 91.5091 86.5089C91.7195 87.0116 91.8273 87.5512 91.8262 88.0962C91.825 88.6411 91.7149 89.1803 91.5023 89.682C91.2898 90.1838 90.979 90.638 90.5884 91.0179C80.8461 100.944 75.3882 114.296 75.3882 128.204C75.3882 142.112 80.8461 155.464 90.5884 165.39V165.4Z" fill="#1F1F1F"/>
<g filter="url(#filter3_d_20_3285)">
<g clip-path="url(#clip1_20_3285)">
<rect x="972" y="205.5" width="255" height="255" rx="60" fill="url(#paint1_linear_20_3285)"/>
<g clip-path="url(#clip2_20_3285)">
<g filter="url(#filter4_d_20_3285)">
<path d="M1077.18 356.45C1077.57 356.748 1078.02 356.965 1078.5 357.088C1078.98 357.212 1079.48 357.239 1079.97 357.169C1080.46 357.099 1080.93 356.933 1081.36 356.68C1081.79 356.427 1082.16 356.093 1082.45 355.695C1084.73 352.649 1087.69 350.177 1091.09 348.474C1094.49 346.772 1098.23 345.885 1102.03 345.885C1105.83 345.885 1109.58 346.772 1112.98 348.474C1116.38 350.177 1119.33 352.649 1121.61 355.695C1121.91 356.092 1122.28 356.426 1122.71 356.678C1123.13 356.931 1123.6 357.097 1124.09 357.167C1124.58 357.237 1125.08 357.21 1125.56 357.087C1126.04 356.964 1126.49 356.747 1126.88 356.45C1127.28 356.153 1127.61 355.78 1127.87 355.354C1128.12 354.928 1128.28 354.456 1128.35 353.965C1128.42 353.475 1128.4 352.975 1128.27 352.495C1128.15 352.015 1127.93 351.564 1127.64 351.168C1124.3 346.688 1119.86 343.161 1114.74 340.938C1117.55 338.373 1119.51 335.018 1120.38 331.314C1121.24 327.61 1120.97 323.73 1119.6 320.183C1118.23 316.637 1115.82 313.588 1112.68 311.439C1109.55 309.29 1105.84 308.139 1102.05 308.139C1098.25 308.139 1094.54 309.29 1091.41 311.439C1088.28 313.588 1085.87 316.637 1084.5 320.183C1083.12 323.73 1082.85 327.61 1083.72 331.314C1084.59 335.018 1086.55 338.373 1089.35 340.938C1084.23 343.157 1079.77 346.684 1076.43 351.168C1075.83 351.968 1075.57 352.974 1075.71 353.964C1075.85 354.955 1076.38 355.849 1077.18 356.45ZM1090.74 327.019C1090.74 324.781 1091.4 322.592 1092.64 320.731C1093.88 318.869 1095.65 317.418 1097.71 316.562C1099.77 315.705 1102.05 315.481 1104.24 315.917C1106.43 316.354 1108.44 317.432 1110.02 319.015C1111.6 320.598 1112.68 322.615 1113.11 324.811C1113.55 327.007 1113.32 329.283 1112.47 331.351C1111.61 333.42 1110.17 335.187 1108.31 336.431C1106.45 337.675 1104.27 338.339 1102.03 338.339C1099.04 338.339 1096.16 337.146 1094.05 335.024C1091.93 332.901 1090.74 330.022 1090.74 327.019ZM1135.92 285.515H1068.15C1066.15 285.515 1064.23 286.31 1062.82 287.725C1061.41 289.14 1060.62 291.06 1060.62 293.061V304.38H1053.08C1052.09 304.38 1051.13 304.778 1050.42 305.486C1049.72 306.193 1049.32 307.153 1049.32 308.154C1049.32 309.154 1049.72 310.114 1050.42 310.822C1051.13 311.529 1052.09 311.927 1053.08 311.927H1060.62V330.793H1053.08C1052.09 330.793 1051.13 331.19 1050.42 331.898C1049.72 332.605 1049.32 333.565 1049.32 334.566C1049.32 335.566 1049.72 336.526 1050.42 337.234C1051.13 337.941 1052.09 338.339 1053.08 338.339H1060.62V357.205H1053.08C1052.09 357.205 1051.13 357.602 1050.42 358.31C1049.72 359.017 1049.32 359.977 1049.32 360.978C1049.32 361.979 1049.72 362.938 1050.42 363.646C1051.13 364.354 1052.09 364.751 1053.08 364.751H1060.62V376.071C1060.62 378.072 1061.41 379.991 1062.82 381.407C1064.23 382.822 1066.15 383.617 1068.15 383.617H1135.92C1137.92 383.617 1139.83 382.822 1141.25 381.407C1142.66 379.991 1143.45 378.072 1143.45 376.071V293.061C1143.45 291.06 1142.66 289.14 1141.25 287.725C1139.83 286.31 1137.92 285.515 1135.92 285.515ZM1135.92 376.071H1068.15V293.061H1135.92V376.071Z" fill="#FAFAFA"/>
</g>
</g>
</g>
</g>
<path d="M1029.45 487.18L1021.51 495.766L1021.19 495.793L1016.57 500.761L1016.3 497.602L1025.91 487.18H1029.45ZM1017.73 487.18V505H1014.84V487.18H1017.73ZM1022.1 493.552L1029.61 505H1026.21L1019.81 495.172L1022.1 493.552ZM1040.57 486.91C1042.3 486.91 1043.79 487.279 1045.05 488.017C1046.31 488.755 1047.28 489.808 1047.97 491.176C1048.65 492.544 1048.99 494.182 1048.99 496.09C1048.99 497.998 1048.65 499.636 1047.97 501.004C1047.28 502.372 1046.31 503.425 1045.05 504.163C1043.79 504.901 1042.3 505.27 1040.57 505.27C1038.86 505.27 1037.37 504.901 1036.11 504.163C1034.85 503.425 1033.88 502.372 1033.2 501.004C1032.51 499.636 1032.17 497.998 1032.17 496.09C1032.17 494.182 1032.51 492.544 1033.2 491.176C1033.88 489.808 1034.85 488.755 1036.11 488.017C1037.37 487.279 1038.86 486.91 1040.57 486.91ZM1040.57 489.421C1039.45 489.421 1038.49 489.682 1037.68 490.204C1036.89 490.726 1036.28 491.482 1035.84 492.472C1035.41 493.462 1035.2 494.668 1035.2 496.09C1035.2 497.494 1035.41 498.7 1035.84 499.708C1036.28 500.698 1036.89 501.454 1037.68 501.976C1038.49 502.498 1039.45 502.759 1040.57 502.759C1041.7 502.759 1042.67 502.498 1043.46 501.976C1044.27 501.454 1044.89 500.698 1045.32 499.708C1045.75 498.7 1045.97 497.494 1045.97 496.09C1045.97 494.668 1045.75 493.462 1045.32 492.472C1044.89 491.482 1044.27 490.726 1043.46 490.204C1042.67 489.682 1041.7 489.421 1040.57 489.421ZM1069.25 487.18V505H1065.82L1058.93 493.768L1057.2 490.609H1057.18L1057.29 493.498V505H1054.64V487.18H1058.04L1064.9 498.385L1066.65 501.598H1066.68L1066.57 498.682V487.18H1069.25ZM1089.13 487.18V489.664H1083.03V505H1080.14V489.664H1074.03V487.18H1089.13ZM1106.36 505H1103.31L1101.61 500.329H1094.13L1092.43 505H1089.46L1096.18 487.18H1099.64L1106.36 505ZM1094.94 497.98H1100.8L1097.88 489.664L1094.94 497.98ZM1125.48 487.18L1117.54 495.766L1117.22 495.793L1112.6 500.761L1112.33 497.602L1121.94 487.18H1125.48ZM1113.76 487.18V505H1110.87V487.18H1113.76ZM1118.13 493.552L1125.64 505H1122.24L1115.84 495.172L1118.13 493.552ZM1143.49 487.18V489.664H1137.38V505H1134.49V489.664H1128.39V487.18H1143.49ZM1148.3 505V487.18H1161.2V489.664H1151.18V494.794H1159.01V497.224H1151.18V502.516H1161.58V505H1148.3ZM1174.07 487.18C1175.98 487.18 1177.49 487.657 1178.61 488.611C1179.74 489.565 1180.31 490.852 1180.31 492.472C1180.31 494.146 1179.74 495.442 1178.61 496.36C1177.49 497.26 1175.98 497.71 1174.07 497.71L1173.8 497.872H1169.67V505H1166.81V487.18H1174.07ZM1173.86 495.469C1175.03 495.469 1175.89 495.235 1176.45 494.767C1177.03 494.281 1177.31 493.543 1177.31 492.553C1177.31 491.581 1177.03 490.852 1176.45 490.366C1175.89 489.88 1175.03 489.637 1173.86 489.637H1169.67V495.469H1173.86ZM1175.56 496.063L1181.36 505H1178.04L1173.07 497.197L1175.56 496.063Z" fill="#FAFAFA"/>
<path d="M219.195 711.49L1182 711.49" stroke="#8E8E8E" stroke-width="4.5" stroke-linecap="round"/>
<path d="M219.195 711.491L847.5 711.001" stroke="#FAFAFA" stroke-width="4.5" stroke-linecap="round"/>
<path d="M1134.85 747.178C1133.09 747.178 1131.53 746.768 1130.17 745.948C1128.83 745.108 1127.92 743.958 1127.44 742.498L1129.84 741.268C1130.08 742.008 1130.41 742.658 1130.83 743.218C1131.25 743.758 1131.8 744.178 1132.48 744.478C1133.18 744.778 1134.05 744.928 1135.09 744.928C1135.97 744.928 1136.71 744.768 1137.31 744.448C1137.91 744.128 1138.37 743.698 1138.69 743.158C1139.01 742.598 1139.17 741.958 1139.17 741.238C1139.17 740.518 1139.03 739.918 1138.75 739.438C1138.49 738.958 1138.07 738.608 1137.49 738.388C1136.91 738.148 1136.15 738.028 1135.21 738.028C1134.99 738.028 1134.75 738.038 1134.49 738.058C1134.23 738.058 1133.96 738.078 1133.68 738.118L1133.68 735.718C1133.86 735.738 1134.03 735.748 1134.19 735.748C1134.37 735.748 1134.53 735.748 1134.67 735.748C1136.13 735.748 1137.17 735.468 1137.79 734.908C1138.41 734.328 1138.72 733.428 1138.72 732.208C1138.72 731.168 1138.4 730.378 1137.76 729.838C1137.12 729.298 1136.21 729.028 1135.03 729.028C1133.77 729.028 1132.81 729.308 1132.15 729.868C1131.49 730.408 1130.97 731.148 1130.59 732.088L1128.31 731.008C1128.63 730.168 1129.11 729.428 1129.75 728.788C1130.39 728.148 1131.16 727.648 1132.06 727.288C1132.98 726.928 1133.99 726.748 1135.09 726.748C1136.47 726.748 1137.61 726.988 1138.51 727.468C1139.41 727.928 1140.08 728.548 1140.52 729.328C1140.98 730.108 1141.21 730.968 1141.21 731.908C1141.21 732.628 1141.11 733.278 1140.91 733.858C1140.71 734.418 1140.43 734.908 1140.07 735.328C1139.73 735.748 1139.34 736.088 1138.9 736.348C1138.46 736.588 1137.99 736.748 1137.49 736.828L1137.49 736.888C1138.15 736.908 1138.73 737.038 1139.23 737.278C1139.75 737.518 1140.19 737.838 1140.55 738.238C1140.91 738.638 1141.18 739.098 1141.36 739.618C1141.56 740.118 1141.66 740.648 1141.66 741.208C1141.66 742.368 1141.37 743.398 1140.79 744.298C1140.23 745.198 1139.44 745.908 1138.42 746.428C1137.4 746.928 1136.21 747.178 1134.85 747.178ZM1148.08 731.578C1148.66 731.578 1149.13 731.758 1149.49 732.118C1149.85 732.478 1150.03 732.948 1150.03 733.528C1150.03 734.108 1149.85 734.578 1149.49 734.938C1149.13 735.298 1148.66 735.478 1148.08 735.478C1147.5 735.478 1147.03 735.298 1146.67 734.938C1146.31 734.578 1146.13 734.108 1146.13 733.528C1146.13 732.948 1146.31 732.478 1146.67 732.118C1147.03 731.758 1147.5 731.578 1148.08 731.578ZM1148.08 743.278C1148.66 743.278 1149.13 743.458 1149.49 743.818C1149.85 744.178 1150.03 744.648 1150.03 745.228C1150.03 745.808 1149.85 746.278 1149.49 746.638C1149.13 746.998 1148.66 747.178 1148.08 747.178C1147.5 747.178 1147.03 746.998 1146.67 746.638C1146.31 746.278 1146.13 745.808 1146.13 745.228C1146.13 744.648 1146.31 744.178 1146.67 743.818C1147.03 743.458 1147.5 743.278 1148.08 743.278ZM1154.74 746.878L1154.74 744.928C1156.72 743.468 1158.37 742.188 1159.69 741.088C1161.03 739.988 1162.1 738.988 1162.9 738.088C1163.7 737.188 1164.27 736.338 1164.61 735.538C1164.95 734.718 1165.12 733.868 1165.12 732.988C1165.12 731.808 1164.74 730.858 1163.98 730.138C1163.24 729.398 1162.22 729.028 1160.92 729.028C1159.56 729.028 1158.47 729.478 1157.65 730.378C1156.83 731.258 1156.35 732.438 1156.21 733.918L1154.11 732.658C1154.29 731.498 1154.66 730.478 1155.22 729.598C1155.8 728.718 1156.57 728.028 1157.53 727.528C1158.51 727.028 1159.67 726.778 1161.01 726.778C1162.03 726.778 1162.94 726.928 1163.74 727.228C1164.56 727.528 1165.26 727.958 1165.84 728.518C1166.42 729.058 1166.86 729.708 1167.16 730.468C1167.48 731.228 1167.64 732.068 1167.64 732.988C1167.64 734.228 1167.34 735.448 1166.74 736.648C1166.14 737.828 1165.15 739.068 1163.77 740.368C1162.39 741.668 1160.52 743.108 1158.16 744.688L1158.16 744.718C1158.38 744.698 1158.68 744.688 1159.06 744.688C1159.46 744.668 1159.85 744.658 1160.23 744.658C1160.63 744.638 1160.93 744.628 1161.13 744.628L1168.06 744.628L1168.06 746.878L1154.74 746.878ZM1176.25 746.878L1176.25 732.358C1176.25 732.018 1176.25 731.658 1176.25 731.278C1176.27 730.878 1176.29 730.468 1176.31 730.048C1175.63 730.708 1174.84 731.288 1173.94 731.788C1173.04 732.268 1172.12 732.618 1171.18 732.838L1170.55 730.648C1170.91 730.608 1171.36 730.478 1171.9 730.258C1172.46 730.018 1173.04 729.728 1173.64 729.388C1174.26 729.028 1174.83 728.648 1175.35 728.248C1175.87 727.848 1176.27 727.458 1176.55 727.078L1178.65 727.078L1178.65 746.878L1176.25 746.878Z" fill="#AEAEAE"/>
<path d="M221.22 746.878L221.22 744.928C223.2 743.468 224.85 742.188 226.17 741.088C227.51 739.988 228.58 738.988 229.38 738.088C230.18 737.188 230.75 736.338 231.09 735.538C231.43 734.718 231.6 733.868 231.6 732.988C231.6 731.808 231.22 730.858 230.46 730.138C229.72 729.398 228.7 729.028 227.4 729.028C226.04 729.028 224.95 729.478 224.13 730.378C223.31 731.258 222.83 732.438 222.69 733.918L220.59 732.658C220.77 731.498 221.14 730.478 221.7 729.598C222.28 728.718 223.05 728.028 224.01 727.528C224.99 727.028 226.15 726.778 227.49 726.778C228.51 726.778 229.42 726.928 230.22 727.228C231.04 727.528 231.74 727.958 232.32 728.518C232.9 729.058 233.34 729.708 233.64 730.468C233.96 731.228 234.12 732.068 234.12 732.988C234.12 734.228 233.82 735.448 233.22 736.648C232.62 737.828 231.63 739.068 230.25 740.368C228.87 741.668 227 743.108 224.64 744.688L224.64 744.718C224.86 744.698 225.16 744.688 225.54 744.688C225.94 744.668 226.33 744.658 226.71 744.658C227.11 744.638 227.41 744.628 227.61 744.628L234.54 744.628L234.54 746.878L221.22 746.878ZM240.93 731.578C241.51 731.578 241.98 731.758 242.34 732.118C242.7 732.478 242.88 732.948 242.88 733.528C242.88 734.108 242.7 734.578 242.34 734.938C241.98 735.298 241.51 735.478 240.93 735.478C240.35 735.478 239.88 735.298 239.52 734.938C239.16 734.578 238.98 734.108 238.98 733.528C238.98 732.948 239.16 732.478 239.52 732.118C239.88 731.758 240.35 731.578 240.93 731.578ZM240.93 743.278C241.51 743.278 241.98 743.458 242.34 743.818C242.7 744.178 242.88 744.648 242.88 745.228C242.88 745.808 242.7 746.278 242.34 746.638C241.98 746.998 241.51 747.178 240.93 747.178C240.35 747.178 239.88 746.998 239.52 746.638C239.16 746.278 238.98 745.808 238.98 745.228C238.98 744.648 239.16 744.178 239.52 743.818C239.88 743.458 240.35 743.278 240.93 743.278ZM254.697 747.178C252.457 747.178 250.667 746.308 249.327 744.568C247.987 742.828 247.317 740.298 247.317 736.978C247.317 733.658 247.987 731.128 249.327 729.388C250.667 727.648 252.457 726.778 254.697 726.778C256.957 726.778 258.747 727.648 260.067 729.388C261.407 731.128 262.077 733.658 262.077 736.978C262.077 740.298 261.407 742.828 260.067 744.568C258.747 746.308 256.957 747.178 254.697 747.178ZM254.697 745.018C255.757 745.018 256.647 744.718 257.367 744.118C258.107 743.498 258.657 742.588 259.017 741.388C259.397 740.188 259.587 738.718 259.587 736.978C259.587 735.238 259.397 733.768 259.017 732.568C258.657 731.368 258.107 730.468 257.367 729.868C256.647 729.248 255.757 728.938 254.697 728.938C253.637 728.938 252.737 729.248 251.997 729.868C251.277 730.468 250.727 731.368 250.347 732.568C249.987 733.768 249.807 735.238 249.807 736.978C249.807 738.718 249.987 740.188 250.347 741.388C250.727 742.588 251.277 743.498 251.997 744.118C252.737 744.718 253.637 745.018 254.697 745.018ZM272.939 726.778C274.599 726.778 275.999 727.218 277.139 728.098C278.279 728.958 279.139 730.158 279.719 731.698C280.299 733.218 280.589 734.978 280.589 736.978C280.589 739.198 280.299 741.068 279.719 742.588C279.139 744.088 278.279 745.228 277.139 746.008C276.019 746.788 274.629 747.178 272.969 747.178C271.329 747.178 269.919 746.798 268.739 746.038C267.559 745.278 266.679 744.168 266.099 742.708L268.469 741.448C268.789 742.488 269.309 743.328 270.029 743.968C270.769 744.608 271.779 744.928 273.059 744.928C274.099 744.928 274.959 744.728 275.639 744.328C276.339 743.908 276.889 743.318 277.289 742.558C277.689 741.778 277.969 740.848 278.129 739.768C278.309 738.688 278.399 737.488 278.399 736.168C278.399 736.128 278.399 736.088 278.399 736.048C278.399 735.988 278.399 735.938 278.399 735.898L278.279 735.898C278.039 736.798 277.619 737.528 277.019 738.088C276.419 738.628 275.739 739.018 274.979 739.258C274.239 739.498 273.499 739.618 272.759 739.618C271.459 739.618 270.309 739.368 269.309 738.868C268.309 738.348 267.529 737.628 266.969 736.708C266.409 735.788 266.129 734.698 266.129 733.438C266.129 732.078 266.399 730.908 266.939 729.928C267.479 728.928 268.259 728.158 269.279 727.618C270.299 727.058 271.519 726.778 272.939 726.778ZM272.969 729.088C271.569 729.088 270.499 729.478 269.759 730.258C269.019 731.018 268.649 732.088 268.649 733.468C268.649 734.648 269.039 735.588 269.819 736.288C270.599 736.968 271.649 737.308 272.969 737.308C273.829 737.308 274.579 737.138 275.219 736.798C275.879 736.438 276.389 735.958 276.749 735.358C277.109 734.738 277.289 734.028 277.289 733.228C277.289 732.388 277.109 731.658 276.749 731.038C276.389 730.418 275.879 729.938 275.219 729.598C274.579 729.258 273.829 729.088 272.969 729.088Z" fill="#AEAEAE"/>
<circle cx="848.14" cy="711.75" r="12.75" fill="#FAFAFA"/>
<g filter="url(#filter5_d_20_3285)">
<rect x="541.499" y="759" width="78.3" height="78.2999" rx="39.15" fill="#474646"/>
</g>
<path d="M573.172 790.275L573.172 806.025C573.172 806.471 573.012 806.845 572.693 807.146C572.374 807.447 571.98 807.599 571.51 807.6C571.04 807.6 570.645 807.448 570.326 807.146C570.007 806.844 569.848 806.47 569.849 806.025L569.849 790.275C569.849 789.828 570.008 789.454 570.327 789.152C570.646 788.849 571.041 788.699 571.51 788.7C571.981 788.7 572.375 788.851 572.693 789.153C573.011 789.456 573.171 789.829 573.172 790.275ZM591.449 791.653L591.449 804.646C591.449 805.119 591.283 805.5 590.95 805.788C590.618 806.077 590.23 806.221 589.787 806.221C589.649 806.221 589.496 806.208 589.33 806.182C589.164 806.156 589.012 806.09 588.873 805.985L578.572 799.449C578.323 799.291 578.135 799.101 578.01 798.877C577.885 798.654 577.823 798.411 577.824 798.15C577.824 797.887 577.886 797.644 578.01 797.42C578.134 797.197 578.321 797.007 578.572 796.85L588.873 790.314C589.012 790.209 589.164 790.143 589.33 790.117C589.496 790.091 589.649 790.078 589.787 790.078C590.23 790.078 590.618 790.222 590.95 790.511C591.283 790.8 591.449 791.18 591.449 791.653Z" fill="#FAFAFA"/>
<g filter="url(#filter6_d_20_3285)">
<rect x="780" y="759" width="78.3" height="78.2999" rx="39.15" fill="#474646"/>
</g>
<g filter="url(#filter7_d_20_3285)">
<path d="M825.676 789.975L825.676 805.725C825.676 806.172 825.827 806.545 826.129 806.847C826.432 807.148 826.805 807.299 827.251 807.3C827.697 807.3 828.071 807.149 828.374 806.847C828.676 806.544 828.827 806.17 828.826 805.725L828.826 789.975C828.826 789.529 828.674 789.155 828.372 788.852C828.07 788.55 827.696 788.399 827.251 788.4C826.804 788.4 826.431 788.552 826.129 788.854C825.828 789.156 825.677 789.53 825.676 789.975ZM808.351 791.353L808.351 804.347C808.351 804.82 808.508 805.2 808.823 805.489C809.138 805.778 809.506 805.922 809.926 805.922C810.057 805.922 810.201 805.909 810.359 805.883C810.516 805.857 810.661 805.791 810.792 805.686L820.557 799.15C820.793 798.992 820.971 798.802 821.089 798.578C821.208 798.354 821.267 798.112 821.266 797.85C821.266 797.588 821.207 797.345 821.089 797.121C820.972 796.897 820.794 796.707 820.557 796.551L810.792 790.015C810.661 789.91 810.516 789.844 810.359 789.818C810.201 789.792 810.057 789.778 809.926 789.778C809.506 789.778 809.138 789.923 808.823 790.212C808.508 790.5 808.351 790.881 808.351 791.353Z" fill="#FAFAFA"/>
</g>
<g filter="url(#filter8_d_20_3285)">
<rect x="649.5" y="747" width="100.5" height="100.5" rx="50.25" fill="#474646"/>
</g>
<path d="M689.5 810.512L689.5 783.99C689.5 783.264 689.756 782.655 690.268 782.163C690.781 781.671 691.379 781.426 692.062 781.427C692.276 781.427 692.5 781.459 692.736 781.522C692.972 781.585 693.195 781.682 693.407 781.812L714.292 795.073C714.676 795.329 714.965 795.649 715.158 796.034C715.351 796.418 715.447 796.824 715.445 797.251C715.445 797.678 715.349 798.084 715.158 798.468C714.966 798.852 714.678 799.173 714.292 799.429L693.407 812.69C693.194 812.818 692.97 812.914 692.736 812.979C692.502 813.044 692.277 813.076 692.062 813.074C691.379 813.074 690.781 812.828 690.268 812.336C689.756 811.844 689.5 811.236 689.5 810.512Z" fill="#FAFAFA"/>
<g filter="url(#filter9_d_20_3285)">
<rect width="1401" height="120" transform="translate(1399.5 120) rotate(180)" fill="#3A3A3A"/>
<g filter="url(#filter10_d_20_3285)">
<path d="M969 60C969 35.9756 988.476 16.5 1012.5 16.5H1290C1314.02 16.5 1333.5 35.9756 1333.5 60V60C1333.5 84.0244 1314.02 103.5 1290 103.5H1012.5C988.476 103.5 969 84.0244 969 60V60Z" fill="#1F1F1F"/>
<path d="M1018.52 47.9008C1016.46 47.9008 1014.46 48.5251 1012.75 49.6948C1011.04 50.8645 1009.71 52.5271 1008.92 54.4722C1008.14 56.4173 1007.93 58.5577 1008.33 60.6227C1008.73 62.6876 1009.72 64.5844 1011.17 66.0731C1012.63 67.5619 1014.48 68.5757 1016.49 68.9865C1018.51 69.3972 1020.59 69.1864 1022.49 68.3807C1024.39 67.575 1026.01 66.2106 1027.15 64.46C1028.29 62.7094 1028.9 60.6513 1028.9 58.5459C1028.9 55.7236 1027.8 53.0176 1025.86 51.0219C1023.91 49.0262 1021.27 47.9037 1018.52 47.9008ZM1018.52 65.6426C1017.15 65.6426 1015.81 65.2264 1014.67 64.4466C1013.53 63.6668 1012.64 62.5585 1012.12 61.2617C1011.6 59.9649 1011.46 58.538 1011.73 57.1614C1011.99 55.7848 1012.65 54.5203 1013.62 53.5278C1014.59 52.5353 1015.82 51.8594 1017.17 51.5855C1018.51 51.3117 1019.9 51.4522 1021.17 51.9894C1022.43 52.5265 1023.51 53.4361 1024.27 54.6032C1025.04 55.7702 1025.44 57.1423 1025.44 58.5459C1025.44 60.4281 1024.71 62.2332 1023.41 63.5641C1022.11 64.8949 1020.35 65.6426 1018.52 65.6426ZM1037.56 59.0249C1037.57 58.7056 1037.57 58.3862 1037.56 58.0669L1040.79 53.933C1040.95 53.716 1041.07 53.4612 1041.13 53.1893C1041.18 52.9173 1041.18 52.6358 1041.11 52.3673C1040.58 50.3283 1039.79 48.3706 1038.75 46.5458C1038.62 46.307 1038.43 46.1038 1038.2 45.9525C1037.98 45.8012 1037.72 45.7059 1037.45 45.6742L1032.32 45.0887C1032.11 44.8581 1031.89 44.6363 1031.67 44.4234L1031.07 39.1497C1031.04 38.8751 1030.94 38.6119 1030.79 38.3808C1030.65 38.1498 1030.45 37.9574 1030.21 37.819C1028.43 36.7619 1026.52 35.9513 1024.53 35.4083C1024.27 35.3369 1024 35.3296 1023.73 35.387C1023.47 35.4444 1023.22 35.5649 1023.01 35.7388L1018.98 39.0299C1018.67 39.0299 1018.36 39.0299 1018.05 39.0299L1014.02 35.7277C1013.81 35.5542 1013.56 35.4341 1013.29 35.3771C1013.03 35.3201 1012.75 35.3278 1012.49 35.3995C1010.5 35.9429 1008.59 36.7542 1006.81 37.8124C1006.58 37.951 1006.38 38.1435 1006.23 38.3745C1006.08 38.6055 1005.99 38.8687 1005.96 39.143L1005.39 44.4123C1005.16 44.6326 1004.95 44.8544 1004.74 45.0776L999.594 45.6831C999.326 45.715 999.07 45.8107 998.844 45.9624C998.619 46.1141 998.431 46.3176 998.296 46.5569C997.265 48.3824 996.474 50.34 995.944 52.3784C995.875 52.647 995.867 52.9287 995.923 53.2006C995.979 53.4726 996.097 53.7273 996.267 53.9441L999.477 58.0669C999.477 58.3862 999.477 58.7056 999.477 59.0249L996.256 63.1588C996.087 63.3758 995.969 63.6306 995.914 63.9025C995.858 64.1745 995.866 64.456 995.936 64.7245C996.465 66.7635 997.256 68.7212 998.29 70.546C998.425 70.7848 998.613 70.988 998.838 71.1393C999.063 71.2906 999.32 71.3859 999.588 71.4176L1004.72 72.0031C1004.93 72.2337 1005.15 72.4555 1005.37 72.6684L1005.97 77.9422C1006 78.2167 1006.09 78.48 1006.24 78.711C1006.39 78.942 1006.59 79.1344 1006.82 79.2728C1008.6 80.3299 1010.51 81.1405 1012.5 81.6835C1012.76 81.7549 1013.04 81.7622 1013.3 81.7048C1013.57 81.6474 1013.82 81.5269 1014.03 81.353L1018.05 78.0619C1018.36 78.0708 1018.67 78.0708 1018.98 78.0619L1023.02 81.3708C1023.23 81.5443 1023.48 81.6644 1023.74 81.7214C1024.01 81.7784 1024.28 81.7707 1024.55 81.699C1026.53 81.1566 1028.44 80.3451 1030.22 79.2861C1030.46 79.1474 1030.66 78.9549 1030.8 78.7239C1030.95 78.4929 1031.04 78.2298 1031.08 77.9555L1031.65 72.695C1031.87 72.4762 1032.09 72.2544 1032.3 72.0297L1037.44 71.4087C1037.71 71.3768 1037.97 71.2812 1038.19 71.1295C1038.42 70.9778 1038.6 70.7742 1038.74 70.5349C1039.77 68.7094 1040.56 66.7519 1041.09 64.7134C1041.16 64.4448 1041.17 64.1631 1041.11 63.8912C1041.06 63.6192 1040.94 63.3645 1040.77 63.1477L1037.56 59.0249ZM1034.07 57.5834C1034.11 58.2245 1034.11 58.8673 1034.07 59.5084C1034.05 59.9473 1034.18 60.3804 1034.45 60.7237L1037.52 64.6557C1037.17 65.8034 1036.72 66.9166 1036.17 67.9823L1031.28 68.5501C1030.86 68.5985 1030.46 68.8071 1030.18 69.1356C1029.76 69.6157 1029.32 70.0704 1028.85 70.4972C1028.53 70.7888 1028.33 71.1918 1028.28 71.6283L1027.74 76.6359C1026.7 77.1944 1025.61 77.6567 1024.49 78.0176L1020.65 74.8706C1020.35 74.6191 1019.96 74.4822 1019.57 74.4825H1019.47C1018.84 74.5202 1018.21 74.5202 1017.59 74.4825C1017.16 74.4561 1016.74 74.5936 1016.4 74.8684L1012.56 78.0176C1011.44 77.6565 1010.35 77.1941 1009.31 76.6359L1008.76 71.6305C1008.71 71.194 1008.51 70.791 1008.19 70.4995C1007.72 70.0726 1007.27 69.6179 1006.86 69.1378C1006.57 68.8094 1006.18 68.6007 1005.75 68.5523L1000.87 67.9934C1000.32 66.9278 999.873 65.8145 999.521 64.6668L1002.59 60.7326C1002.86 60.3893 1002.99 59.9562 1002.97 59.5173C1002.93 58.8762 1002.93 58.2334 1002.97 57.5923C1002.99 57.1534 1002.86 56.7203 1002.59 56.377L999.521 52.4361C999.873 51.2885 1000.32 50.1752 1000.87 49.1095L1005.75 48.5417C1006.18 48.4933 1006.57 48.2847 1006.86 47.9563C1007.27 47.4761 1007.72 47.0215 1008.18 46.5946C1008.51 46.3028 1008.71 45.8989 1008.76 45.4613L1009.3 40.4559C1010.34 39.8975 1011.43 39.4351 1012.55 39.0743L1016.38 42.2212C1016.72 42.496 1017.14 42.6335 1017.57 42.6071C1018.2 42.5694 1018.82 42.5694 1019.45 42.6071C1019.88 42.6335 1020.3 42.496 1020.63 42.2212L1024.48 39.0743C1025.6 39.4354 1026.68 39.8977 1027.72 40.4559L1028.28 45.4613C1028.32 45.8978 1028.53 46.3008 1028.85 46.5923C1029.32 47.0192 1029.76 47.4739 1030.18 47.954C1030.46 48.2825 1030.85 48.4911 1031.28 48.5395L1036.17 49.0962C1036.71 50.1618 1037.16 51.2751 1037.51 52.4228L1034.44 56.357C1034.17 56.7032 1034.04 57.1407 1034.07 57.5834H1034.07Z" fill="#E4E4E4"/>
</g>
<path d="M1068.58 49.68V67.5H1066.42V49.68H1068.58ZM1090.28 49.68V67.5H1087.61L1080.16 55.566L1078.27 52.218H1078.24L1078.35 54.918V67.5H1076.3V49.68H1078.97L1086.39 61.56L1088.31 64.989H1088.34L1088.23 62.262V49.68H1090.28ZM1103.74 49.41C1105.3 49.41 1106.65 49.734 1107.79 50.382C1108.92 51.012 1109.87 51.948 1110.62 53.19L1108.81 54.594C1108.15 53.442 1107.39 52.632 1106.55 52.164C1105.72 51.678 1104.71 51.435 1103.52 51.435C1102.57 51.435 1101.78 51.57 1101.15 51.84C1100.53 52.11 1100.08 52.47 1099.8 52.92C1099.51 53.352 1099.36 53.847 1099.36 54.405C1099.36 55.035 1099.56 55.593 1099.96 56.079C1100.35 56.547 1101.15 56.916 1102.33 57.186L1106.19 58.05C1107.9 58.428 1109.09 59.004 1109.76 59.778C1110.44 60.534 1110.78 61.479 1110.78 62.613C1110.78 63.621 1110.5 64.521 1109.92 65.313C1109.36 66.087 1108.57 66.69 1107.54 67.122C1106.52 67.554 1105.31 67.77 1103.93 67.77C1102.63 67.77 1101.49 67.599 1100.5 67.257C1099.53 66.897 1098.69 66.42 1097.99 65.826C1097.28 65.232 1096.71 64.566 1096.26 63.828L1098.15 62.289C1098.49 62.973 1098.93 63.576 1099.47 64.098C1100.01 64.62 1100.66 65.025 1101.42 65.313C1102.19 65.601 1103.07 65.745 1104.06 65.745C1104.98 65.745 1105.77 65.637 1106.44 65.421C1107.12 65.187 1107.64 64.854 1108 64.422C1108.36 63.972 1108.54 63.432 1108.54 62.802C1108.54 62.226 1108.35 61.713 1107.98 61.263C1107.6 60.795 1106.89 60.444 1105.84 60.21L1101.66 59.265C1100.56 59.013 1099.67 58.671 1098.99 58.239C1098.32 57.789 1097.83 57.267 1097.53 56.673C1097.24 56.061 1097.1 55.404 1097.1 54.702C1097.1 53.748 1097.36 52.875 1097.88 52.083C1098.42 51.273 1099.18 50.625 1100.17 50.139C1101.18 49.653 1102.37 49.41 1103.74 49.41ZM1128.91 49.68V51.705H1122.7V67.5H1120.54V51.705H1114.33V49.68H1128.91ZM1146.34 67.5H1144.05L1142.16 62.559H1134.09L1132.2 67.5H1129.93L1136.87 49.68H1139.43L1146.34 67.5ZM1134.87 60.534H1141.38L1138.11 51.759L1134.87 60.534ZM1135.52 44.388C1135.99 44.388 1136.35 44.532 1136.62 44.82C1136.91 45.09 1137.06 45.459 1137.06 45.927C1137.06 46.377 1136.91 46.746 1136.62 47.034C1136.35 47.322 1135.99 47.466 1135.52 47.466C1135.07 47.466 1134.7 47.322 1134.41 47.034C1134.12 46.746 1133.98 46.377 1133.98 45.927C1133.98 45.459 1134.12 45.09 1134.41 44.82C1134.7 44.532 1135.07 44.388 1135.52 44.388ZM1140.76 44.388C1141.22 44.388 1141.59 44.532 1141.86 44.82C1142.15 45.09 1142.29 45.459 1142.29 45.927C1142.29 46.377 1142.15 46.746 1141.86 47.034C1141.59 47.322 1141.22 47.466 1140.76 47.466C1140.31 47.466 1139.94 47.322 1139.65 47.034C1139.36 46.746 1139.22 46.377 1139.22 45.927C1139.22 45.459 1139.36 45.09 1139.65 44.82C1139.94 44.532 1140.31 44.388 1140.76 44.388ZM1154.02 65.475H1164.22V67.5H1151.86V49.68H1154.02V65.475ZM1172.04 65.475H1182.25V67.5H1169.88V49.68H1172.04V65.475ZM1201.9 49.68V67.5H1199.22L1191.77 55.566L1189.88 52.218H1189.85L1189.96 54.918V67.5H1187.91V49.68H1190.58L1198.01 61.56L1199.92 64.989H1199.95L1199.84 62.262V49.68H1201.9ZM1211.79 49.68V67.5H1209.63V49.68H1211.79ZM1233.49 49.68V67.5H1230.82L1223.37 55.566L1221.48 52.218H1221.45L1221.56 54.918V67.5H1219.51V49.68H1222.18L1229.61 61.56L1231.52 64.989H1231.55L1231.44 62.262V49.68H1233.49ZM1248.41 67.77C1246.72 67.77 1245.25 67.401 1244.01 66.663C1242.78 65.907 1241.83 64.845 1241.14 63.477C1240.48 62.109 1240.15 60.48 1240.15 58.59C1240.15 56.7 1240.5 55.071 1241.2 53.703C1241.92 52.335 1242.92 51.282 1244.2 50.544C1245.47 49.788 1246.94 49.41 1248.6 49.41C1250.36 49.41 1251.79 49.743 1252.89 50.409C1254.01 51.075 1254.91 52.101 1255.59 53.487L1253.62 54.567C1253.22 53.541 1252.59 52.767 1251.73 52.245C1250.88 51.705 1249.84 51.435 1248.6 51.435C1247.39 51.435 1246.32 51.723 1245.38 52.299C1244.47 52.857 1243.74 53.676 1243.2 54.756C1242.67 55.818 1242.41 57.096 1242.41 58.59C1242.41 60.084 1242.64 61.371 1243.09 62.451C1243.56 63.513 1244.24 64.332 1245.14 64.908C1246.06 65.466 1247.17 65.745 1248.49 65.745C1249.23 65.745 1249.91 65.655 1250.54 65.475C1251.19 65.277 1251.75 64.989 1252.21 64.611C1252.7 64.233 1253.08 63.756 1253.35 63.18C1253.62 62.604 1253.75 61.929 1253.75 61.155V60.534H1248.08V58.509H1255.72V67.5H1254.02L1253.92 64.179L1254.37 64.26C1253.91 65.376 1253.17 66.24 1252.16 66.852C1251.15 67.464 1249.9 67.77 1248.41 67.77ZM1276.86 67.5H1274.56L1272.67 62.559H1264.6L1262.71 67.5H1260.44L1267.38 49.68H1269.94L1276.86 67.5ZM1265.38 60.534H1271.89L1268.62 51.759L1265.38 60.534ZM1289.12 49.68C1290.94 49.68 1292.39 50.148 1293.49 51.084C1294.59 52.02 1295.14 53.289 1295.14 54.891C1295.14 56.493 1294.58 57.744 1293.46 58.644C1292.37 59.526 1290.91 59.967 1289.09 59.967L1288.9 60.102H1284.53V67.5H1282.37V49.68H1289.12ZM1289.09 58.077C1290.37 58.077 1291.31 57.816 1291.93 57.294C1292.56 56.754 1292.87 55.953 1292.87 54.891C1292.87 53.829 1292.56 53.037 1291.93 52.515C1291.31 51.975 1290.37 51.705 1289.09 51.705H1284.53V58.077H1289.09ZM1290.33 58.509L1296.22 67.5H1293.65L1288.52 59.697L1290.33 58.509Z" fill="#E4E4E4"/>
<path d="M675.614 47.28L675.614 75L672.254 75L672.254 47.28L675.614 47.28ZM657.218 47.28L657.218 75L653.858 75L653.858 47.28L657.218 47.28ZM673.808 59.376L673.808 62.526L655.622 62.526L655.622 59.376L673.808 59.376ZM687.642 75L687.642 47.28L707.088 47.28V50.43L691.002 50.43V59.376L703.518 59.376L703.518 62.526L691.002 62.526V71.85L707.718 71.85V75L687.642 75ZM744.161 47.28L744.161 75L740.969 75L740.969 57.57L741.347 50.262H741.305L732.191 75L729.335 75L720.221 50.262H720.179L720.557 57.57L720.557 75L717.365 75L717.365 47.28L722.531 47.28L728.621 64.122L730.721 71.052H730.805L732.947 64.164L738.995 47.28L744.161 47.28Z" fill="#FAFAFA"/>
<path d="M66.984 75.5V52.268C66.984 51.724 66.984 51.148 66.984 50.54C67.016 49.9 67.048 49.244 67.08 48.572C65.992 49.628 64.728 50.556 63.288 51.356C61.848 52.124 60.376 52.684 58.872 53.036L57.864 49.532C58.44 49.468 59.16 49.26 60.024 48.908C60.92 48.524 61.848 48.06 62.808 47.516C63.8 46.94 64.712 46.332 65.544 45.692C66.376 45.052 67.016 44.428 67.464 43.82H70.824V75.5H66.984ZM93.2711 75.5V67.196H77.8151V64.364L92.2631 43.82H97.1111V63.884H102.727V67.196H97.1111V75.5H93.2711ZM81.8951 63.884H93.2711V52.028C93.2711 51.196 93.2871 50.348 93.3191 49.484C93.3831 48.62 93.4311 47.772 93.4631 46.94H93.3671C92.9831 47.74 92.4871 48.636 91.8791 49.628C91.2711 50.62 90.7111 51.484 90.1991 52.22L81.8951 63.884ZM112.151 51.02C113.079 51.02 113.831 51.308 114.407 51.884C114.983 52.46 115.271 53.212 115.271 54.14C115.271 55.068 114.983 55.82 114.407 56.396C113.831 56.972 113.079 57.26 112.151 57.26C111.223 57.26 110.471 56.972 109.895 56.396C109.319 55.82 109.031 55.068 109.031 54.14C109.031 53.212 109.319 52.46 109.895 51.884C110.471 51.308 111.223 51.02 112.151 51.02ZM112.151 69.74C113.079 69.74 113.831 70.028 114.407 70.604C114.983 71.18 115.271 71.932 115.271 72.86C115.271 73.788 114.983 74.54 114.407 75.116C113.831 75.692 113.079 75.98 112.151 75.98C111.223 75.98 110.471 75.692 109.895 75.116C109.319 74.54 109.031 73.788 109.031 72.86C109.031 71.932 109.319 71.18 109.895 70.604C110.471 70.028 111.223 69.74 112.151 69.74ZM129.234 75.5V52.268C129.234 51.724 129.234 51.148 129.234 50.54C129.266 49.9 129.298 49.244 129.33 48.572C128.242 49.628 126.978 50.556 125.538 51.356C124.098 52.124 122.626 52.684 121.122 53.036L120.114 49.532C120.69 49.468 121.41 49.26 122.274 48.908C123.17 48.524 124.098 48.06 125.058 47.516C126.05 46.94 126.962 46.332 127.794 45.692C128.626 45.052 129.266 44.428 129.714 43.82H133.074V75.5H129.234ZM151.729 75.98C148.913 75.98 146.641 75.34 144.913 74.06C143.217 72.78 141.905 71.004 140.977 68.732L144.721 66.764C145.233 68.428 146.017 69.788 147.073 70.844C148.161 71.868 149.745 72.38 151.825 72.38C153.297 72.38 154.545 72.108 155.569 71.564C156.625 71.02 157.441 70.252 158.017 69.26C158.593 68.236 158.881 67.02 158.881 65.612C158.881 64.108 158.609 62.86 158.065 61.868C157.553 60.844 156.801 60.076 155.809 59.564C154.817 59.052 153.601 58.796 152.161 58.796C151.137 58.796 150.177 58.908 149.281 59.132C148.417 59.324 147.633 59.644 146.929 60.092C146.225 60.54 145.617 61.132 145.105 61.868L141.745 61.244L143.617 43.82H161.425V47.42H146.881L145.633 57.404L145.537 57.836H145.633C146.401 57.036 147.377 56.396 148.561 55.916C149.777 55.436 151.217 55.196 152.881 55.196C154.897 55.196 156.641 55.628 158.113 56.492C159.617 57.324 160.785 58.508 161.617 60.044C162.449 61.58 162.865 63.372 162.865 65.42C162.865 67.052 162.593 68.524 162.049 69.836C161.505 71.148 160.737 72.268 159.745 73.196C158.753 74.092 157.569 74.78 156.193 75.26C154.849 75.74 153.361 75.98 151.729 75.98Z" fill="#FAFAFA"/>
<path d="M249.001 45.5623C247.355 45.5612 245.717 45.798 244.131 46.2661C243.504 45.1702 242.744 44.1695 241.869 43.291L244.155 39.7925C244.3 39.5705 244.402 39.3202 244.457 39.0557C244.512 38.7912 244.517 38.5177 244.473 38.2509C244.43 37.9841 244.337 37.7291 244.201 37.5006C244.066 37.2721 243.889 37.0745 243.682 36.9191C243.475 36.7637 243.242 36.6536 242.995 36.5949C242.749 36.5363 242.494 36.5303 242.245 36.5774C241.996 36.6244 241.758 36.7235 241.545 36.8691C241.332 37.0147 241.148 37.2038 241.003 37.4257L238.717 40.9217C236.837 39.9037 234.76 39.3738 232.654 39.3748C232.515 39.3748 232.376 39.3748 232.236 39.3748L231.542 35.175C231.505 34.9014 231.418 34.6384 231.285 34.4017C231.151 34.1649 230.975 33.9593 230.767 33.7971C230.558 33.6348 230.321 33.5192 230.07 33.457C229.819 33.3949 229.558 33.3876 229.305 33.4355C229.051 33.4834 228.808 33.5855 228.592 33.7358C228.376 33.8861 228.19 34.0815 228.045 34.3104C227.901 34.5393 227.801 34.797 227.751 35.0682C227.701 35.3394 227.703 35.6186 227.755 35.8892L228.448 40.1018C226.315 40.8584 224.392 42.1744 222.854 43.9303L219.58 41.4734C219.373 41.3142 219.139 41.2006 218.891 41.1391C218.643 41.0777 218.386 41.0697 218.135 41.1156C217.884 41.1615 217.644 41.2603 217.429 41.4064C217.214 41.5525 217.028 41.7429 216.882 41.9666C216.736 42.1903 216.633 42.4428 216.579 42.7096C216.525 42.9763 216.521 43.2519 216.567 43.5205C216.612 43.789 216.708 44.0451 216.846 44.2739C216.985 44.5027 217.165 44.6996 217.375 44.8533L220.635 47.3077C219.683 49.3235 219.188 51.5524 219.193 53.8123C219.193 53.9593 219.193 54.1088 219.193 54.2557L215.277 54.9982C214.803 55.0873 214.377 55.3637 214.084 55.7728C213.791 56.182 213.651 56.6942 213.693 57.2084C213.734 57.7225 213.954 58.2012 214.309 58.55C214.664 58.8988 215.127 59.0923 215.609 59.0923C215.721 59.0921 215.832 59.0818 215.943 59.0614L219.866 58.3189C220.211 59.4444 220.684 60.5199 221.275 61.5209C219.435 63.3533 218.153 65.7373 217.594 68.3625C217.036 70.9876 217.228 73.7322 218.145 76.2388C219.061 78.7454 220.661 80.8979 222.734 82.416C224.808 83.934 227.259 84.7473 229.77 84.7498H249.001C253.846 84.7498 258.493 82.6855 261.919 79.0109C265.346 75.3364 267.27 70.3526 267.27 65.1561C267.27 59.9595 265.346 54.9757 261.919 51.3012C258.493 47.6266 253.846 45.5623 249.001 45.5623ZM223.039 53.8123C223.04 51.6283 223.688 49.501 224.889 47.7371C226.089 45.9732 227.781 44.6637 229.721 43.9973C231.66 43.331 233.747 43.3422 235.68 44.0293C237.613 44.7164 239.292 46.044 240.477 47.8207C236.554 50.0348 233.512 53.6985 231.914 58.1332C229.386 57.6652 226.785 58.0405 224.462 59.2083C223.532 57.5852 223.039 55.7174 223.039 53.8123ZM249.001 80.6248H229.77C228.586 80.6225 227.416 80.3598 226.33 79.8529C225.245 79.3461 224.269 78.6059 223.461 77.6781C222.653 76.7503 222.031 75.6547 221.634 74.4589C221.237 73.2632 221.072 71.9927 221.151 70.7261C221.23 69.4595 221.55 68.2237 222.092 67.0951C222.633 65.9665 223.385 64.9691 224.301 64.1645C225.216 63.36 226.276 62.7654 227.414 62.4176C228.553 62.0697 229.745 61.976 230.919 62.1422C230.83 62.7532 230.767 63.3771 230.734 64.0062C230.719 64.2771 230.755 64.5483 230.838 64.8045C230.921 65.0607 231.051 65.2968 231.219 65.4994C231.387 65.7019 231.591 65.8669 231.819 65.9849C232.047 66.103 232.294 66.1717 232.546 66.1873C232.799 66.2029 233.052 66.165 233.291 66.0757C233.53 65.9864 233.75 65.8476 233.939 65.6671C234.127 65.4866 234.281 65.2679 234.391 65.0237C234.501 64.7794 234.565 64.5142 234.58 64.2434C234.634 63.2147 234.785 62.1945 235.032 61.1986C235.032 61.1574 235.054 61.1161 235.061 61.0749C235.768 58.2891 237.187 55.7707 239.157 53.8041C241.128 51.8375 243.573 50.501 246.214 49.9456C248.856 49.3902 251.59 49.6379 254.107 50.6608C256.625 51.6837 258.825 53.4411 260.46 55.7345C262.096 58.0278 263.101 60.7658 263.362 63.6393C263.623 66.5128 263.129 69.4074 261.938 71.9961C260.746 74.5848 258.903 76.7646 256.617 78.2893C254.331 79.8141 251.693 80.623 249.001 80.6248Z" fill="#FAFAFA"/>
<path d="M299.035 60.683V63.92H286.165V60.683H299.035ZM303.86 72.5V69.965C306.434 68.067 308.579 66.403 310.295 64.973C312.037 63.543 313.428 62.243 314.468 61.073C315.508 59.903 316.249 58.798 316.691 57.758C317.133 56.692 317.354 55.587 317.354 54.443C317.354 52.909 316.86 51.674 315.872 50.738C314.91 49.776 313.584 49.295 311.894 49.295C310.126 49.295 308.709 49.88 307.643 51.05C306.577 52.194 305.953 53.728 305.771 55.652L303.041 54.014C303.275 52.506 303.756 51.18 304.484 50.036C305.238 48.892 306.239 47.995 307.487 47.345C308.761 46.695 310.269 46.37 312.011 46.37C313.337 46.37 314.52 46.565 315.56 46.955C316.626 47.345 317.536 47.904 318.29 48.632C319.044 49.334 319.616 50.179 320.006 51.167C320.422 52.155 320.63 53.247 320.63 54.443C320.63 56.055 320.24 57.641 319.46 59.201C318.68 60.735 317.393 62.347 315.599 64.037C313.805 65.727 311.374 67.599 308.306 69.653V69.692C308.592 69.666 308.982 69.653 309.476 69.653C309.996 69.627 310.503 69.614 310.997 69.614C311.517 69.588 311.907 69.575 312.167 69.575H321.176V72.5H303.86ZM332.681 59.24C331.407 59.24 330.263 58.967 329.249 58.421C328.261 57.849 327.481 57.082 326.909 56.12C326.337 55.158 326.051 54.053 326.051 52.805C326.051 51.557 326.337 50.452 326.909 49.49C327.481 48.502 328.261 47.735 329.249 47.189C330.263 46.643 331.407 46.37 332.681 46.37C333.981 46.37 335.125 46.643 336.113 47.189C337.101 47.735 337.881 48.502 338.453 49.49C339.025 50.452 339.311 51.557 339.311 52.805C339.311 54.053 339.025 55.158 338.453 56.12C337.881 57.082 337.101 57.849 336.113 58.421C335.125 58.967 333.981 59.24 332.681 59.24ZM332.681 56.705C333.825 56.705 334.761 56.341 335.489 55.613C336.217 54.859 336.581 53.923 336.581 52.805C336.581 51.661 336.217 50.725 335.489 49.997C334.761 49.269 333.825 48.905 332.681 48.905C331.563 48.905 330.627 49.269 329.873 49.997C329.145 50.725 328.781 51.661 328.781 52.805C328.781 53.923 329.145 54.859 329.873 55.613C330.627 56.341 331.563 56.705 332.681 56.705ZM366.61 65.909C366.064 67.365 365.284 68.626 364.27 69.692C363.256 70.732 362.06 71.525 360.682 72.071C359.33 72.617 357.848 72.89 356.236 72.89C353.792 72.89 351.673 72.357 349.879 71.291C348.111 70.199 346.733 68.665 345.745 66.689C344.783 64.713 344.302 62.36 344.302 59.63C344.302 56.9 344.783 54.547 345.745 52.571C346.733 50.595 348.111 49.074 349.879 48.008C351.673 46.916 353.766 46.37 356.158 46.37C357.822 46.37 359.304 46.604 360.604 47.072C361.904 47.514 363.009 48.19 363.919 49.1C364.855 49.984 365.596 51.076 366.142 52.376L363.061 53.819C362.489 52.337 361.657 51.219 360.565 50.465C359.499 49.685 358.108 49.295 356.392 49.295C354.65 49.295 353.116 49.711 351.79 50.543C350.464 51.349 349.424 52.519 348.67 54.053C347.942 55.587 347.578 57.446 347.578 59.63C347.578 61.788 347.929 63.647 348.631 65.207C349.333 66.741 350.334 67.924 351.634 68.756C352.934 69.562 354.468 69.965 356.236 69.965C357.952 69.965 359.447 69.536 360.721 68.678C361.995 67.794 362.918 66.481 363.49 64.739L366.61 65.909Z" fill="#FAFAFA"/>
<rect x="-1.5" width="21" height="120" fill="url(#paint2_linear_20_3285)"/>
</g>
<g filter="url(#filter11_d_20_3285)">
<g clip-path="url(#clip3_20_3285)">
<rect x="174" y="205.5" width="255" height="255" rx="75" fill="url(#paint3_linear_20_3285)"/>
<path d="M343.436 391.812C343.087 391.997 342.702 392.115 342.304 392.16C341.906 392.205 341.503 392.175 341.117 392.073C340.731 391.97 340.37 391.797 340.056 391.564C339.741 391.33 339.479 391.04 339.284 390.71L312.787 346.405H305.44V349.265C305.44 350.024 305.12 350.751 304.549 351.288C303.979 351.824 303.205 352.126 302.398 352.126C301.591 352.126 300.818 351.824 300.247 351.288C299.677 350.751 299.356 350.024 299.356 349.265V346.405H292.009L278.761 368.558L265.512 390.71C265.117 391.374 264.458 391.863 263.679 392.07C262.9 392.276 262.066 392.183 261.36 391.812C260.654 391.44 260.134 390.82 259.914 390.087C259.695 389.355 259.793 388.571 260.189 387.907L285.028 346.405H262.851C262.044 346.405 261.27 346.104 260.7 345.567C260.129 345.031 259.809 344.303 259.809 343.545C259.809 342.786 260.129 342.059 260.7 341.522C261.27 340.986 262.044 340.685 262.851 340.685H341.946C342.753 340.685 343.526 340.986 344.097 341.522C344.667 342.059 344.988 342.786 344.988 343.545C344.988 344.303 344.667 345.031 344.097 345.567C343.526 346.104 342.753 346.405 341.946 346.405H319.769L344.608 387.907C344.805 388.236 344.931 388.597 344.978 388.972C345.026 389.346 344.994 389.726 344.886 390.088C344.777 390.451 344.593 390.79 344.344 391.086C344.095 391.382 343.787 391.628 343.436 391.812ZM302.398 360.706C301.591 360.706 300.818 361.008 300.247 361.544C299.677 362.08 299.356 362.808 299.356 363.567V369.287C299.356 370.046 299.677 370.773 300.247 371.31C300.818 371.846 301.591 372.147 302.398 372.147C303.205 372.147 303.979 371.846 304.549 371.31C305.12 370.773 305.44 370.046 305.44 369.287V363.567C305.44 362.808 305.12 362.08 304.549 361.544C303.979 361.008 303.205 360.706 302.398 360.706ZM302.398 380.728C301.591 380.728 300.818 381.029 300.247 381.566C299.677 382.102 299.356 382.83 299.356 383.588V389.309C299.356 390.067 299.677 390.795 300.247 391.331C300.818 391.868 301.591 392.169 302.398 392.169C303.205 392.169 303.979 391.868 304.549 391.331C305.12 390.795 305.44 390.067 305.44 389.309V383.588C305.44 382.83 305.12 382.102 304.549 381.566C303.979 381.029 303.205 380.728 302.398 380.728Z" fill="#FAFAFA"/>
<path d="M348.844 340.5H342.187V305.831C342.188 305.001 341.997 304.179 341.626 303.419C341.256 302.659 340.715 301.976 340.037 301.414L306.755 273.109C306.739 273.096 306.724 273.082 306.71 273.067C305.484 272.063 303.888 271.506 302.231 271.506C300.575 271.506 298.978 272.063 297.753 273.067L297.707 273.109L264.463 301.414C263.785 301.976 263.244 302.659 262.874 303.419C262.503 304.179 262.312 305.001 262.312 305.831V340.5H255.656C254.774 340.5 253.927 340.816 253.303 341.379C252.679 341.941 252.328 342.704 252.328 343.5C252.328 344.296 252.679 345.059 253.303 345.621C253.927 346.184 254.774 346.5 255.656 346.5H348.844C349.726 346.5 350.573 346.184 351.197 345.621C351.821 345.059 352.172 344.296 352.172 343.5C352.172 342.704 351.821 341.941 351.197 341.379C350.573 340.816 349.726 340.5 348.844 340.5ZM268.969 305.831L269.015 305.794L302.25 277.5L335.49 305.786L335.535 305.824V340.5H315.562V322.5C315.562 320.909 314.861 319.383 313.613 318.257C312.365 317.132 310.672 316.5 308.906 316.5H295.594C293.828 316.5 292.135 317.132 290.887 318.257C289.639 319.383 288.937 320.909 288.937 322.5V340.5H268.969V305.831ZM308.906 340.5H295.594V322.5H308.906V340.5Z" fill="#FAFAFA"/>
</g>
</g>
<path d="M250.161 487.18L242.223 495.766L241.899 495.793L237.282 500.761L237.012 497.602L246.624 487.18H250.161ZM238.443 487.18V505H235.554V487.18H238.443ZM242.817 493.552L250.323 505H246.921L240.522 495.172L242.817 493.552ZM261.282 486.91C263.01 486.91 264.504 487.279 265.764 488.017C267.024 488.755 267.996 489.808 268.68 491.176C269.364 492.544 269.706 494.182 269.706 496.09C269.706 497.998 269.364 499.636 268.68 501.004C267.996 502.372 267.024 503.425 265.764 504.163C264.504 504.901 263.01 505.27 261.282 505.27C259.572 505.27 258.087 504.901 256.827 504.163C255.567 503.425 254.595 502.372 253.911 501.004C253.227 499.636 252.885 497.998 252.885 496.09C252.885 494.182 253.227 492.544 253.911 491.176C254.595 489.808 255.567 488.755 256.827 488.017C258.087 487.279 259.572 486.91 261.282 486.91ZM261.282 489.421C260.166 489.421 259.203 489.682 258.393 490.204C257.601 490.726 256.989 491.482 256.557 492.472C256.125 493.462 255.909 494.668 255.909 496.09C255.909 497.494 256.125 498.7 256.557 499.708C256.989 500.698 257.601 501.454 258.393 501.976C259.203 502.498 260.166 502.759 261.282 502.759C262.416 502.759 263.379 502.498 264.171 501.976C264.981 501.454 265.602 500.698 266.034 499.708C266.466 498.7 266.682 497.494 266.682 496.09C266.682 494.668 266.466 493.462 266.034 492.472C265.602 491.482 264.981 490.726 264.171 490.204C263.379 489.682 262.416 489.421 261.282 489.421ZM258.555 481.78C259.095 481.78 259.518 481.933 259.824 482.239C260.148 482.545 260.31 482.959 260.31 483.481C260.31 483.985 260.148 484.399 259.824 484.723C259.518 485.029 259.095 485.182 258.555 485.182C258.033 485.182 257.61 485.029 257.286 484.723C256.962 484.399 256.8 483.985 256.8 483.481C256.8 482.959 256.962 482.545 257.286 482.239C257.61 481.933 258.033 481.78 258.555 481.78ZM264.009 481.78C264.549 481.78 264.972 481.933 265.278 482.239C265.602 482.545 265.764 482.959 265.764 483.481C265.764 483.985 265.602 484.399 265.278 484.723C264.972 485.029 264.549 485.182 264.009 485.182C263.469 485.182 263.037 485.029 262.713 484.723C262.407 484.399 262.254 483.985 262.254 483.481C262.254 482.959 262.407 482.545 262.713 482.239C263.037 481.933 263.469 481.78 264.009 481.78ZM282.615 487.18C284.523 487.18 286.035 487.657 287.151 488.611C288.285 489.565 288.852 490.852 288.852 492.472C288.852 494.146 288.285 495.442 287.151 496.36C286.035 497.26 284.523 497.71 282.615 497.71L282.345 497.872H278.214V505H275.352V487.18H282.615ZM282.399 495.469C283.569 495.469 284.433 495.235 284.991 494.767C285.567 494.281 285.855 493.543 285.855 492.553C285.855 491.581 285.567 490.852 284.991 490.366C284.433 489.88 283.569 489.637 282.399 489.637H278.214V495.469H282.399ZM284.1 496.063L289.905 505H286.584L281.616 497.197L284.1 496.063ZM319.58 487.18V505H316.664V487.18H319.58ZM307.862 487.18V505H304.973V487.18H307.862ZM318.122 494.74V497.224H306.431V494.74H318.122ZM326.204 505V487.18H339.11V489.664H329.093V494.794H336.923V497.224H329.093V502.516H339.488V505H326.204ZM362.944 487.18V505H360.271V494.686L360.487 489.772H360.46L355.033 505H352.63L347.203 489.772H347.176L347.392 494.686V505H344.719V487.18H349.012L352.603 497.494L353.845 501.733H353.899L355.168 497.494L358.732 487.18H362.944Z" fill="#FAFAFA"/>
<g filter="url(#filter12_d_20_3285)">
<g clip-path="url(#clip4_20_3285)">
<rect x="828" y="460.5" width="255" height="255" rx="75" transform="rotate(180 828 460.5)" fill="url(#paint4_linear_20_3285)" shape-rendering="crispEdges"/>
<rect x="573" y="205.5" width="255" height="255" rx="60" fill="url(#paint5_linear_20_3285)"/>
<path d="M701.545 313.277C697.503 313.277 693.552 314.475 690.191 316.721C686.83 318.967 684.21 322.159 682.664 325.893C681.117 329.627 680.712 333.737 681.501 337.701C682.289 341.666 684.236 345.307 687.094 348.166C689.952 351.024 693.594 352.97 697.558 353.759C701.523 354.548 705.632 354.143 709.367 352.596C713.101 351.049 716.293 348.43 718.539 345.069C720.784 341.708 721.983 337.756 721.983 333.714C721.983 328.294 719.83 323.095 715.997 319.263C712.164 315.43 706.966 313.277 701.545 313.277ZM701.545 345.977C699.12 345.977 696.749 345.257 694.733 343.91C692.716 342.563 691.144 340.647 690.216 338.407C689.288 336.166 689.045 333.701 689.519 331.322C689.992 328.943 691.16 326.758 692.875 325.043C694.589 323.328 696.774 322.16 699.153 321.687C701.532 321.214 703.997 321.457 706.238 322.385C708.479 323.313 710.394 324.885 711.741 326.901C713.089 328.918 713.808 331.289 713.808 333.714C713.808 336.966 712.516 340.085 710.216 342.385C707.917 344.685 704.798 345.977 701.545 345.977ZM739.207 349.625C737.45 353.776 735.02 357.609 732.013 360.968C731.284 361.755 730.276 362.225 729.204 362.276C728.133 362.327 727.084 361.954 726.285 361.239C725.485 360.523 724.999 359.522 724.931 358.452C724.864 357.381 725.22 356.326 725.922 355.516C731.289 349.523 734.257 341.761 734.257 333.717C734.257 325.672 731.289 317.91 725.922 311.918C725.554 311.519 725.269 311.052 725.083 310.542C724.898 310.033 724.816 309.492 724.841 308.95C724.867 308.408 725 307.877 725.233 307.387C725.466 306.898 725.794 306.459 726.198 306.098C726.602 305.736 727.074 305.458 727.586 305.281C728.099 305.103 728.641 305.03 729.182 305.064C729.724 305.098 730.252 305.24 730.738 305.48C731.224 305.721 731.657 306.056 732.013 306.466C737.174 312.241 740.59 319.363 741.863 327.003C743.137 334.643 742.215 342.488 739.207 349.625ZM671.4 320.987C668.988 326.696 668.249 332.973 669.267 339.086C670.286 345.199 673.021 350.897 677.153 355.516C677.856 356.326 678.212 357.381 678.144 358.452C678.076 359.522 677.59 360.523 676.791 361.239C675.992 361.954 674.943 362.327 673.871 362.276C672.8 362.225 671.791 361.755 671.063 360.968C664.352 353.477 660.641 343.774 660.641 333.717C660.641 323.66 664.352 313.956 671.063 306.466C671.786 305.656 672.801 305.167 673.885 305.106C674.968 305.044 676.032 305.416 676.842 306.139C677.651 306.862 678.141 307.877 678.202 308.96C678.263 310.044 677.892 311.108 677.169 311.918C674.757 314.6 672.808 317.665 671.4 320.987ZM762.858 333.714C762.883 349.766 756.589 365.184 745.338 376.633C744.966 377.031 744.518 377.35 744.02 377.573C743.523 377.795 742.986 377.916 742.441 377.927C741.896 377.939 741.354 377.842 740.848 377.641C740.341 377.44 739.88 377.141 739.491 376.759C739.102 376.377 738.793 375.922 738.582 375.419C738.372 374.917 738.264 374.377 738.265 373.832C738.266 373.287 738.376 372.748 738.589 372.246C738.802 371.744 739.112 371.29 739.503 370.91C749.245 360.985 754.703 347.632 754.703 333.724C754.703 319.816 749.245 306.464 739.503 296.538C738.741 295.765 738.318 294.72 738.327 293.634C738.336 292.549 738.775 291.511 739.549 290.749C740.323 289.988 741.367 289.565 742.453 289.573C743.539 289.582 744.576 290.022 745.338 290.795C756.589 302.245 762.883 317.662 762.858 333.714ZM663.588 370.9C663.964 371.283 664.262 371.737 664.463 372.235C664.664 372.733 664.765 373.266 664.76 373.803C664.755 374.34 664.645 374.871 664.435 375.365C664.225 375.859 663.92 376.308 663.537 376.684C663.154 377.06 662.7 377.358 662.202 377.559C661.704 377.76 661.171 377.861 660.634 377.856C660.097 377.852 659.566 377.741 659.072 377.531C658.578 377.321 658.129 377.016 657.753 376.633C646.503 365.18 640.2 349.768 640.2 333.714C640.2 317.66 646.503 302.248 657.753 290.795C658.125 290.397 658.573 290.078 659.071 289.856C659.568 289.633 660.105 289.513 660.65 289.501C661.195 289.489 661.736 289.586 662.243 289.787C662.75 289.988 663.211 290.288 663.6 290.669C663.989 291.051 664.298 291.506 664.509 292.009C664.719 292.512 664.827 293.051 664.826 293.596C664.825 294.141 664.714 294.68 664.502 295.182C664.289 295.684 663.979 296.138 663.588 296.518C653.846 306.444 648.388 319.796 648.388 333.704C648.388 347.612 653.846 360.964 663.588 370.89V370.9Z" fill="#FAFAFA"/>
</g>
</g>
<path d="M663.548 487.18C665.456 487.18 666.968 487.657 668.084 488.611C669.218 489.565 669.785 490.852 669.785 492.472C669.785 494.146 669.218 495.442 668.084 496.36C666.968 497.26 665.456 497.71 663.548 497.71L663.278 497.872H659.147V505H656.285V487.18H663.548ZM663.332 495.469C664.502 495.469 665.366 495.235 665.924 494.767C666.5 494.281 666.788 493.543 666.788 492.553C666.788 491.581 666.5 490.852 665.924 490.366C665.366 489.88 664.502 489.637 663.332 489.637H659.147V495.469H663.332ZM665.033 496.063L670.838 505H667.517L662.549 497.197L665.033 496.063ZM690.572 505H687.521L685.82 500.329H678.341L676.64 505H673.67L680.393 487.18H683.849L690.572 505ZM679.151 497.98H685.01L682.094 489.664L679.151 497.98ZM701.373 487.18C704.163 487.18 706.332 487.954 707.88 489.502C709.446 491.032 710.229 493.228 710.229 496.09C710.229 498.952 709.446 501.157 707.88 502.705C706.332 504.235 704.163 505 701.373 505H695.082V487.18H701.373ZM701.373 502.543C703.263 502.543 704.703 501.985 705.693 500.869C706.701 499.735 707.205 498.142 707.205 496.09C707.205 494.038 706.701 492.454 705.693 491.338C704.703 490.204 703.263 489.637 701.373 489.637H697.971V502.543H701.373ZM718.754 487.18V505H715.865V487.18H718.754ZM732.786 486.91C734.514 486.91 736.008 487.279 737.268 488.017C738.528 488.755 739.5 489.808 740.184 491.176C740.868 492.544 741.21 494.182 741.21 496.09C741.21 497.998 740.868 499.636 740.184 501.004C739.5 502.372 738.528 503.425 737.268 504.163C736.008 504.901 734.514 505.27 732.786 505.27C731.076 505.27 729.591 504.901 728.331 504.163C727.071 503.425 726.099 502.372 725.415 501.004C724.731 499.636 724.389 497.998 724.389 496.09C724.389 494.182 724.731 492.544 725.415 491.176C726.099 489.808 727.071 488.755 728.331 488.017C729.591 487.279 731.076 486.91 732.786 486.91ZM732.786 489.421C731.67 489.421 730.707 489.682 729.897 490.204C729.105 490.726 728.493 491.482 728.061 492.472C727.629 493.462 727.413 494.668 727.413 496.09C727.413 497.494 727.629 498.7 728.061 499.708C728.493 500.698 729.105 501.454 729.897 501.976C730.707 502.498 731.67 502.759 732.786 502.759C733.92 502.759 734.883 502.498 735.675 501.976C736.485 501.454 737.106 500.698 737.538 499.708C737.97 498.7 738.186 497.494 738.186 496.09C738.186 494.668 737.97 493.462 737.538 492.472C737.106 491.482 736.485 490.726 735.675 490.204C734.883 489.682 733.92 489.421 732.786 489.421Z" fill="#FAFAFA"/>
</g>
<defs>
<filter id="filter0_d_20_3285" x="112.5" y="519" width="1182" height="424.5" filterUnits="userSpaceOnUse" color-interpolation-filters="sRGB">
<feFlood flood-opacity="0" result="BackgroundImageFix"/>
<feColorMatrix in="SourceAlpha" type="matrix" values="0 0 0 0 0 0 0 0 0 0 0 0 0 0 0 0 0 0 127 0" result="hardAlpha"/>
<feMorphology radius="9" operator="dilate" in="SourceAlpha" result="effect1_dropShadow_20_3285"/>
<feOffset dx="3" dy="3"/>
<feGaussianBlur stdDeviation="22.5"/>
<feComposite in2="hardAlpha" operator="out"/>
<feColorMatrix type="matrix" values="0 0 0 0 0.0804286 0 0 0 0 0.0776928 0 0 0 0 0.0941081 0 0 0 0.65 0"/>
<feBlend mode="normal" in2="BackgroundImageFix" result="effect1_dropShadow_20_3285"/>
<feBlend mode="normal" in="SourceGraphic" in2="effect1_dropShadow_20_3285" result="shape"/>
</filter>
<filter id="filter1_d_20_3285" x="1090.5" y="898.5" width="366" height="207" filterUnits="userSpaceOnUse" color-interpolation-filters="sRGB">
<feFlood flood-opacity="0" result="BackgroundImageFix"/>
<feColorMatrix in="SourceAlpha" type="matrix" values="0 0 0 0 0 0 0 0 0 0 0 0 0 0 0 0 0 0 127 0" result="hardAlpha"/>
<feMorphology radius="9" operator="dilate" in="SourceAlpha" result="effect1_dropShadow_20_3285"/>
<feOffset dx="3" dy="3"/>
<feGaussianBlur stdDeviation="22.5"/>
<feComposite in2="hardAlpha" operator="out"/>
<feColorMatrix type="matrix" values="0 0 0 0 0.0804286 0 0 0 0 0.0776928 0 0 0 0 0.0941081 0 0 0 0.65 0"/>
<feBlend mode="normal" in2="BackgroundImageFix" result="effect1_dropShadow_20_3285"/>
<feBlend mode="normal" in="SourceGraphic" in2="effect1_dropShadow_20_3285" result="shape"/>
</filter>
<filter id="filter2_d_20_3285" x="-51" y="898.5" width="366" height="207" filterUnits="userSpaceOnUse" color-interpolation-filters="sRGB">
<feFlood flood-opacity="0" result="BackgroundImageFix"/>
<feColorMatrix in="SourceAlpha" type="matrix" values="0 0 0 0 0 0 0 0 0 0 0 0 0 0 0 0 0 0 127 0" result="hardAlpha"/>
<feMorphology radius="9" operator="dilate" in="SourceAlpha" result="effect1_dropShadow_20_3285"/>
<feOffset dx="3" dy="3"/>
<feGaussianBlur stdDeviation="22.5"/>
<feComposite in2="hardAlpha" operator="out"/>
<feColorMatrix type="matrix" values="0 0 0 0 0.0804286 0 0 0 0 0.0776928 0 0 0 0 0.0941081 0 0 0 0.65 0"/>
<feBlend mode="normal" in2="BackgroundImageFix" result="effect1_dropShadow_20_3285"/>
<feBlend mode="normal" in="SourceGraphic" in2="effect1_dropShadow_20_3285" result="shape"/>
</filter>
<filter id="filter3_d_20_3285" x="921" y="154.5" width="363" height="363" filterUnits="userSpaceOnUse" color-interpolation-filters="sRGB">
<feFlood flood-opacity="0" result="BackgroundImageFix"/>
<feColorMatrix in="SourceAlpha" type="matrix" values="0 0 0 0 0 0 0 0 0 0 0 0 0 0 0 0 0 0 127 0" result="hardAlpha"/>
<feMorphology radius="9" operator="dilate" in="SourceAlpha" result="effect1_dropShadow_20_3285"/>
<feOffset dx="3" dy="3"/>
<feGaussianBlur stdDeviation="22.5"/>
<feComposite in2="hardAlpha" operator="out"/>
<feColorMatrix type="matrix" values="0 0 0 0 0.0804286 0 0 0 0 0.0776928 0 0 0 0 0.0941081 0 0 0 0.65 0"/>
<feBlend mode="normal" in2="BackgroundImageFix" result="effect1_dropShadow_20_3285"/>
<feBlend mode="normal" in="SourceGraphic" in2="effect1_dropShadow_20_3285" result="shape"/>
</filter>
<filter id="filter4_d_20_3285" x="992.319" y="228.515" width="214.133" height="218.102" filterUnits="userSpaceOnUse" color-interpolation-filters="sRGB">
<feFlood flood-opacity="0" result="BackgroundImageFix"/>
<feColorMatrix in="SourceAlpha" type="matrix" values="0 0 0 0 0 0 0 0 0 0 0 0 0 0 0 0 0 0 127 0" result="hardAlpha"/>
<feMorphology radius="15" operator="dilate" in="SourceAlpha" result="effect1_dropShadow_20_3285"/>
<feOffset dx="3" dy="3"/>
<feGaussianBlur stdDeviation="22.5"/>
<feComposite in2="hardAlpha" operator="out"/>
<feColorMatrix type="matrix" values="0 0 0 0 0.27443 0 0 0 0 0.27443 0 0 0 0 0.27443 0 0 0 0.4 0"/>
<feBlend mode="normal" in2="BackgroundImageFix" result="effect1_dropShadow_20_3285"/>
<feBlend mode="normal" in="SourceGraphic" in2="effect1_dropShadow_20_3285" result="shape"/>
</filter>
<filter id="filter5_d_20_3285" x="490.199" y="707.7" width="186.3" height="186.3" filterUnits="userSpaceOnUse" color-interpolation-filters="sRGB">
<feFlood flood-opacity="0" result="BackgroundImageFix"/>
<feColorMatrix in="SourceAlpha" type="matrix" values="0 0 0 0 0 0 0 0 0 0 0 0 0 0 0 0 0 0 127 0" result="hardAlpha"/>
<feMorphology radius="13.5" operator="dilate" in="SourceAlpha" result="effect1_dropShadow_20_3285"/>
<feOffset dx="2.7" dy="2.7"/>
<feGaussianBlur stdDeviation="20.25"/>
<feComposite in2="hardAlpha" operator="out"/>
<feColorMatrix type="matrix" values="0 0 0 0 0.0558037 0 0 0 0 0.0540315 0 0 0 0 0.0646647 0 0 0 0.65 0"/>
<feBlend mode="normal" in2="BackgroundImageFix" result="effect1_dropShadow_20_3285"/>
<feBlend mode="normal" in="SourceGraphic" in2="effect1_dropShadow_20_3285" result="shape"/>
</filter>
<filter id="filter6_d_20_3285" x="728.7" y="707.7" width="186.3" height="186.3" filterUnits="userSpaceOnUse" color-interpolation-filters="sRGB">
<feFlood flood-opacity="0" result="BackgroundImageFix"/>
<feColorMatrix in="SourceAlpha" type="matrix" values="0 0 0 0 0 0 0 0 0 0 0 0 0 0 0 0 0 0 127 0" result="hardAlpha"/>
<feMorphology radius="13.5" operator="dilate" in="SourceAlpha" result="effect1_dropShadow_20_3285"/>
<feOffset dx="2.7" dy="2.7"/>
<feGaussianBlur stdDeviation="20.25"/>
<feComposite in2="hardAlpha" operator="out"/>
<feColorMatrix type="matrix" values="0 0 0 0 0.0558037 0 0 0 0 0.0540315 0 0 0 0 0.0646647 0 0 0 0.65 0"/>
<feBlend mode="normal" in2="BackgroundImageFix" result="effect1_dropShadow_20_3285"/>
<feBlend mode="normal" in="SourceGraphic" in2="effect1_dropShadow_20_3285" result="shape"/>
</filter>
<filter id="filter7_d_20_3285" x="738.15" y="716.85" width="167.4" height="167.4" filterUnits="userSpaceOnUse" color-interpolation-filters="sRGB">
<feFlood flood-opacity="0" result="BackgroundImageFix"/>
<feColorMatrix in="SourceAlpha" type="matrix" values="0 0 0 0 0 0 0 0 0 0 0 0 0 0 0 0 0 0 127 0" result="hardAlpha"/>
<feMorphology radius="13.5" operator="dilate" in="SourceAlpha" result="effect1_dropShadow_20_3285"/>
<feOffset dx="2.7" dy="2.7"/>
<feGaussianBlur stdDeviation="20.25"/>
<feComposite in2="hardAlpha" operator="out"/>
<feColorMatrix type="matrix" values="0 0 0 0 0.0558037 0 0 0 0 0.0540315 0 0 0 0 0.0646647 0 0 0 0.65 0"/>
<feBlend mode="normal" in2="BackgroundImageFix" result="effect1_dropShadow_20_3285"/>
<feBlend mode="normal" in="SourceGraphic" in2="effect1_dropShadow_20_3285" result="shape"/>
</filter>
<filter id="filter8_d_20_3285" x="598.5" y="696" width="208.5" height="208.5" filterUnits="userSpaceOnUse" color-interpolation-filters="sRGB">
<feFlood flood-opacity="0" result="BackgroundImageFix"/>
<feColorMatrix in="SourceAlpha" type="matrix" values="0 0 0 0 0 0 0 0 0 0 0 0 0 0 0 0 0 0 127 0" result="hardAlpha"/>
<feMorphology radius="9" operator="dilate" in="SourceAlpha" result="effect1_dropShadow_20_3285"/>
<feOffset dx="3" dy="3"/>
<feGaussianBlur stdDeviation="22.5"/>
<feComposite in2="hardAlpha" operator="out"/>
<feColorMatrix type="matrix" values="0 0 0 0 0.0804286 0 0 0 0 0.0776928 0 0 0 0 0.0941081 0 0 0 0.65 0"/>
<feBlend mode="normal" in2="BackgroundImageFix" result="effect1_dropShadow_20_3285"/>
<feBlend mode="normal" in="SourceGraphic" in2="effect1_dropShadow_20_3285" result="shape"/>
</filter>
<filter id="filter9_d_20_3285" x="-52.5" y="-51" width="1509" height="228" filterUnits="userSpaceOnUse" color-interpolation-filters="sRGB">
<feFlood flood-opacity="0" result="BackgroundImageFix"/>
<feColorMatrix in="SourceAlpha" type="matrix" values="0 0 0 0 0 0 0 0 0 0 0 0 0 0 0 0 0 0 127 0" result="hardAlpha"/>
<feMorphology radius="9" operator="dilate" in="SourceAlpha" result="effect1_dropShadow_20_3285"/>
<feOffset dx="3" dy="3"/>
<feGaussianBlur stdDeviation="22.5"/>
<feComposite in2="hardAlpha" operator="out"/>
<feColorMatrix type="matrix" values="0 0 0 0 0.0804286 0 0 0 0 0.0776928 0 0 0 0 0.0941081 0 0 0 0.65 0"/>
<feBlend mode="normal" in2="BackgroundImageFix" result="effect1_dropShadow_20_3285"/>
<feBlend mode="normal" in="SourceGraphic" in2="effect1_dropShadow_20_3285" result="shape"/>
</filter>
<filter id="filter10_d_20_3285" x="912" y="-40.5" width="484.5" height="207" filterUnits="userSpaceOnUse" color-interpolation-filters="sRGB">
<feFlood flood-opacity="0" result="BackgroundImageFix"/>
<feColorMatrix in="SourceAlpha" type="matrix" values="0 0 0 0 0 0 0 0 0 0 0 0 0 0 0 0 0 0 127 0" result="hardAlpha"/>
<feMorphology radius="15" operator="dilate" in="SourceAlpha" result="effect1_dropShadow_20_3285"/>
<feOffset dx="3" dy="3"/>
<feGaussianBlur stdDeviation="22.5"/>
<feComposite in2="hardAlpha" operator="out"/>
<feColorMatrix type="matrix" values="0 0 0 0 0.27443 0 0 0 0 0.27443 0 0 0 0 0.27443 0 0 0 0.4 0"/>
<feBlend mode="normal" in2="BackgroundImageFix" result="effect1_dropShadow_20_3285"/>
<feBlend mode="normal" in="SourceGraphic" in2="effect1_dropShadow_20_3285" result="shape"/>
</filter>
<filter id="filter11_d_20_3285" x="123" y="154.5" width="363" height="363" filterUnits="userSpaceOnUse" color-interpolation-filters="sRGB">
<feFlood flood-opacity="0" result="BackgroundImageFix"/>
<feColorMatrix in="SourceAlpha" type="matrix" values="0 0 0 0 0 0 0 0 0 0 0 0 0 0 0 0 0 0 127 0" result="hardAlpha"/>
<feMorphology radius="9" operator="dilate" in="SourceAlpha" result="effect1_dropShadow_20_3285"/>
<feOffset dx="3" dy="3"/>
<feGaussianBlur stdDeviation="22.5"/>
<feComposite in2="hardAlpha" operator="out"/>
<feColorMatrix type="matrix" values="0 0 0 0 0.0804286 0 0 0 0 0.0776928 0 0 0 0 0.0941081 0 0 0 0.65 0"/>
<feBlend mode="normal" in2="BackgroundImageFix" result="effect1_dropShadow_20_3285"/>
<feBlend mode="normal" in="SourceGraphic" in2="effect1_dropShadow_20_3285" result="shape"/>
</filter>
<filter id="filter12_d_20_3285" x="522" y="154.5" width="363" height="363" filterUnits="userSpaceOnUse" color-interpolation-filters="sRGB">
<feFlood flood-opacity="0" result="BackgroundImageFix"/>
<feColorMatrix in="SourceAlpha" type="matrix" values="0 0 0 0 0 0 0 0 0 0 0 0 0 0 0 0 0 0 127 0" result="hardAlpha"/>
<feMorphology radius="9" operator="dilate" in="SourceAlpha" result="effect1_dropShadow_20_3285"/>
<feOffset dx="3" dy="3"/>
<feGaussianBlur stdDeviation="22.5"/>
<feComposite in2="hardAlpha" operator="out"/>
<feColorMatrix type="matrix" values="0 0 0 0 0.0804286 0 0 0 0 0.0776928 0 0 0 0 0.0941081 0 0 0 0.65 0"/>
<feBlend mode="normal" in2="BackgroundImageFix" result="effect1_dropShadow_20_3285"/>
<feBlend mode="normal" in="SourceGraphic" in2="effect1_dropShadow_20_3285" result="shape"/>
</filter>
<linearGradient id="paint0_linear_20_3285" x1="700.5" y1="570" x2="700.5" y2="886.5" gradientUnits="userSpaceOnUse">
<stop stop-color="#393939"/>
<stop offset="1" stop-color="#2B2B2B"/>
</linearGradient>
<linearGradient id="paint1_linear_20_3285" x1="1156.5" y1="12" x2="1059.75" y2="470.25" gradientUnits="userSpaceOnUse">
<stop stop-color="#8BBAFF"/>
<stop offset="1" stop-color="#2B5AFF"/>
</linearGradient>
<linearGradient id="paint2_linear_20_3285" x1="9" y1="0" x2="9" y2="120" gradientUnits="userSpaceOnUse">
<stop stop-color="#FAFAFA"/>
<stop offset="0.835" stop-color="#E0DDDD"/>
<stop offset="1" stop-color="#BEBEBE"/>
</linearGradient>
<linearGradient id="paint3_linear_20_3285" x1="301.5" y1="205.5" x2="301.5" y2="460.5" gradientUnits="userSpaceOnUse">
<stop stop-color="#3EB16C"/>
<stop offset="0.97" stop-color="#18784A"/>
<stop offset="0.9999" stop-color="#2D823B"/>
<stop offset="1" stop-color="#007B14"/>
<stop offset="1" stop-color="#0C493E"/>
</linearGradient>
<linearGradient id="paint4_linear_20_3285" x1="1017" y1="407.25" x2="905.25" y2="733.5" gradientUnits="userSpaceOnUse">
<stop stop-color="#FFA14A" stop-opacity="0.6"/>
<stop offset="1" stop-color="#C45E00"/>
</linearGradient>
<linearGradient id="paint5_linear_20_3285" x1="762" y1="152.25" x2="650.25" y2="478.5" gradientUnits="userSpaceOnUse">
<stop stop-color="#FFA14A" stop-opacity="0.6"/>
<stop offset="1" stop-color="#C45E00"/>
</linearGradient>
<clipPath id="clip0_20_3285">
<rect width="1399" height="1048" fill="white"/>
</clipPath>
<clipPath id="clip1_20_3285">
<rect x="1227" y="460.5" width="255" height="255" rx="75" transform="rotate(180 1227 460.5)" fill="white"/>
</clipPath>
<clipPath id="clip2_20_3285">
<rect width="181.5" height="181.5" fill="white" transform="translate(1008.75 242.25)"/>
</clipPath>
<clipPath id="clip3_20_3285">
<rect x="429" y="460.5" width="255" height="255" rx="75" transform="rotate(180 429 460.5)" fill="white"/>
</clipPath>
<clipPath id="clip4_20_3285">
<rect x="828" y="460.5" width="255" height="255" rx="75" transform="rotate(180 828 460.5)" fill="white"/>
</clipPath>
</defs>
</svg>
