<svg width="1235" height="549" viewBox="0 0 1235 549" fill="none" xmlns="http://www.w3.org/2000/svg">
<rect width="1235" height="549" rx="80" fill="url(#paint0_linear_264_6966)"/>
<g filter="url(#filter0_d_264_6966)">
<ellipse cx="172.5" cy="149.52" rx="111.5" ry="112" fill="#292929"/>
</g>
<g filter="url(#filter1_d_264_6966)">
<path d="M142.84 166H138.32L135.8 159.08H124.72L122.2 166H117.8L127.76 139.6H132.88L142.84 166ZM125.92 155.6H134.6L130.28 143.28L125.92 155.6ZM167.624 139.6V155.88C167.624 159.373 166.704 162 164.864 163.76C163.024 165.52 160.344 166.4 156.824 166.4C153.357 166.4 150.691 165.52 148.824 163.76C146.984 162 146.064 159.373 146.064 155.88V139.6H150.344V155.36C150.344 157.84 150.877 159.68 151.944 160.88C153.011 162.08 154.637 162.68 156.824 162.68C159.037 162.68 160.677 162.08 161.744 160.88C162.811 159.68 163.344 157.84 163.344 155.36V139.6H167.624ZM194.583 139.6V143.28H185.543V166H181.263V143.28H172.223V139.6H194.583ZM209.732 139.2C212.292 139.2 214.505 139.747 216.372 140.84C218.238 141.933 219.678 143.493 220.692 145.52C221.705 147.547 222.212 149.973 222.212 152.8C222.212 155.627 221.705 158.053 220.692 160.08C219.678 162.107 218.238 163.667 216.372 164.76C214.505 165.853 212.292 166.4 209.732 166.4C207.198 166.4 204.998 165.853 203.132 164.76C201.265 163.667 199.825 162.107 198.812 160.08C197.798 158.053 197.292 155.627 197.292 152.8C197.292 149.973 197.798 147.547 198.812 145.52C199.825 143.493 201.265 141.933 203.132 140.84C204.998 139.747 207.198 139.2 209.732 139.2ZM209.732 142.92C208.078 142.92 206.652 143.307 205.452 144.08C204.278 144.853 203.372 145.973 202.732 147.44C202.092 148.907 201.772 150.693 201.772 152.8C201.772 154.88 202.092 156.667 202.732 158.16C203.372 159.627 204.278 160.747 205.452 161.52C206.652 162.293 208.078 162.68 209.732 162.68C211.412 162.68 212.838 162.293 214.012 161.52C215.212 160.747 216.132 159.627 216.772 158.16C217.412 156.667 217.732 154.88 217.732 152.8C217.732 150.693 217.412 148.907 216.772 147.44C216.132 145.973 215.212 144.853 214.012 144.08C212.838 143.307 211.412 142.92 209.732 142.92Z" fill="white"/>
</g>
<g filter="url(#filter2_d_264_6966)">
<path d="M169.5 51.0195L171.835 51.1168C178.263 51.3847 184.651 52.2724 190.909 53.7676L192.087 54.0492L201.844 56.6166L210.426 60.2076L217.054 63.9865C223.399 67.6038 229.328 71.9053 234.736 76.8139L240.638 82.1713L244.112 86.0488C249.573 92.1434 254.265 98.8853 258.083 106.123L258.46 106.838C261.178 111.99 263.441 117.371 265.223 122.917L265.688 124.366L265.743 124.606C266.807 129.2 267.344 133.901 267.344 138.617V138.617" stroke="#FF6439" stroke-width="5"/>
</g>
<g filter="url(#filter3_d_264_6966)">
<path d="M170 51.0195L169.04 51.1395C164.353 51.7255 159.712 52.6428 155.155 53.8847L154.553 54.0487L144.796 56.6163L136.214 60.2073L129.586 63.9862C123.241 67.6035 117.312 71.9049 111.904 76.8136L106.002 82.1709L102.528 86.0485C97.0669 92.1431 92.3748 98.8849 88.5567 106.123L88.1798 106.837C85.4616 111.99 83.199 117.37 81.4176 122.917L80.9523 124.366L80.8968 124.606C79.8332 129.2 79.2963 133.9 79.2963 138.616V138.616" stroke="#2786D3" stroke-width="5"/>
</g>
<rect x="161" y="124" width="22" height="5" rx="2.5" fill="#D9D9D9"/>
<g filter="url(#filter4_d_264_6966)">
<ellipse cx="1060.5" cy="152.52" rx="111.5" ry="112" fill="#292929"/>
</g>
<g filter="url(#filter5_d_264_6966)">
<path d="M1030.84 169H1026.32L1023.8 162.08H1012.72L1010.2 169H1005.8L1015.76 142.6H1020.88L1030.84 169ZM1013.92 158.6H1022.6L1018.28 146.28L1013.92 158.6ZM1055.62 142.6V158.88C1055.62 162.373 1054.7 165 1052.86 166.76C1051.02 168.52 1048.34 169.4 1044.82 169.4C1041.36 169.4 1038.69 168.52 1036.82 166.76C1034.98 165 1034.06 162.373 1034.06 158.88V142.6H1038.34V158.36C1038.34 160.84 1038.88 162.68 1039.94 163.88C1041.01 165.08 1042.64 165.68 1044.82 165.68C1047.04 165.68 1048.68 165.08 1049.74 163.88C1050.81 162.68 1051.34 160.84 1051.34 158.36V142.6H1055.62ZM1082.58 142.6V146.28H1073.54V169H1069.26V146.28H1060.22V142.6H1082.58ZM1097.73 142.2C1100.29 142.2 1102.5 142.747 1104.37 143.84C1106.24 144.933 1107.68 146.493 1108.69 148.52C1109.7 150.547 1110.21 152.973 1110.21 155.8C1110.21 158.627 1109.7 161.053 1108.69 163.08C1107.68 165.107 1106.24 166.667 1104.37 167.76C1102.5 168.853 1100.29 169.4 1097.73 169.4C1095.2 169.4 1093 168.853 1091.13 167.76C1089.26 166.667 1087.82 165.107 1086.81 163.08C1085.8 161.053 1085.29 158.627 1085.29 155.8C1085.29 152.973 1085.8 150.547 1086.81 148.52C1087.82 146.493 1089.26 144.933 1091.13 143.84C1093 142.747 1095.2 142.2 1097.73 142.2ZM1097.73 145.92C1096.08 145.92 1094.65 146.307 1093.45 147.08C1092.28 147.853 1091.37 148.973 1090.73 150.44C1090.09 151.907 1089.77 153.693 1089.77 155.8C1089.77 157.88 1090.09 159.667 1090.73 161.16C1091.37 162.627 1092.28 163.747 1093.45 164.52C1094.65 165.293 1096.08 165.68 1097.73 165.68C1099.41 165.68 1100.84 165.293 1102.01 164.52C1103.21 163.747 1104.13 162.627 1104.77 161.16C1105.41 159.667 1105.73 157.88 1105.73 155.8C1105.73 153.693 1105.41 151.907 1104.77 150.44C1104.13 148.973 1103.21 147.853 1102.01 147.08C1100.84 146.307 1099.41 145.92 1097.73 145.92Z" fill="white"/>
</g>
<g filter="url(#filter6_d_264_6966)">
<path d="M1057.5 54.0195L1059.83 54.1168C1066.26 54.3847 1072.65 55.2724 1078.91 56.7676L1080.09 57.0492L1089.84 59.6166L1098.43 63.2076L1105.05 66.9865C1111.4 70.6038 1117.33 74.9053 1122.74 79.8139L1128.64 85.1713L1132.11 89.0488C1137.57 95.1434 1142.27 101.885 1146.08 109.123L1146.46 109.838C1149.18 114.99 1151.44 120.371 1153.22 125.917L1153.69 127.366L1153.74 127.606C1154.81 132.2 1155.34 136.901 1155.34 141.617V141.617" stroke="#FF6439" stroke-width="5"/>
</g>
<g filter="url(#filter7_d_264_6966)">
<path d="M1058 54.0195L1057.04 54.1395C1052.35 54.7255 1047.71 55.6428 1043.15 56.8847L1042.55 57.0487L1032.8 59.6163L1024.21 63.2073L1017.59 66.9862C1011.24 70.6035 1005.31 74.9049 999.904 79.8136L994.002 85.1709L990.528 89.0485C985.067 95.1431 980.375 101.885 976.557 109.123L976.18 109.837C973.462 114.99 971.199 120.37 969.418 125.917L968.952 127.366L968.897 127.606C967.833 132.2 967.296 136.9 967.296 141.616V141.616" stroke="#2786D3" stroke-width="5"/>
</g>
<rect x="1050" y="127" width="22" height="5" rx="2.5" fill="#D9D9D9"/>
<g filter="url(#filter8_d_264_6966)">
<ellipse cx="615.5" cy="153" rx="111.5" ry="112" fill="#292929"/>
</g>
<g filter="url(#filter9_d_264_6966)">
<path d="M606.256 205.48H602.188L599.92 199.252H589.948L587.68 205.48H583.72L592.684 181.72H597.292L606.256 205.48ZM591.028 196.12H598.84L594.952 185.032L591.028 196.12ZM622.133 179.38L611.405 208H607.805L618.533 179.38H622.133ZM645.524 199.18C645.044 200.62 644.324 201.844 643.364 202.852C642.404 203.836 641.276 204.58 639.98 205.084C638.684 205.588 637.256 205.84 635.696 205.84C633.416 205.84 631.436 205.348 629.756 204.364C628.076 203.38 626.78 201.976 625.868 200.152C624.956 198.328 624.5 196.144 624.5 193.6C624.5 191.056 624.956 188.872 625.868 187.048C626.78 185.224 628.076 183.82 629.756 182.836C631.436 181.852 633.404 181.36 635.66 181.36C637.22 181.36 638.624 181.576 639.872 182.008C641.144 182.44 642.224 183.088 643.112 183.952C644 184.816 644.684 185.896 645.164 187.192L641.528 188.812C641.048 187.396 640.352 186.364 639.44 185.716C638.528 185.044 637.34 184.708 635.876 184.708C634.412 184.708 633.128 185.056 632.024 185.752C630.92 186.448 630.056 187.456 629.432 188.776C628.832 190.096 628.532 191.704 628.532 193.6C628.532 195.472 628.82 197.08 629.396 198.424C629.972 199.744 630.8 200.752 631.88 201.448C632.96 202.144 634.256 202.492 635.768 202.492C637.232 202.492 638.492 202.12 639.548 201.376C640.628 200.608 641.396 199.468 641.852 197.956L645.524 199.18Z" fill="white"/>
</g>
<g filter="url(#filter10_d_264_6966)">
<path d="M610.5 57.0195L612.835 57.1168C619.263 57.3847 625.651 58.2724 631.909 59.7676L633.087 60.0492L642.844 62.6166L651.426 66.2076L658.054 69.9865C664.399 73.6038 670.328 77.9053 675.736 82.8139L681.638 88.1713L685.112 92.0488C690.573 98.1434 695.265 104.885 699.083 112.123L699.46 112.838C702.178 117.99 704.441 123.371 706.223 128.917L706.688 130.366L706.743 130.606C707.807 135.2 708.344 139.901 708.344 144.617V144.617" stroke="#F5E4DF" stroke-width="5"/>
</g>
<g filter="url(#filter11_d_264_6966)">
<path d="M611 57.0195L610.04 57.1395C605.353 57.7255 600.712 58.6428 596.155 59.8847L595.553 60.0487L585.796 62.6163L577.214 66.2073L570.586 69.9862C564.241 73.6035 558.312 77.9049 552.904 82.8136L547.002 88.1709L543.528 92.0485C538.067 98.1431 533.375 104.885 529.557 112.123L529.18 112.837C526.462 117.99 524.199 123.37 522.418 128.917L521.952 130.366L521.897 130.606C520.833 135.2 520.296 139.9 520.296 144.616V144.616" stroke="#F5E4DF" stroke-width="5"/>
</g>
<path d="M528.408 161.212V164.776H516.132V161.212H528.408Z" fill="#F5E4DF"/>
<path d="M709.564 153.888V172.104H706.216V153.888H709.564ZM716.728 161.376V164.58H699.016V161.376H716.728Z" fill="white"/>
<rect x="604" y="167" width="22" height="5" rx="2.5" fill="#D9D9D9"/>
<g filter="url(#filter12_d_264_6966)">
<path d="M614.769 132.457V109L627.742 113.989C628.482 114.273 629.131 114.745 629.625 115.358C630.12 115.97 630.44 116.701 630.555 117.476C630.67 118.25 630.575 119.041 630.279 119.768C629.984 120.495 629.498 121.131 628.873 121.612L614.769 132.457ZM614.769 132.457H638.539L633.484 145.26C633.196 145.989 632.717 146.631 632.097 147.118C631.476 147.606 630.735 147.922 629.95 148.036C629.165 148.149 628.364 148.055 627.628 147.764C626.891 147.472 626.247 146.993 625.759 146.375L614.769 132.457ZM614.769 132.457H591L596.055 119.655C596.343 118.925 596.822 118.284 597.442 117.796C598.063 117.309 598.804 116.992 599.589 116.879C600.374 116.765 601.175 116.859 601.911 117.151C602.648 117.443 603.292 117.922 603.78 118.539L614.769 132.457ZM614.769 132.457V155.915L601.797 150.926C601.057 150.642 600.408 150.169 599.913 149.557C599.419 148.944 599.098 148.213 598.984 147.439C598.869 146.664 598.964 145.873 599.259 145.147C599.555 144.42 600.04 143.784 600.666 143.302L614.769 132.457Z" stroke="#F5E4DF" stroke-width="3" stroke-linecap="round" stroke-linejoin="round" shape-rendering="crispEdges"/>
</g>
<g filter="url(#filter13_d_264_6966)">
<path d="M802.521 358.5C802.521 341.931 815.952 328.5 832.521 328.5H900.1C916.669 328.5 930.1 341.931 930.1 358.5V386.5C930.1 403.069 916.669 416.5 900.1 416.5H832.521C815.952 416.5 802.521 403.069 802.521 386.5V358.5Z" fill="#292929"/>
</g>
<g filter="url(#filter14_d_264_6966)">
<path d="M657 355C657 338.431 670.431 325 687 325H754.58C771.148 325 784.58 338.431 784.58 355V383C784.58 399.569 771.148 413 754.58 413H687C670.431 413 657 399.569 657 383V355Z" fill="#292929"/>
</g>
<g clip-path="url(#clip0_264_6966)" filter="url(#filter15_d_264_6966)">
<path d="M862.541 369.753C863.109 370.195 863.472 370.838 863.552 371.54C863.633 372.243 863.423 372.948 862.969 373.5L862.33 374.276C861.474 375.318 861.015 376.616 861.033 377.95C861.051 379.284 861.544 380.571 862.429 381.591L862.766 381.948C864.75 383.878 865.933 386.452 866.088 389.178C866.244 391.904 865.36 394.589 863.608 396.721L862.969 397.5C862.744 397.773 862.466 398.001 862.151 398.17C861.835 398.339 861.489 398.446 861.131 398.484C860.773 398.523 860.411 398.493 860.065 398.395C859.719 398.298 859.396 398.135 859.115 397.916C858.834 397.697 858.6 397.426 858.426 397.119C858.253 396.813 858.143 396.475 858.103 396.127C858.064 395.779 858.095 395.427 858.195 395.09C858.295 394.754 858.463 394.44 858.688 394.167L859.326 393.39C860.183 392.349 860.642 391.05 860.624 389.716C860.606 388.382 860.112 387.095 859.228 386.076L858.891 385.719C856.906 383.788 855.724 381.214 855.568 378.488C855.413 375.763 856.296 373.077 858.049 370.945L858.688 370.167C858.913 369.893 859.191 369.665 859.506 369.496C859.822 369.327 860.168 369.22 860.526 369.182C860.884 369.143 861.246 369.173 861.592 369.271C861.938 369.369 862.26 369.532 862.541 369.751V369.753ZM869.652 370.167C870.086 369.635 870.714 369.285 871.405 369.188C872.096 369.091 872.799 369.254 873.371 369.644C873.943 370.035 874.34 370.623 874.481 371.288C874.622 371.954 874.497 372.647 874.13 373.225L873.933 373.5L873.294 374.276C872.437 375.318 871.979 376.616 871.997 377.95C872.015 379.284 872.508 380.571 873.393 381.591L873.73 381.948C875.642 383.807 876.813 386.267 877.033 388.889C877.254 391.51 876.509 394.123 874.933 396.26L874.572 396.721L873.933 397.5C873.498 398.032 872.871 398.382 872.18 398.479C871.488 398.576 870.785 398.412 870.213 398.022C869.642 397.632 869.245 397.044 869.104 396.378C868.963 395.713 869.088 395.02 869.454 394.441L869.652 394.167L870.29 393.39C871.147 392.349 871.606 391.05 871.588 389.716C871.57 388.382 871.076 387.095 870.192 386.076L869.854 385.719C867.942 383.859 866.772 381.399 866.551 378.777C866.331 376.156 867.075 373.544 868.651 371.407L869.013 370.945L869.652 370.167ZM866.31 353.167C875.158 353.167 881.482 354.441 885.725 355.815L886.829 356.188L887.832 356.567C887.991 356.628 888.148 356.689 888.298 356.753L889.154 357.116C889.291 357.175 889.419 357.236 889.546 357.295L890.258 357.636C890.371 357.689 890.477 357.745 890.582 357.799C893.035 359.071 893.671 361.788 892.851 363.913L885.324 383.436C885.056 384.08 884.54 384.597 883.885 384.876C883.231 385.155 882.491 385.175 881.822 384.931C881.153 384.686 880.609 384.198 880.304 383.569C880 382.94 879.96 382.221 880.193 381.564L887.613 362.311L887.038 362.041L886.374 361.748L885.615 361.447L884.76 361.132L884.294 360.972L883.293 360.657L882.192 360.343C881.996 360.289 881.799 360.237 881.602 360.188L880.344 359.887C880.122 359.837 879.899 359.789 879.675 359.743L878.261 359.471C875.07 358.9 871.118 358.5 866.308 358.5C860.39 358.5 855.771 359.108 852.279 359.887L851.021 360.188C850.824 360.237 850.628 360.289 850.432 360.343L849.33 360.657L848.327 360.975L847.422 361.289L847.008 361.447L846.249 361.751L845.583 362.041L845.008 362.308L852.43 381.561C852.565 381.891 852.63 382.243 852.623 382.597C852.616 382.951 852.536 383.301 852.389 383.625C852.241 383.949 852.029 384.241 851.764 384.484C851.499 384.728 851.187 384.917 850.846 385.042C850.505 385.166 850.142 385.224 849.778 385.21C849.414 385.197 849.056 385.113 848.726 384.963C848.396 384.814 848.1 384.601 847.855 384.339C847.609 384.077 847.421 383.77 847.299 383.436L839.772 363.916C838.953 361.788 839.589 359.071 842.042 357.799L842.708 357.468C842.826 357.409 842.949 357.353 843.075 357.295L843.884 356.935C844.169 356.815 844.47 356.689 844.788 356.567L845.794 356.191L846.899 355.815C851.142 354.441 857.465 353.167 866.31 353.167Z" fill="#F5E4DF"/>
</g>
<rect x="854.35" y="337.5" width="21.9277" height="5" rx="2.5" fill="#D9D9D9"/>
<rect x="708.829" y="337.5" width="21.9277" height="5" rx="2.5" fill="#D9D9D9"/>
<path d="M715.806 368.057C716.356 368.498 716.709 369.14 716.787 369.841C716.864 370.542 716.661 371.246 716.221 371.797L715.602 372.572C714.771 373.611 714.326 374.908 714.344 376.24C714.361 377.571 714.839 378.856 715.697 379.873L716.024 380.23C717.948 382.157 719.095 384.726 719.246 387.447C719.396 390.168 718.54 392.849 716.84 394.977L716.221 395.754C716.003 396.027 715.733 396.254 715.427 396.423C715.121 396.592 714.785 396.698 714.438 396.737C714.091 396.775 713.74 396.745 713.405 396.648C713.069 396.55 712.757 396.388 712.484 396.169C712.211 395.951 711.984 395.681 711.816 395.374C711.648 395.068 711.541 394.732 711.503 394.384C711.464 394.036 711.494 393.685 711.592 393.349C711.689 393.013 711.851 392.7 712.069 392.427L712.689 391.652C713.519 390.612 713.964 389.316 713.947 387.984C713.929 386.652 713.451 385.368 712.593 384.35L712.266 383.994C710.342 382.067 709.195 379.497 709.045 376.776C708.894 374.056 709.75 371.375 711.45 369.247L712.069 368.47C712.287 368.196 712.557 367.969 712.863 367.8C713.169 367.632 713.505 367.525 713.852 367.487C714.199 367.448 714.55 367.478 714.886 367.576C715.221 367.673 715.534 367.836 715.806 368.054V368.057ZM726.438 368.057C726.988 368.498 727.34 369.14 727.418 369.841C727.496 370.542 727.293 371.246 726.853 371.797L726.233 372.572C725.402 373.611 724.958 374.908 724.975 376.24C724.993 377.571 725.471 378.856 726.329 379.873L726.656 380.23C728.58 382.157 729.727 384.726 729.877 387.447C730.028 390.168 729.171 392.849 727.472 394.977L726.853 395.754C726.634 396.027 726.365 396.254 726.059 396.423C725.753 396.592 725.417 396.698 725.07 396.737C724.723 396.775 724.372 396.745 724.036 396.648C723.701 396.55 723.388 396.388 723.116 396.169C722.843 395.951 722.616 395.681 722.448 395.374C722.279 395.068 722.173 394.732 722.134 394.384C722.096 394.036 722.126 393.685 722.223 393.349C722.32 393.013 722.483 392.7 722.701 392.427L723.32 391.652C724.151 390.612 724.596 389.316 724.578 387.984C724.561 386.652 724.082 385.368 723.225 384.35L722.898 383.994C720.974 382.067 719.827 379.497 719.676 376.776C719.526 374.056 720.382 371.375 722.082 369.247L722.701 368.47C722.919 368.196 723.189 367.969 723.495 367.8C723.8 367.632 724.136 367.525 724.484 367.487C724.831 367.448 725.182 367.478 725.517 367.576C725.852 367.673 726.165 367.836 726.438 368.054V368.057ZM738.066 351.5C740.1 351.5 742.057 352.278 743.537 353.676C745.017 355.073 745.907 356.984 746.027 359.017L746.04 359.486V378.119C746.04 380.156 745.263 382.116 743.868 383.598C742.472 385.08 740.564 385.972 738.534 386.091L738.066 386.105H735.408C734.731 386.104 734.079 385.844 733.587 385.378C733.094 384.913 732.798 384.276 732.758 383.599C732.718 382.921 732.938 382.255 733.373 381.734C733.808 381.214 734.425 380.88 735.097 380.799L735.408 380.781H738.066C738.717 380.781 739.346 380.541 739.832 380.108C740.319 379.675 740.629 379.078 740.706 378.43L740.724 378.119V359.486C740.724 358.834 740.485 358.204 740.053 357.717C739.62 357.23 739.024 356.919 738.377 356.842L738.066 356.824H700.856C700.205 356.824 699.576 357.063 699.09 357.496C698.603 357.93 698.292 358.527 698.216 359.174L698.198 359.486V378.119C698.198 378.771 698.437 379.4 698.869 379.887C699.302 380.375 699.898 380.686 700.545 380.762L700.856 380.781H703.513C704.191 380.782 704.843 381.041 705.335 381.507C705.828 381.973 706.124 382.609 706.164 383.287C706.204 383.964 705.984 384.631 705.549 385.151C705.114 385.672 704.497 386.006 703.824 386.086L703.513 386.105H700.856C698.822 386.105 696.865 385.327 695.385 383.929C693.905 382.532 693.014 380.621 692.895 378.587L692.882 378.119V359.486C692.882 357.449 693.659 355.489 695.054 354.007C696.449 352.525 698.357 351.633 700.388 351.513L700.856 351.5H738.066Z" fill="#EBEBEB"/>
<g filter="url(#filter16_d_264_6966)">
<rect x="300" y="325" width="127.58" height="88" rx="30" fill="#292929"/>
</g>
<g filter="url(#filter17_d_264_6966)">
<rect x="438.543" y="325" width="127.58" height="88" rx="30" fill="#292929"/>
</g>
<rect x="490.373" y="338" width="21.9277" height="5" rx="2.5" fill="#D9D9D9"/>
<g filter="url(#filter18_d_264_6966)">
<path d="M477.067 383.667H469.99C467.867 383.667 466.452 382.4 466.452 380.5V371C466.452 368.15 468.929 365.617 471.759 364.983C478.128 363.4 487.682 361.5 487.682 361.5C487.682 361.5 492.282 357.067 495.466 354.217C497.235 352.95 499.358 352 501.835 352H526.603C528.726 352 530.496 353.267 531.557 354.85L536.511 364.033C536.979 365.256 537.219 366.54 537.219 367.833V380.5C537.219 382.4 535.803 383.667 533.68 383.667H526.603" stroke="#EBEBEB" stroke-width="5" stroke-linecap="round" stroke-linejoin="round"/>
<path d="M519.527 390C515.618 390 512.45 387.165 512.45 383.667C512.45 380.169 515.618 377.333 519.527 377.333C523.435 377.333 526.604 380.169 526.604 383.667C526.604 387.165 523.435 390 519.527 390Z" stroke="#EBEBEB" stroke-width="5" stroke-linecap="round" stroke-linejoin="round"/>
<path d="M512.45 383.667H491.22" stroke="#EBEBEB" stroke-width="5" stroke-linecap="round" stroke-linejoin="round"/>
<path d="M484.143 390C480.235 390 477.067 387.165 477.067 383.667C477.067 380.169 480.235 377.333 484.143 377.333C488.052 377.333 491.22 380.169 491.22 383.667C491.22 387.165 488.052 390 484.143 390Z" stroke="#EBEBEB" stroke-width="5" stroke-linecap="round" stroke-linejoin="round"/>
</g>
<mask id="path-33-inside-1_264_6966" fill="white">
<path d="M499.039 361.431L497.909 362.021L496.78 361.431L497.909 360.841L499.039 361.431ZM507.024 371.447C506.601 371.447 506.194 371.36 505.895 371.203C505.595 371.046 505.427 370.834 505.427 370.613C505.427 370.391 505.595 370.179 505.895 370.023C506.194 369.866 506.601 369.778 507.024 369.778V371.447ZM505.895 366.195L497.909 362.021L500.168 360.841L508.153 365.014L505.895 366.195ZM497.909 360.841L505.895 356.667L508.153 357.848L500.168 362.021L497.909 360.841ZM499.039 360.596H515.809V362.266H499.039V360.596ZM515.809 371.447H507.024V369.778H515.809V371.447ZM526.19 366.022C526.19 367.461 525.096 368.841 523.149 369.858C521.202 370.876 518.562 371.447 515.809 371.447V369.778C516.752 369.778 517.687 369.681 518.559 369.492C519.431 369.303 520.223 369.027 520.891 368.678C521.558 368.329 522.087 367.915 522.449 367.459C522.81 367.004 522.996 366.515 522.996 366.022H526.19ZM515.809 360.596C518.562 360.596 521.202 361.168 523.149 362.186C525.096 363.203 526.19 364.583 526.19 366.022H522.996C522.996 365.529 522.81 365.04 522.449 364.585C522.087 364.129 521.558 363.715 520.891 363.366C520.223 363.017 519.431 362.74 518.559 362.552C517.687 362.363 516.752 362.266 515.809 362.266V360.596Z"/>
</mask>
<path d="M499.039 361.431L497.909 362.021L496.78 361.431L497.909 360.841L499.039 361.431ZM507.024 371.447C506.601 371.447 506.194 371.36 505.895 371.203C505.595 371.046 505.427 370.834 505.427 370.613C505.427 370.391 505.595 370.179 505.895 370.023C506.194 369.866 506.601 369.778 507.024 369.778V371.447ZM505.895 366.195L497.909 362.021L500.168 360.841L508.153 365.014L505.895 366.195ZM497.909 360.841L505.895 356.667L508.153 357.848L500.168 362.021L497.909 360.841ZM499.039 360.596H515.809V362.266H499.039V360.596ZM515.809 371.447H507.024V369.778H515.809V371.447ZM526.19 366.022C526.19 367.461 525.096 368.841 523.149 369.858C521.202 370.876 518.562 371.447 515.809 371.447V369.778C516.752 369.778 517.687 369.681 518.559 369.492C519.431 369.303 520.223 369.027 520.891 368.678C521.558 368.329 522.087 367.915 522.449 367.459C522.81 367.004 522.996 366.515 522.996 366.022H526.19ZM515.809 360.596C518.562 360.596 521.202 361.168 523.149 362.186C525.096 363.203 526.19 364.583 526.19 366.022H522.996C522.996 365.529 522.81 365.04 522.449 364.585C522.087 364.129 521.558 363.715 520.891 363.366C520.223 363.017 519.431 362.74 518.559 362.552C517.687 362.363 516.752 362.266 515.809 362.266V360.596Z" fill="white"/>
<path d="M487.024 369.778V371.447H527.024V369.778H487.024ZM495.809 360.596V362.266H535.809V360.596H495.809ZM495.809 369.778V371.447H535.809V369.778H495.809ZM522.996 386.022H526.19V346.022H522.996V386.022ZM499.039 361.431L517.566 396.882L585.398 361.431L517.566 325.981L499.039 361.431ZM496.78 361.431L478.253 325.981L410.421 361.431L478.253 396.882L496.78 361.431ZM505.427 370.613H545.427H505.427ZM505.895 366.195L487.368 401.645L505.895 411.328L524.422 401.645L505.895 366.195ZM500.168 360.841L518.695 325.39L500.168 315.708L481.641 325.39L500.168 360.841ZM508.153 365.014L526.681 400.465L594.513 365.014L526.681 329.564L508.153 365.014ZM505.895 356.667L524.422 321.217L505.895 311.534L487.368 321.217L505.895 356.667ZM508.153 357.848L526.681 393.298L594.513 357.848L526.681 322.397L508.153 357.848ZM500.168 362.021L481.641 397.472L500.168 407.155L518.695 397.472L500.168 362.021ZM499.039 360.596V320.596H459.039V360.596H499.039ZM499.039 362.266H459.039V402.266H499.039V362.266ZM515.809 371.447V331.447V371.447ZM515.809 369.778V329.778V369.778ZM526.19 366.022H566.19H526.19ZM480.511 325.981L479.382 326.571L516.437 397.472L517.566 396.882L480.511 325.981ZM516.437 326.571L515.308 325.981L478.253 396.882L479.382 397.472L516.437 326.571ZM515.308 396.882L516.437 396.292L479.382 325.39L478.253 325.981L515.308 396.882ZM479.382 396.292L480.511 396.882L517.566 325.981L516.437 325.39L479.382 396.292ZM507.024 331.447C509.522 331.447 512.158 331.701 514.876 332.29C517.525 332.863 520.846 333.884 524.422 335.752L487.368 406.654C494.653 410.461 501.749 411.447 507.024 411.447V331.447ZM524.422 335.752C529.681 338.501 545.427 348.942 545.427 370.613H465.427C465.427 392.726 481.51 403.592 487.368 406.654L524.422 335.752ZM545.427 370.613C545.427 392.284 529.681 402.725 524.422 405.473L487.368 334.572C481.509 337.634 465.427 348.499 465.427 370.613H545.427ZM524.422 405.473C520.846 407.342 517.525 408.363 514.876 408.936C512.158 409.525 509.522 409.778 507.024 409.778V329.778C501.749 329.778 494.653 330.764 487.368 334.572L524.422 405.473ZM524.422 330.744L516.437 326.571L479.382 397.472L487.368 401.645L524.422 330.744ZM516.437 397.472L518.695 396.292L481.641 325.39L479.382 326.571L516.437 397.472ZM481.641 396.292L489.626 400.465L526.681 329.564L518.695 325.39L481.641 396.292ZM489.626 329.564L487.368 330.744L524.422 401.645L526.681 400.465L489.626 329.564ZM516.437 396.292L524.422 392.118L487.368 321.217L479.382 325.39L516.437 396.292ZM487.368 392.118L489.626 393.298L526.681 322.397L524.422 321.217L487.368 392.118ZM489.626 322.397L481.641 326.571L518.695 397.472L526.681 393.298L489.626 322.397ZM518.695 326.571L516.437 325.39L479.382 396.292L481.641 397.472L518.695 326.571ZM499.039 400.596H515.809V320.596H499.039V400.596ZM515.809 322.266H499.039V402.266H515.809V322.266ZM539.039 362.266V360.596H459.039V362.266H539.039ZM515.809 331.447H507.024V411.447H515.809V331.447ZM507.024 409.778H515.809V329.778H507.024V409.778ZM486.19 366.022C486.19 345.569 501.01 336.295 504.622 334.408L541.677 405.309C549.182 401.386 566.19 389.353 566.19 366.022H486.19ZM504.622 334.408C507.374 332.97 509.725 332.285 511.318 331.94C512.981 331.58 514.476 331.447 515.809 331.447V411.447C523.413 411.447 532.743 409.978 541.677 405.309L504.622 334.408ZM515.809 409.778C519.434 409.778 523.214 409.411 527.022 408.587L510.096 330.398C512.16 329.951 514.071 329.778 515.809 329.778V409.778ZM527.022 408.587C530.771 407.775 535.053 406.41 539.418 404.128L502.363 333.227C505.394 331.644 508.091 330.832 510.096 330.398L527.022 408.587ZM539.418 404.128C543.65 401.917 549.087 398.248 553.797 392.305L491.1 342.614C495.088 337.583 499.466 334.742 502.363 333.227L539.418 404.128ZM553.797 392.305C558.717 386.096 562.996 377.083 562.996 366.022H482.996C482.996 355.947 486.902 347.911 491.1 342.614L553.797 392.305ZM515.809 400.596C514.476 400.596 512.981 400.464 511.318 400.104C509.725 399.759 507.374 399.074 504.622 397.636L541.677 326.735C532.743 322.066 523.413 320.596 515.809 320.596V400.596ZM504.622 397.636C501.01 395.748 486.19 386.475 486.19 366.022H566.19C566.19 342.691 549.182 330.658 541.677 326.735L504.622 397.636ZM562.996 366.022C562.996 354.961 558.717 345.948 553.797 339.739L491.1 389.43C486.902 384.133 482.996 376.097 482.996 366.022H562.996ZM553.797 339.739C549.087 333.796 543.65 330.127 539.418 327.915L502.363 398.816C499.466 397.302 495.088 394.461 491.1 389.43L553.797 339.739ZM539.418 327.915C535.053 325.634 530.771 324.269 527.022 323.457L510.096 401.646C508.091 401.212 505.394 400.4 502.363 398.816L539.418 327.915ZM527.022 323.457C523.214 322.633 519.434 322.266 515.809 322.266V402.266C514.071 402.266 512.16 402.093 510.096 401.646L527.022 323.457Z" fill="#EBEBEB" mask="url(#path-33-inside-1_264_6966)"/>
<ellipse cx="37.5359" cy="37.5363" rx="37.5359" ry="37.5363" transform="matrix(-1 0 0 1 121.072 271)" fill="url(#paint1_linear_264_6966)"/>
<path d="M137.739 443.947C135.211 442.844 132.274 443.534 130.436 445.589L88.7659 492.188C85.0051 496.393 88.0238 503.075 93.6655 503.123C144.292 503.555 162.18 506.74 200.397 520.944C205.829 522.963 211.009 517.526 208.401 512.352C193.382 482.551 173.655 459.619 137.739 443.947Z" fill="url(#paint2_linear_264_6966)"/>
<path d="M121.564 441.176C123.805 438.786 123.916 435.125 122.019 432.455C97.2421 397.591 88.3106 334.212 71.7792 361C55.9165 386.705 56.723 446.541 68.3962 484.618C69.7949 489.18 75.5155 490.274 78.7799 486.793L121.564 441.176Z" fill="url(#paint3_linear_264_6966)"/>
<path d="M165.441 389.333C167.07 389.333 168.455 388.701 169.596 387.438C170.736 386.174 171.307 384.639 171.307 382.833H167.396C167.396 383.447 167.208 383.962 166.833 384.378C166.458 384.794 165.994 385.001 165.441 385C164.887 385 164.422 384.792 164.047 384.376C163.671 383.96 163.484 383.446 163.486 382.833C163.486 382.219 163.673 381.705 164.049 381.291C164.424 380.876 164.888 380.668 165.441 380.667H184.016V376.333H165.441C163.812 376.333 162.427 376.965 161.286 378.229C160.145 379.493 159.575 381.028 159.575 382.833C159.575 384.639 160.145 386.174 161.286 387.438C162.427 388.701 163.812 389.333 165.441 389.333ZM184.016 367.667V363.333H157.62C156.772 363.333 156.072 363.026 155.518 362.413C154.964 361.799 154.687 361.022 154.687 360.083C154.687 359.144 154.964 358.368 155.518 357.754C156.072 357.14 156.772 356.833 157.62 356.833C158.467 356.833 159.168 357.14 159.722 357.754C160.276 358.368 160.553 359.144 160.553 360.083H164.463C164.463 357.953 163.803 356.156 162.483 354.693C161.162 353.229 159.541 352.499 157.62 352.5C155.697 352.5 154.075 353.232 152.755 354.695C151.435 356.158 150.775 357.954 150.776 360.083C150.776 362.214 151.436 364.011 152.755 365.474C154.074 366.937 155.696 367.668 157.62 367.667H184.016ZM151.754 385V380.667C150.907 380.667 150.206 380.36 149.652 379.746C149.098 379.132 148.821 378.356 148.821 377.417C148.821 376.478 149.098 375.701 149.652 375.088C150.206 374.474 150.907 374.167 151.754 374.167H184.016V369.833H151.754C149.831 369.833 148.21 370.565 146.889 372.028C145.569 373.491 144.909 375.288 144.91 377.417C144.91 379.547 145.57 381.344 146.889 382.807C148.208 384.271 149.83 385.001 151.754 385Z" fill="white"/>
<ellipse cx="1146.46" cy="308.536" rx="37.5359" ry="37.5363" fill="url(#paint4_linear_264_6966)"/>
<path d="M1092.26 443.947C1094.79 442.844 1097.73 443.534 1099.56 445.589L1141.23 492.188C1144.99 496.393 1141.98 503.075 1136.33 503.123C1085.71 503.555 1067.82 506.74 1029.6 520.944C1024.17 522.963 1018.99 517.526 1021.6 512.352C1036.62 482.551 1056.35 459.619 1092.26 443.947Z" fill="url(#paint5_linear_264_6966)"/>
<path d="M1108.44 441.176C1106.19 438.786 1106.08 435.125 1107.98 432.455C1132.76 397.591 1141.69 334.212 1158.22 361C1174.08 386.705 1173.28 446.541 1161.6 484.618C1160.21 489.18 1154.48 490.274 1151.22 486.793L1108.44 441.176Z" fill="url(#paint6_linear_264_6966)"/>
<path d="M1064.56 389.333C1062.93 389.333 1061.54 388.701 1060.4 387.438C1059.26 386.174 1058.69 384.639 1058.69 382.833H1062.6C1062.6 383.447 1062.79 383.962 1063.17 384.378C1063.54 384.794 1064.01 385.001 1064.56 385C1065.11 385 1065.58 384.792 1065.95 384.376C1066.33 383.96 1066.52 383.446 1066.51 382.833C1066.51 382.219 1066.33 381.705 1065.95 381.291C1065.58 380.876 1065.11 380.668 1064.56 380.667H1045.98V376.333H1064.56C1066.19 376.333 1067.57 376.965 1068.71 378.229C1069.85 379.493 1070.42 381.028 1070.42 382.833C1070.42 384.639 1069.85 386.174 1068.71 387.438C1067.57 388.701 1066.19 389.333 1064.56 389.333ZM1045.98 367.667V363.333H1072.38C1073.23 363.333 1073.93 363.026 1074.48 362.413C1075.04 361.799 1075.31 361.022 1075.31 360.083C1075.31 359.144 1075.04 358.368 1074.48 357.754C1073.93 357.14 1073.23 356.833 1072.38 356.833C1071.53 356.833 1070.83 357.14 1070.28 357.754C1069.72 358.368 1069.45 359.144 1069.45 360.083H1065.54C1065.54 357.953 1066.2 356.156 1067.52 354.693C1068.84 353.229 1070.46 352.499 1072.38 352.5C1074.3 352.5 1075.92 353.232 1077.24 354.695C1078.57 356.158 1079.22 357.954 1079.22 360.083C1079.22 362.214 1078.56 364.011 1077.24 365.474C1075.93 366.937 1074.3 367.668 1072.38 367.667H1045.98ZM1078.25 385V380.667C1079.09 380.667 1079.79 380.36 1080.35 379.746C1080.9 379.132 1081.18 378.356 1081.18 377.417C1081.18 376.478 1080.9 375.701 1080.35 375.088C1079.79 374.474 1079.09 374.167 1078.25 374.167H1045.98V369.833H1078.25C1080.17 369.833 1081.79 370.565 1083.11 372.028C1084.43 373.491 1085.09 375.288 1085.09 377.417C1085.09 379.547 1084.43 381.344 1083.11 382.807C1081.79 384.271 1080.17 385.001 1078.25 385Z" fill="white"/>
<defs>
<filter id="filter0_d_264_6966" x="57" y="37.5195" width="231" height="232" filterUnits="userSpaceOnUse" color-interpolation-filters="sRGB">
<feFlood flood-opacity="0" result="BackgroundImageFix"/>
<feColorMatrix in="SourceAlpha" type="matrix" values="0 0 0 0 0 0 0 0 0 0 0 0 0 0 0 0 0 0 127 0" result="hardAlpha"/>
<feOffset dy="4"/>
<feGaussianBlur stdDeviation="2"/>
<feComposite in2="hardAlpha" operator="out"/>
<feColorMatrix type="matrix" values="0 0 0 0 0 0 0 0 0 0 0 0 0 0 0 0 0 0 0.25 0"/>
<feBlend mode="normal" in2="BackgroundImageFix" result="effect1_dropShadow_264_6966"/>
<feBlend mode="normal" in="SourceGraphic" in2="effect1_dropShadow_264_6966" result="shape"/>
</filter>
<filter id="filter1_d_264_6966" x="113.8" y="139.2" width="112.412" height="35.1997" filterUnits="userSpaceOnUse" color-interpolation-filters="sRGB">
<feFlood flood-opacity="0" result="BackgroundImageFix"/>
<feColorMatrix in="SourceAlpha" type="matrix" values="0 0 0 0 0 0 0 0 0 0 0 0 0 0 0 0 0 0 127 0" result="hardAlpha"/>
<feOffset dy="4"/>
<feGaussianBlur stdDeviation="2"/>
<feComposite in2="hardAlpha" operator="out"/>
<feColorMatrix type="matrix" values="0 0 0 0 0 0 0 0 0 0 0 0 0 0 0 0 0 0 0.25 0"/>
<feBlend mode="normal" in2="BackgroundImageFix" result="effect1_dropShadow_264_6966"/>
<feBlend mode="normal" in="SourceGraphic" in2="effect1_dropShadow_264_6966" result="shape"/>
</filter>
<filter id="filter2_d_264_6966" x="165.396" y="48.5215" width="108.448" height="98.0952" filterUnits="userSpaceOnUse" color-interpolation-filters="sRGB">
<feFlood flood-opacity="0" result="BackgroundImageFix"/>
<feColorMatrix in="SourceAlpha" type="matrix" values="0 0 0 0 0 0 0 0 0 0 0 0 0 0 0 0 0 0 127 0" result="hardAlpha"/>
<feOffset dy="4"/>
<feGaussianBlur stdDeviation="2"/>
<feComposite in2="hardAlpha" operator="out"/>
<feColorMatrix type="matrix" values="0 0 0 0 0 0 0 0 0 0 0 0 0 0 0 0 0 0 0.25 0"/>
<feBlend mode="normal" in2="BackgroundImageFix" result="effect1_dropShadow_264_6966"/>
<feBlend mode="normal" in="SourceGraphic" in2="effect1_dropShadow_264_6966" result="shape"/>
</filter>
<filter id="filter3_d_264_6966" x="72.7964" y="48.5391" width="101.514" height="98.0771" filterUnits="userSpaceOnUse" color-interpolation-filters="sRGB">
<feFlood flood-opacity="0" result="BackgroundImageFix"/>
<feColorMatrix in="SourceAlpha" type="matrix" values="0 0 0 0 0 0 0 0 0 0 0 0 0 0 0 0 0 0 127 0" result="hardAlpha"/>
<feOffset dy="4"/>
<feGaussianBlur stdDeviation="2"/>
<feComposite in2="hardAlpha" operator="out"/>
<feColorMatrix type="matrix" values="0 0 0 0 0 0 0 0 0 0 0 0 0 0 0 0 0 0 0.25 0"/>
<feBlend mode="normal" in2="BackgroundImageFix" result="effect1_dropShadow_264_6966"/>
<feBlend mode="normal" in="SourceGraphic" in2="effect1_dropShadow_264_6966" result="shape"/>
</filter>
<filter id="filter4_d_264_6966" x="945" y="40.5195" width="231" height="232" filterUnits="userSpaceOnUse" color-interpolation-filters="sRGB">
<feFlood flood-opacity="0" result="BackgroundImageFix"/>
<feColorMatrix in="SourceAlpha" type="matrix" values="0 0 0 0 0 0 0 0 0 0 0 0 0 0 0 0 0 0 127 0" result="hardAlpha"/>
<feOffset dy="4"/>
<feGaussianBlur stdDeviation="2"/>
<feComposite in2="hardAlpha" operator="out"/>
<feColorMatrix type="matrix" values="0 0 0 0 0 0 0 0 0 0 0 0 0 0 0 0 0 0 0.25 0"/>
<feBlend mode="normal" in2="BackgroundImageFix" result="effect1_dropShadow_264_6966"/>
<feBlend mode="normal" in="SourceGraphic" in2="effect1_dropShadow_264_6966" result="shape"/>
</filter>
<filter id="filter5_d_264_6966" x="1001.8" y="142.2" width="112.411" height="35.1997" filterUnits="userSpaceOnUse" color-interpolation-filters="sRGB">
<feFlood flood-opacity="0" result="BackgroundImageFix"/>
<feColorMatrix in="SourceAlpha" type="matrix" values="0 0 0 0 0 0 0 0 0 0 0 0 0 0 0 0 0 0 127 0" result="hardAlpha"/>
<feOffset dy="4"/>
<feGaussianBlur stdDeviation="2"/>
<feComposite in2="hardAlpha" operator="out"/>
<feColorMatrix type="matrix" values="0 0 0 0 0 0 0 0 0 0 0 0 0 0 0 0 0 0 0.25 0"/>
<feBlend mode="normal" in2="BackgroundImageFix" result="effect1_dropShadow_264_6966"/>
<feBlend mode="normal" in="SourceGraphic" in2="effect1_dropShadow_264_6966" result="shape"/>
</filter>
<filter id="filter6_d_264_6966" x="1053.4" y="51.5215" width="108.448" height="98.0952" filterUnits="userSpaceOnUse" color-interpolation-filters="sRGB">
<feFlood flood-opacity="0" result="BackgroundImageFix"/>
<feColorMatrix in="SourceAlpha" type="matrix" values="0 0 0 0 0 0 0 0 0 0 0 0 0 0 0 0 0 0 127 0" result="hardAlpha"/>
<feOffset dy="4"/>
<feGaussianBlur stdDeviation="2"/>
<feComposite in2="hardAlpha" operator="out"/>
<feColorMatrix type="matrix" values="0 0 0 0 0 0 0 0 0 0 0 0 0 0 0 0 0 0 0.25 0"/>
<feBlend mode="normal" in2="BackgroundImageFix" result="effect1_dropShadow_264_6966"/>
<feBlend mode="normal" in="SourceGraphic" in2="effect1_dropShadow_264_6966" result="shape"/>
</filter>
<filter id="filter7_d_264_6966" x="960.796" y="51.5391" width="101.514" height="98.0771" filterUnits="userSpaceOnUse" color-interpolation-filters="sRGB">
<feFlood flood-opacity="0" result="BackgroundImageFix"/>
<feColorMatrix in="SourceAlpha" type="matrix" values="0 0 0 0 0 0 0 0 0 0 0 0 0 0 0 0 0 0 127 0" result="hardAlpha"/>
<feOffset dy="4"/>
<feGaussianBlur stdDeviation="2"/>
<feComposite in2="hardAlpha" operator="out"/>
<feColorMatrix type="matrix" values="0 0 0 0 0 0 0 0 0 0 0 0 0 0 0 0 0 0 0.25 0"/>
<feBlend mode="normal" in2="BackgroundImageFix" result="effect1_dropShadow_264_6966"/>
<feBlend mode="normal" in="SourceGraphic" in2="effect1_dropShadow_264_6966" result="shape"/>
</filter>
<filter id="filter8_d_264_6966" x="500" y="41" width="231" height="232" filterUnits="userSpaceOnUse" color-interpolation-filters="sRGB">
<feFlood flood-opacity="0" result="BackgroundImageFix"/>
<feColorMatrix in="SourceAlpha" type="matrix" values="0 0 0 0 0 0 0 0 0 0 0 0 0 0 0 0 0 0 127 0" result="hardAlpha"/>
<feOffset dy="4"/>
<feGaussianBlur stdDeviation="2"/>
<feComposite in2="hardAlpha" operator="out"/>
<feColorMatrix type="matrix" values="0 0 0 0 0 0 0 0 0 0 0 0 0 0 0 0 0 0 0.25 0"/>
<feBlend mode="normal" in2="BackgroundImageFix" result="effect1_dropShadow_264_6966"/>
<feBlend mode="normal" in="SourceGraphic" in2="effect1_dropShadow_264_6966" result="shape"/>
</filter>
<filter id="filter9_d_264_6966" x="579.72" y="179.38" width="69.8047" height="36.6201" filterUnits="userSpaceOnUse" color-interpolation-filters="sRGB">
<feFlood flood-opacity="0" result="BackgroundImageFix"/>
<feColorMatrix in="SourceAlpha" type="matrix" values="0 0 0 0 0 0 0 0 0 0 0 0 0 0 0 0 0 0 127 0" result="hardAlpha"/>
<feOffset dy="4"/>
<feGaussianBlur stdDeviation="2"/>
<feComposite in2="hardAlpha" operator="out"/>
<feColorMatrix type="matrix" values="0 0 0 0 0 0 0 0 0 0 0 0 0 0 0 0 0 0 0.25 0"/>
<feBlend mode="normal" in2="BackgroundImageFix" result="effect1_dropShadow_264_6966"/>
<feBlend mode="normal" in="SourceGraphic" in2="effect1_dropShadow_264_6966" result="shape"/>
</filter>
<filter id="filter10_d_264_6966" x="606.396" y="54.5215" width="108.448" height="98.0952" filterUnits="userSpaceOnUse" color-interpolation-filters="sRGB">
<feFlood flood-opacity="0" result="BackgroundImageFix"/>
<feColorMatrix in="SourceAlpha" type="matrix" values="0 0 0 0 0 0 0 0 0 0 0 0 0 0 0 0 0 0 127 0" result="hardAlpha"/>
<feOffset dy="4"/>
<feGaussianBlur stdDeviation="2"/>
<feComposite in2="hardAlpha" operator="out"/>
<feColorMatrix type="matrix" values="0 0 0 0 0 0 0 0 0 0 0 0 0 0 0 0 0 0 0.25 0"/>
<feBlend mode="normal" in2="BackgroundImageFix" result="effect1_dropShadow_264_6966"/>
<feBlend mode="normal" in="SourceGraphic" in2="effect1_dropShadow_264_6966" result="shape"/>
</filter>
<filter id="filter11_d_264_6966" x="513.796" y="54.5391" width="101.514" height="98.0771" filterUnits="userSpaceOnUse" color-interpolation-filters="sRGB">
<feFlood flood-opacity="0" result="BackgroundImageFix"/>
<feColorMatrix in="SourceAlpha" type="matrix" values="0 0 0 0 0 0 0 0 0 0 0 0 0 0 0 0 0 0 127 0" result="hardAlpha"/>
<feOffset dy="4"/>
<feGaussianBlur stdDeviation="2"/>
<feComposite in2="hardAlpha" operator="out"/>
<feColorMatrix type="matrix" values="0 0 0 0 0 0 0 0 0 0 0 0 0 0 0 0 0 0 0.25 0"/>
<feBlend mode="normal" in2="BackgroundImageFix" result="effect1_dropShadow_264_6966"/>
<feBlend mode="normal" in="SourceGraphic" in2="effect1_dropShadow_264_6966" result="shape"/>
</filter>
<filter id="filter12_d_264_6966" x="585.5" y="107.5" width="58.5388" height="57.9146" filterUnits="userSpaceOnUse" color-interpolation-filters="sRGB">
<feFlood flood-opacity="0" result="BackgroundImageFix"/>
<feColorMatrix in="SourceAlpha" type="matrix" values="0 0 0 0 0 0 0 0 0 0 0 0 0 0 0 0 0 0 127 0" result="hardAlpha"/>
<feOffset dy="4"/>
<feGaussianBlur stdDeviation="2"/>
<feComposite in2="hardAlpha" operator="out"/>
<feColorMatrix type="matrix" values="0 0 0 0 0 0 0 0 0 0 0 0 0 0 0 0 0 0 0.25 0"/>
<feBlend mode="normal" in2="BackgroundImageFix" result="effect1_dropShadow_264_6966"/>
<feBlend mode="normal" in="SourceGraphic" in2="effect1_dropShadow_264_6966" result="shape"/>
</filter>
<filter id="filter13_d_264_6966" x="798.521" y="328.5" width="135.58" height="96" filterUnits="userSpaceOnUse" color-interpolation-filters="sRGB">
<feFlood flood-opacity="0" result="BackgroundImageFix"/>
<feColorMatrix in="SourceAlpha" type="matrix" values="0 0 0 0 0 0 0 0 0 0 0 0 0 0 0 0 0 0 127 0" result="hardAlpha"/>
<feOffset dy="4"/>
<feGaussianBlur stdDeviation="2"/>
<feComposite in2="hardAlpha" operator="out"/>
<feColorMatrix type="matrix" values="0 0 0 0 0 0 0 0 0 0 0 0 0 0 0 0 0 0 0.25 0"/>
<feBlend mode="normal" in2="BackgroundImageFix" result="effect1_dropShadow_264_6966"/>
<feBlend mode="normal" in="SourceGraphic" in2="effect1_dropShadow_264_6966" result="shape"/>
</filter>
<filter id="filter14_d_264_6966" x="653" y="325" width="135.58" height="96" filterUnits="userSpaceOnUse" color-interpolation-filters="sRGB">
<feFlood flood-opacity="0" result="BackgroundImageFix"/>
<feColorMatrix in="SourceAlpha" type="matrix" values="0 0 0 0 0 0 0 0 0 0 0 0 0 0 0 0 0 0 127 0" result="hardAlpha"/>
<feOffset dy="4"/>
<feGaussianBlur stdDeviation="2"/>
<feComposite in2="hardAlpha" operator="out"/>
<feColorMatrix type="matrix" values="0 0 0 0 0 0 0 0 0 0 0 0 0 0 0 0 0 0 0.25 0"/>
<feBlend mode="normal" in2="BackgroundImageFix" result="effect1_dropShadow_264_6966"/>
<feBlend mode="normal" in="SourceGraphic" in2="effect1_dropShadow_264_6966" result="shape"/>
</filter>
<filter id="filter15_d_264_6966" x="829.419" y="345.5" width="73.7832" height="72" filterUnits="userSpaceOnUse" color-interpolation-filters="sRGB">
<feFlood flood-opacity="0" result="BackgroundImageFix"/>
<feColorMatrix in="SourceAlpha" type="matrix" values="0 0 0 0 0 0 0 0 0 0 0 0 0 0 0 0 0 0 127 0" result="hardAlpha"/>
<feOffset dy="4"/>
<feGaussianBlur stdDeviation="2"/>
<feComposite in2="hardAlpha" operator="out"/>
<feColorMatrix type="matrix" values="0 0 0 0 0 0 0 0 0 0 0 0 0 0 0 0 0 0 0.25 0"/>
<feBlend mode="normal" in2="BackgroundImageFix" result="effect1_dropShadow_264_6966"/>
<feBlend mode="normal" in="SourceGraphic" in2="effect1_dropShadow_264_6966" result="shape"/>
</filter>
<filter id="filter16_d_264_6966" x="296" y="325" width="135.58" height="96" filterUnits="userSpaceOnUse" color-interpolation-filters="sRGB">
<feFlood flood-opacity="0" result="BackgroundImageFix"/>
<feColorMatrix in="SourceAlpha" type="matrix" values="0 0 0 0 0 0 0 0 0 0 0 0 0 0 0 0 0 0 127 0" result="hardAlpha"/>
<feOffset dy="4"/>
<feGaussianBlur stdDeviation="2"/>
<feComposite in2="hardAlpha" operator="out"/>
<feColorMatrix type="matrix" values="0 0 0 0 0 0 0 0 0 0 0 0 0 0 0 0 0 0 0.25 0"/>
<feBlend mode="normal" in2="BackgroundImageFix" result="effect1_dropShadow_264_6966"/>
<feBlend mode="normal" in="SourceGraphic" in2="effect1_dropShadow_264_6966" result="shape"/>
</filter>
<filter id="filter17_d_264_6966" x="434.543" y="325" width="135.58" height="96" filterUnits="userSpaceOnUse" color-interpolation-filters="sRGB">
<feFlood flood-opacity="0" result="BackgroundImageFix"/>
<feColorMatrix in="SourceAlpha" type="matrix" values="0 0 0 0 0 0 0 0 0 0 0 0 0 0 0 0 0 0 127 0" result="hardAlpha"/>
<feOffset dy="4"/>
<feGaussianBlur stdDeviation="2"/>
<feComposite in2="hardAlpha" operator="out"/>
<feColorMatrix type="matrix" values="0 0 0 0 0 0 0 0 0 0 0 0 0 0 0 0 0 0 0.25 0"/>
<feBlend mode="normal" in2="BackgroundImageFix" result="effect1_dropShadow_264_6966"/>
<feBlend mode="normal" in="SourceGraphic" in2="effect1_dropShadow_264_6966" result="shape"/>
</filter>
<filter id="filter18_d_264_6966" x="459.952" y="349.5" width="83.7668" height="51" filterUnits="userSpaceOnUse" color-interpolation-filters="sRGB">
<feFlood flood-opacity="0" result="BackgroundImageFix"/>
<feColorMatrix in="SourceAlpha" type="matrix" values="0 0 0 0 0 0 0 0 0 0 0 0 0 0 0 0 0 0 127 0" result="hardAlpha"/>
<feOffset dy="4"/>
<feGaussianBlur stdDeviation="2"/>
<feComposite in2="hardAlpha" operator="out"/>
<feColorMatrix type="matrix" values="0 0 0 0 0 0 0 0 0 0 0 0 0 0 0 0 0 0 0.25 0"/>
<feBlend mode="normal" in2="BackgroundImageFix" result="effect1_dropShadow_264_6966"/>
<feBlend mode="normal" in="SourceGraphic" in2="effect1_dropShadow_264_6966" result="shape"/>
</filter>
<linearGradient id="paint0_linear_264_6966" x1="594.236" y1="-49.54" x2="613.79" y2="681.869" gradientUnits="userSpaceOnUse">
<stop stop-color="#A6A5A5"/>
<stop offset="1" stop-color="#6A6A6A"/>
</linearGradient>
<linearGradient id="paint1_linear_264_6966" x1="37.5359" y1="0" x2="37.5359" y2="75.0726" gradientUnits="userSpaceOnUse">
<stop stop-color="#393939"/>
<stop offset="1" stop-color="#2B2B2B"/>
</linearGradient>
<linearGradient id="paint2_linear_264_6966" x1="153.379" y1="442.162" x2="153.379" y2="503.067" gradientUnits="userSpaceOnUse">
<stop stop-color="#393939"/>
<stop offset="1" stop-color="#2B2B2B"/>
</linearGradient>
<linearGradient id="paint3_linear_264_6966" x1="123.797" y1="412.793" x2="66.3911" y2="416.785" gradientUnits="userSpaceOnUse">
<stop stop-color="#393939"/>
<stop offset="1" stop-color="#2B2B2B"/>
</linearGradient>
<linearGradient id="paint4_linear_264_6966" x1="1146.46" y1="271" x2="1146.46" y2="346.073" gradientUnits="userSpaceOnUse">
<stop stop-color="#393939"/>
<stop offset="1" stop-color="#2B2B2B"/>
</linearGradient>
<linearGradient id="paint5_linear_264_6966" x1="1076.62" y1="442.162" x2="1076.62" y2="503.067" gradientUnits="userSpaceOnUse">
<stop stop-color="#393939"/>
<stop offset="1" stop-color="#2B2B2B"/>
</linearGradient>
<linearGradient id="paint6_linear_264_6966" x1="1106.2" y1="412.793" x2="1163.61" y2="416.785" gradientUnits="userSpaceOnUse">
<stop stop-color="#393939"/>
<stop offset="1" stop-color="#2B2B2B"/>
</linearGradient>
<clipPath id="clip0_264_6966">
<rect width="65.7832" height="64" fill="white" transform="translate(833.419 345.5)"/>
</clipPath>
</defs>
</svg>
